<?xml version="1.0" encoding="UTF-8" standalone="no"?>
<svg
   width="1920"
   zoomAndPan="magnify"
   viewBox="0 0 1440 809.99999"
   height="1080"
   preserveAspectRatio="xMidYMid"
   version="1.0"
   id="svg158"
   xmlns="http://www.w3.org/2000/svg"
   xmlns:svg="http://www.w3.org/2000/svg">
  <defs
     id="defs74">
    <filter
       x="0"
       y="0"
       width="1"
       height="1"
       id="758179e32e">
      <feColorMatrix
         values="0 0 0 0 1 0 0 0 0 1 0 0 0 0 1 0 0 0 1 0"
         color-interpolation-filters="sRGB"
         id="feColorMatrix1" />
    </filter>
    <mask
       id="5ef229432b">
      <g
         filter="url(#758179e32e)"
         id="g3">
        <rect
           x="-144"
           width="1728"
           fill="#000000"
           y="-81"
           height="972"
           fill-opacity="0.5"
           id="rect3" />
      </g>
    </mask>
    <clipPath
       id="0297aebde7">
      <path
         d="M 0,313 H 123 V 445 H 0 Z m 0,0"
         clip-rule="nonzero"
         id="path3" />
    </clipPath>
    <clipPath
       id="4eb1f03081">
      <path
         d="M 0,300 H 135 V 445 H 0 Z m 0,0"
         clip-rule="nonzero"
         id="path4" />
    </clipPath>
    <clipPath
       id="7bd7e0819b">
      <path
         d="M 0,288 H 148 V 445 H 0 Z m 0,0"
         clip-rule="nonzero"
         id="path5" />
    </clipPath>
    <clipPath
       id="61c4b7200a">
      <path
         d="M 0,325 H 110 V 445 H 0 Z m 0,0"
         clip-rule="nonzero"
         id="path6" />
    </clipPath>
    <clipPath
       id="38a5a5e48c">
      <path
         d="M 0,275 H 160 V 445 H 0 Z m 0,0"
         clip-rule="nonzero"
         id="path7" />
    </clipPath>
    <clipPath
       id="dccae1eed9">
      <path
         d="M 0,250 H 185 V 445 H 0 Z m 0,0"
         clip-rule="nonzero"
         id="path8" />
    </clipPath>
    <clipPath
       id="a60da8a70d">
      <path
         d="M 0,238 H 198 V 445 H 0 Z m 0,0"
         clip-rule="nonzero"
         id="path9" />
    </clipPath>
    <clipPath
       id="9c5a7b0c8c">
      <path
         d="M 0,263 H 173 V 445 H 0 Z m 0,0"
         clip-rule="nonzero"
         id="path10" />
    </clipPath>
    <clipPath
       id="d9783b4119">
      <path
         d="M 0,338 H 98 V 445 H 0 Z m 0,0"
         clip-rule="nonzero"
         id="path11" />
    </clipPath>
    <clipPath
       id="47cbc82d58">
      <path
         d="m 0,350 h 85 v 95 H 0 Z m 0,0"
         clip-rule="nonzero"
         id="path12" />
    </clipPath>
    <clipPath
       id="81c94e8ea1">
      <path
         d="m 0,425 h 10 v 20 H 0 Z m 0,0"
         clip-rule="nonzero"
         id="path13" />
    </clipPath>
    <clipPath
       id="95ac65adcc">
      <path
         d="m 0,413 h 23 v 32 H 0 Z m 0,0"
         clip-rule="nonzero"
         id="path14" />
    </clipPath>
    <clipPath
       id="1296274102">
      <path
         d="m 0,400 h 35 v 45 H 0 Z m 0,0"
         clip-rule="nonzero"
         id="path15" />
    </clipPath>
    <clipPath
       id="0879956503">
      <path
         d="M 0,225 H 210 V 445 H 0 Z m 0,0"
         clip-rule="nonzero"
         id="path16" />
    </clipPath>
    <clipPath
       id="9db1ad76ca">
      <path
         d="m 0,388 h 48 v 57 H 0 Z m 0,0"
         clip-rule="nonzero"
         id="path17" />
    </clipPath>
    <clipPath
       id="aa4f1e4b47">
      <path
         d="m 0,363 h 73 v 82 H 0 Z m 0,0"
         clip-rule="nonzero"
         id="path18" />
    </clipPath>
    <clipPath
       id="f4959ba862">
      <path
         d="m 0,375 h 60 v 70 H 0 Z m 0,0"
         clip-rule="nonzero"
         id="path19" />
    </clipPath>
    <clipPath
       id="8714daa6ad">
      <path
         d="M 0,63 H 373 V 445 H 0 Z m 0,0"
         clip-rule="nonzero"
         id="path20" />
    </clipPath>
    <clipPath
       id="c30c4fb4ba">
      <path
         d="M 0,75 H 361 V 445 H 0 Z m 0,0"
         clip-rule="nonzero"
         id="path21" />
    </clipPath>
    <clipPath
       id="37dd3be5f1">
      <path
         d="M 0,88 H 348 V 445 H 0 Z m 0,0"
         clip-rule="nonzero"
         id="path22" />
    </clipPath>
    <clipPath
       id="64514d7de9">
      <path
         d="M 0,50 H 386 V 445 H 0 Z m 0,0"
         clip-rule="nonzero"
         id="path23" />
    </clipPath>
    <clipPath
       id="7c9f4fecb2">
      <path
         d="M 0,0.5625 H 434.75781 V 445 H 0 Z m 0,0"
         clip-rule="nonzero"
         id="path24" />
    </clipPath>
    <clipPath
       id="968df7235c">
      <path
         d="M 0,13 H 423 V 445 H 0 Z m 0,0"
         clip-rule="nonzero"
         id="path25" />
    </clipPath>
    <clipPath
       id="f04baf7906">
      <path
         d="M 0,38 H 398 V 445 H 0 Z m 0,0"
         clip-rule="nonzero"
         id="path26" />
    </clipPath>
    <clipPath
       id="9123029de6">
      <path
         d="M 0,100 H 335 V 445 H 0 Z m 0,0"
         clip-rule="nonzero"
         id="path27" />
    </clipPath>
    <clipPath
       id="327e21f895">
      <path
         d="M 0,213 H 223 V 445 H 0 Z m 0,0"
         clip-rule="nonzero"
         id="path28" />
    </clipPath>
    <clipPath
       id="495fb47f3d">
      <path
         d="M 0,25 H 411 V 445 H 0 Z m 0,0"
         clip-rule="nonzero"
         id="path29" />
    </clipPath>
    <clipPath
       id="62553f7bda">
      <path
         d="M 0,163 H 273 V 445 H 0 Z m 0,0"
         clip-rule="nonzero"
         id="path30" />
    </clipPath>
    <clipPath
       id="7a653d6ac0">
      <path
         d="M 0,188 H 248 V 445 H 0 Z m 0,0"
         clip-rule="nonzero"
         id="path31" />
    </clipPath>
    <clipPath
       id="0515598148">
      <path
         d="M 0,113 H 323 V 445 H 0 Z m 0,0"
         clip-rule="nonzero"
         id="path32" />
    </clipPath>
    <clipPath
       id="b0cf2301f5">
      <path
         d="M 0,200 H 235 V 445 H 0 Z m 0,0"
         clip-rule="nonzero"
         id="path33" />
    </clipPath>
    <clipPath
       id="572843f90d">
      <path
         d="M 0,175 H 260 V 445 H 0 Z m 0,0"
         clip-rule="nonzero"
         id="path34" />
    </clipPath>
    <clipPath
       id="ba0d3a08ff">
      <path
         d="M 0,125 H 310 V 445 H 0 Z m 0,0"
         clip-rule="nonzero"
         id="path35" />
    </clipPath>
    <clipPath
       id="fd14ca9f16">
      <path
         d="M 0,150 H 285 V 445 H 0 Z m 0,0"
         clip-rule="nonzero"
         id="path36" />
    </clipPath>
    <clipPath
       id="b109621704">
      <path
         d="M 0,138 H 298 V 445 H 0 Z m 0,0"
         clip-rule="nonzero"
         id="path37" />
    </clipPath>
    <clipPath
       id="9672431a01">
      <rect
         x="0"
         width="436"
         y="0"
         height="445"
         id="rect37" />
    </clipPath>
    <mask
       id="1aa9bac220">
      <g
         filter="url(#758179e32e)"
         id="g38">
        <rect
           x="-144"
           width="1728"
           fill="#000000"
           y="-81"
           height="972"
           fill-opacity="0.5"
           id="rect38" />
      </g>
    </mask>
    <clipPath
       id="579aae8e84">
      <path
         d="M 312,0 H 506 V 187 H 312 Z m 0,0"
         clip-rule="nonzero"
         id="path38" />
    </clipPath>
    <clipPath
       id="3c0ecd44f5">
      <path
         d="M 300,0 H 506 V 200 H 300 Z m 0,0"
         clip-rule="nonzero"
         id="path39" />
    </clipPath>
    <clipPath
       id="fe8ccf7253">
      <path
         d="M 287,0 H 506 V 212 H 287 Z m 0,0"
         clip-rule="nonzero"
         id="path40" />
    </clipPath>
    <clipPath
       id="38d98c2e69">
      <path
         d="M 325,0 H 506 V 175 H 325 Z m 0,0"
         clip-rule="nonzero"
         id="path41" />
    </clipPath>
    <clipPath
       id="7f9796047a">
      <path
         d="M 275,0 H 506 V 225 H 275 Z m 0,0"
         clip-rule="nonzero"
         id="path42" />
    </clipPath>
    <clipPath
       id="d96bf8ce5a">
      <path
         d="M 250,0 H 506 V 250 H 250 Z m 0,0"
         clip-rule="nonzero"
         id="path43" />
    </clipPath>
    <clipPath
       id="b920c89c4b">
      <path
         d="M 237,0 H 506 V 262 H 237 Z m 0,0"
         clip-rule="nonzero"
         id="path44" />
    </clipPath>
    <clipPath
       id="d68dfeddb5">
      <path
         d="M 262,0 H 506 V 237 H 262 Z m 0,0"
         clip-rule="nonzero"
         id="path45" />
    </clipPath>
    <clipPath
       id="e8d06b0c09">
      <path
         d="M 337,0 H 506 V 162 H 337 Z m 0,0"
         clip-rule="nonzero"
         id="path46" />
    </clipPath>
    <clipPath
       id="7fd3ed1647">
      <path
         d="M 350,0 H 506 V 150 H 350 Z m 0,0"
         clip-rule="nonzero"
         id="path47" />
    </clipPath>
    <clipPath
       id="a5b514ff75">
      <path
         d="m 425,0 h 81 v 75 h -81 z m 0,0"
         clip-rule="nonzero"
         id="path48" />
    </clipPath>
    <clipPath
       id="d4b1b5dfdd">
      <path
         d="m 412,0 h 94 v 87 h -94 z m 0,0"
         clip-rule="nonzero"
         id="path49" />
    </clipPath>
    <clipPath
       id="3599da1973">
      <path
         d="M 400,0 H 506 V 100 H 400 Z m 0,0"
         clip-rule="nonzero"
         id="path50" />
    </clipPath>
    <clipPath
       id="b4b49c900d">
      <path
         d="M 225,0 H 506 V 275 H 225 Z m 0,0"
         clip-rule="nonzero"
         id="path51" />
    </clipPath>
    <clipPath
       id="f5de50eed8">
      <path
         d="m 450,0 h 56 v 50 h -56 z m 0,0"
         clip-rule="nonzero"
         id="path52" />
    </clipPath>
    <clipPath
       id="56344e81b3">
      <path
         d="M 387,0 H 506 V 112 H 387 Z m 0,0"
         clip-rule="nonzero"
         id="path53" />
    </clipPath>
    <clipPath
       id="e5e43fd2af">
      <path
         d="M 362,0 H 506 V 137 H 362 Z m 0,0"
         clip-rule="nonzero"
         id="path54" />
    </clipPath>
    <clipPath
       id="c10964ff58">
      <path
         d="M 375,0 H 506 V 125 H 375 Z m 0,0"
         clip-rule="nonzero"
         id="path55" />
    </clipPath>
    <clipPath
       id="cbc6e0fe26">
      <path
         d="m 437,0 h 69 v 62 h -69 z m 0,0"
         clip-rule="nonzero"
         id="path56" />
    </clipPath>
    <clipPath
       id="fc2f62a075">
      <path
         d="M 62,0 H 506 V 437 H 62 Z m 0,0"
         clip-rule="nonzero"
         id="path57" />
    </clipPath>
    <clipPath
       id="4976a90a8b">
      <path
         d="M 75,0 H 506 V 425 H 75 Z m 0,0"
         clip-rule="nonzero"
         id="path58" />
    </clipPath>
    <clipPath
       id="40a097066a">
      <path
         d="M 87,0 H 506 V 412 H 87 Z m 0,0"
         clip-rule="nonzero"
         id="path59" />
    </clipPath>
    <clipPath
       id="8d7b0e5984">
      <path
         d="M 50,0 H 506 V 450 H 50 Z m 0,0"
         clip-rule="nonzero"
         id="path60" />
    </clipPath>
    <clipPath
       id="3edea3def4">
      <path
         d="M 0.667969,0 H 506 V 498.82031 H 0.667969 Z m 0,0"
         clip-rule="nonzero"
         id="path61" />
    </clipPath>
    <clipPath
       id="32377677cf">
      <path
         d="M 12,0 H 506 V 487 H 12 Z m 0,0"
         clip-rule="nonzero"
         id="path62" />
    </clipPath>
    <clipPath
       id="65d0fed721">
      <path
         d="M 37,0 H 506 V 462 H 37 Z m 0,0"
         clip-rule="nonzero"
         id="path63" />
    </clipPath>
    <clipPath
       id="8d08c084e7">
      <path
         d="M 100,0 H 506 V 400 H 100 Z m 0,0"
         clip-rule="nonzero"
         id="path64" />
    </clipPath>
    <clipPath
       id="24c51019c6">
      <path
         d="M 212,0 H 506 V 287 H 212 Z m 0,0"
         clip-rule="nonzero"
         id="path65" />
    </clipPath>
    <clipPath
       id="9fe553f518">
      <path
         d="M 25,0 H 506 V 475 H 25 Z m 0,0"
         clip-rule="nonzero"
         id="path66" />
    </clipPath>
    <clipPath
       id="acc556a05b">
      <path
         d="M 162,0 H 506 V 337 H 162 Z m 0,0"
         clip-rule="nonzero"
         id="path67" />
    </clipPath>
    <clipPath
       id="2dba4d9e0f">
      <path
         d="M 187,0 H 506 V 312 H 187 Z m 0,0"
         clip-rule="nonzero"
         id="path68" />
    </clipPath>
    <clipPath
       id="eac88cfa59">
      <path
         d="M 112,0 H 506 V 387 H 112 Z m 0,0"
         clip-rule="nonzero"
         id="path69" />
    </clipPath>
    <clipPath
       id="1fd3ca5858">
      <path
         d="M 200,0 H 506 V 300 H 200 Z m 0,0"
         clip-rule="nonzero"
         id="path70" />
    </clipPath>
    <clipPath
       id="a9b9aa32cc">
      <path
         d="M 175,0 H 506 V 325 H 175 Z m 0,0"
         clip-rule="nonzero"
         id="path71" />
    </clipPath>
    <clipPath
       id="6a5a65bdb8">
      <path
         d="M 125,0 H 506 V 375 H 125 Z m 0,0"
         clip-rule="nonzero"
         id="path72" />
    </clipPath>
    <clipPath
       id="4c078e43d4">
      <path
         d="M 150,0 H 506 V 350 H 150 Z m 0,0"
         clip-rule="nonzero"
         id="path73" />
    </clipPath>
    <clipPath
       id="d08fd7683b">
      <path
         d="M 137,0 H 506 V 362 H 137 Z m 0,0"
         clip-rule="nonzero"
         id="path74" />
    </clipPath>
    <clipPath
       id="b2027fd9f4">
      <rect
         x="0"
         width="506"
         y="0"
         height="500"
         id="rect74" />
    </clipPath>
  </defs>
  <rect
     x="-144"
     width="1728"
     fill="#ffffff"
     y="-81"
     height="972"
     fill-opacity="1"
     id="rect75" />
  <g
     mask="url(#5ef229432b)"
     id="g118">
    <g
       transform="translate(0,365)"
       id="g117">
      <g
         clip-path="url(#9672431a01)"
         id="g116">
        <g
           clip-path="url(#0297aebde7)"
           id="g81">
          <path
             fill="#1c6793"
             d="M 104.91797,449.02344 C 99.332031,435.8125 92.421875,423.07812 84.382812,411.18359 c -7.9375,-11.75 -17.046874,-22.79297 -27.078124,-32.82422 -10.03125,-10.03125 -21.074219,-19.14453 -32.824219,-27.08203 -11.898438,-8.03906 -24.628907,-14.94531 -37.839844,-20.53515 -13.488281,-5.70313 -27.601563,-10.08594 -41.949219,-13.01953 -14.648437,-3 -29.683594,-4.51954 -44.683594,-4.51954 v 5.40625 c 14.636719,0 29.304688,1.48047 43.597657,4.40625 14,2.86329 27.769531,7.14063 40.929687,12.70313 12.890625,5.45312 25.3125,12.19531 36.921875,20.03516 11.464844,7.74609 22.238281,16.63671 32.027344,26.42578 9.789063,9.78906 18.675781,20.5625 26.421875,32.02734 7.84375,11.60938 14.585938,24.03125 20.035156,36.92188 5.566404,13.15625 9.839844,26.92968 12.707034,40.92578 2.92578,14.29297 4.40625,28.96093 4.40625,43.59765 h 5.40234 c 0,-15 -1.51953,-30.03125 -4.51562,-44.67968 -2.9375,-14.34766 -7.31641,-28.46094 -13.02344,-41.94922"
             fill-opacity="1"
             fill-rule="nonzero"
             id="path80" />
        </g>
        <g
           clip-path="url(#4eb1f03081)"
           id="g82">
          <path
             fill="#1c6793"
             d="M 116.43359,444.15234 C 110.53125,430.19922 103.23047,416.75 94.742188,404.18359 86.359375,391.77344 76.738281,380.11328 66.144531,369.51953 55.550781,358.92578 43.886719,349.30078 31.480469,340.92187 18.910156,332.42969 5.460938,325.13281 -8.492188,319.23047 c -14.246093,-6.02735 -29.15625,-10.65235 -44.3125,-13.75781 -15.46875,-3.16407 -31.347656,-4.76954 -47.1875,-4.76954 v 5.1875 c 15.492188,0 31.019532,1.57032 46.148438,4.66797 14.820312,3.03125 29.398438,7.5586 43.332031,13.44922 13.644531,5.77344 26.796875,12.91016 39.085938,21.21094 12.136719,8.19531 23.542969,17.60937 33.902343,27.96875 10.359376,10.35937 19.769532,21.76562 27.96875,33.89844 8.300782,12.29297 15.437498,25.4414 21.210938,39.08593 5.89063,13.9336 10.41797,28.51172 13.44922,43.33594 3.09765,15.12891 4.66406,30.65625 4.66406,46.14453 h 5.19141 c 0,-15.83984 -1.60938,-31.71484 -4.77344,-47.1875 -3.10156,-15.15625 -7.72656,-30.0625 -13.75391,-44.3125"
             fill-opacity="1"
             fill-rule="nonzero"
             id="path81" />
        </g>
        <g
           clip-path="url(#7bd7e0819b)"
           id="g83">
          <path
             fill="#1c6793"
             d="M 127.94531,439.28516 C 121.73047,424.58594 114.04297,410.42187 105.10156,397.1875 96.273438,384.11719 86.140625,371.83594 74.984375,360.67969 63.828125,349.52344 51.542969,339.39062 38.476562,330.5625 25.242188,321.62109 11.078125,313.93359 -3.621094,307.71875 c -15.007812,-6.34766 -30.710937,-11.22266 -46.675781,-14.49219 -16.292969,-3.33203 -33.015625,-5.02344 -49.695313,-5.02344 v 4.97266 c 16.347657,0 32.730469,1.65625 48.699219,4.92188 15.640625,3.19921 31.03125,7.97656 45.734375,14.19921 14.402344,6.08985 28.28125,13.6211 41.253906,22.38282 12.804688,8.65234 24.839844,18.58203 35.773438,29.51562 10.933594,10.9336 20.859375,22.96875 29.51172,35.77344 8.76172,12.96875 16.29297,26.84766 22.38672,41.25 6.21875,14.70703 10.99609,30.09375 14.19531,45.73828 3.26953,15.96484 4.92578,32.35156 4.92578,48.69531 h 4.97266 c 0,-16.67968 -1.69141,-33.39843 -5.02735,-49.6914 -3.26562,-15.96485 -8.14062,-31.66797 -14.48828,-46.67578"
             fill-opacity="1"
             fill-rule="nonzero"
             id="path82" />
        </g>
        <g
           clip-path="url(#61c4b7200a)"
           id="g84">
          <path
             fill="#1c6793"
             d="M 93.40625,453.89453 C 88.132812,441.42578 81.613281,429.41016 74.023438,418.17969 66.535156,407.08984 57.933594,396.66797 48.464844,387.19922 38.996094,377.73047 28.574219,369.12891 17.484375,361.63672 6.253906,354.05078 -5.761719,347.53125 -18.230469,342.25781 c -12.726562,-5.38281 -26.046875,-9.51953 -39.585937,-12.28906 -13.824219,-2.82813 -28.015625,-4.26172 -42.175782,-4.26172 v 5.61719 c 13.78125,0 27.59375,1.39453 41.050782,4.14844 13.175781,2.69921 26.136718,6.71875 38.523437,11.96093 12.132813,5.13282 23.824219,11.47657 34.753907,18.85938 10.792968,7.29297 20.941406,15.66406 30.15625,24.8789 9.214843,9.21485 17.585937,19.35938 24.875,30.15235 7.382812,10.92969 13.730468,22.625 18.863281,34.75781 5.238281,12.38672 9.261719,25.34766 11.957031,38.52344 2.75391,13.45703 4.14844,27.26562 4.14844,41.04687 h 5.62109 c 0,-14.15625 -1.43359,-28.34765 -4.26172,-42.17187 -2.77343,-13.54297 -6.906248,-26.85938 -12.28906,-39.58594"
             fill-opacity="1"
             fill-rule="nonzero"
             id="path83" />
        </g>
        <g
           clip-path="url(#38a5a5e48c)"
           id="g85">
          <path
             fill="#1c6793"
             d="m 139.45703,434.41406 c -6.53125,-15.4414 -14.60547,-30.32031 -24,-44.22656 -9.27344,-13.72656 -19.914061,-26.62891 -31.632811,-38.34766 -11.722657,-11.71875 -24.625,-22.36328 -38.351563,-31.63672 -13.902344,-9.39062 -28.785156,-17.46875 -44.226562,-24 -15.765625,-6.66796 -32.265625,-11.78906 -49.039063,-15.22265 -17.117187,-3.5 -34.679687,-5.27735 -52.199219,-5.27735 v 4.75391 c 17.203126,0 34.441407,1.74609 51.246094,5.18359 16.46875,3.3711 32.664063,8.39844 48.140625,14.94532 15.160157,6.41015 29.765625,14.33593 43.417969,23.55859 13.476562,9.10156 26.140625,19.55469 37.648438,31.05859 11.503906,11.50391 21.953122,24.17188 31.058592,37.64844 9.21875,13.64844 17.14844,28.25781 23.55859,43.41406 6.54688,15.47657 11.57422,31.67579 14.94532,48.14063 3.4375,16.80469 5.17968,34.04687 5.17968,51.24609 h 4.75782 c 0,-17.51953 -1.77735,-35.08203 -5.28125,-52.19922 C 151.25,466.67969 146.125,450.17969 139.45703,434.41406"
             fill-opacity="1"
             fill-rule="nonzero"
             id="path84" />
        </g>
        <g
           clip-path="url(#dccae1eed9)"
           id="g86">
          <path
             fill="#1c6793"
             d="M 162.48437,424.67578 C 155.32422,407.74609 146.47266,391.4375 136.17578,376.19141 126.01172,361.14844 114.34375,347.00781 101.5,334.16016 88.65625,321.32031 74.515625,309.65234 59.46875,299.48828 44.226562,289.19141 27.914062,280.33984 10.988281,273.17969 -6.300781,265.86719 -24.390625,260.25 -42.78125,256.48828 c -18.761719,-3.83984 -38.011719,-5.78516 -57.210938,-5.78516 v 4.32422 c 18.910157,0 37.867188,1.91407 56.34375,5.69532 18.113282,3.70703 35.929688,9.23437 52.953126,16.4375 16.667968,7.05078 32.734374,15.76953 47.746093,25.91015 14.816407,10.01172 28.742188,21.5 41.390625,34.14844 12.652344,12.64844 24.140624,26.57812 34.152344,41.39453 10.14062,15.01172 18.85547,31.07422 25.90625,47.74609 7.20312,17.02344 12.73437,34.83985 16.4375,52.94922 3.78516,18.47657 5.69922,37.4375 5.69922,56.34375 h 4.32422 c 0,-19.19922 -1.94532,-38.44922 -5.78907,-57.21093 -3.76171,-18.39063 -9.3789,-36.48047 -16.6875,-53.76563"
             fill-opacity="1"
             fill-rule="nonzero"
             id="path85" />
        </g>
        <g
           clip-path="url(#a60da8a70d)"
           id="g87">
          <path
             fill="#1c6793"
             d="m 173.99609,419.80469 c -7.47265,-17.66797 -16.71093,-34.69922 -27.46093,-50.60938 -10.61329,-15.70703 -22.78907,-30.46484 -36.19532,-43.87109 -13.406246,-13.40625 -28.167965,-25.58594 -43.87109,-36.19531 -15.914062,-10.75 -32.941406,-19.98829 -50.613281,-27.46485 -18.046875,-7.63281 -36.929688,-13.49219 -56.128907,-17.42187 -19.585937,-4.00782 -39.675781,-6.04297 -59.71875,-6.04297 v 4.10937 c 19.765626,0 39.582032,2.00391 58.894532,5.95703 18.933594,3.875 37.558594,9.65625 55.355468,17.1836 17.425782,7.37109 34.21875,16.48437 49.910157,27.08203 15.488281,10.46484 30.042969,22.47266 43.265621,35.69531 13.22266,13.22266 25.23047,27.77735 35.69532,43.26563 10.60156,15.69531 19.71484,32.48828 27.08593,49.91406 7.52735,17.79687 13.3086,36.41797 17.1836,55.35156 3.95312,19.31641 5.95703,39.13281 5.95703,58.89453 h 4.10547 c 0,-20.03906 -2.03125,-40.1289 -6.03907,-59.71484 -3.92968,-19.19922 -9.78906,-38.08594 -17.42578,-56.13281"
             fill-opacity="1"
             fill-rule="nonzero"
             id="path86" />
        </g>
        <g
           clip-path="url(#9c5a7b0c8c)"
           id="g88">
          <path
             fill="#1c6793"
             d="m 150.97266,429.54687 c -6.84766,-16.18359 -15.3086,-31.78125 -25.15625,-46.35546 -9.71875,-14.38672 -20.875,-27.91016 -33.156254,-40.1875 -12.28125,-12.28516 -25.804687,-23.4375 -40.1875,-33.16016 C 37.898438,300 22.300781,291.53516 6.117188,284.69141 c -16.527344,-6.99219 -33.820313,-12.35938 -51.402344,-15.95704 -17.941406,-3.66796 -36.347656,-5.53125 -54.707032,-5.53125 v 4.53907 c 18.058594,0 36.15625,1.83203 53.796876,5.4414 17.289062,3.53516 34.292968,8.81641 50.542968,15.6875 15.917969,6.73438 31.253906,15.05469 45.582032,24.73828 14.148437,9.55469 27.445312,20.52344 39.519531,32.60157 12.078121,12.07812 23.046871,25.375 32.605471,39.51953 9.68359,14.33203 18.0039,29.66797 24.73437,45.58203 6.875,16.25 12.15235,33.25781 15.69141,50.54687 3.60937,17.64063 5.4414,35.74219 5.4414,53.79297 h 4.53907 c 0,-18.35937 -1.86328,-36.76562 -5.53516,-54.70312 -3.59375,-17.58203 -8.96484,-34.87891 -15.95312,-51.40235"
             fill-opacity="1"
             fill-rule="nonzero"
             id="path87" />
        </g>
        <g
           clip-path="url(#d9783b4119)"
           id="g89">
          <path
             fill="#1c6793"
             d="M 81.890625,458.76172 C 76.933594,447.03906 70.800781,435.73828 63.667969,425.17969 56.621094,414.74609 48.53125,404.94141 39.625,396.03516 30.71875,387.12891 20.914062,379.04297 10.484375,371.99609 -0.0742188,364.85937 -11.375,358.73047 -23.101562,353.76953 c -11.964844,-5.0625 -24.488282,-8.94922 -37.21875,-11.55469 -13.003907,-2.66015 -26.351563,-4.00781 -39.671876,-4.00781 v 5.83594 c 12.929688,0 25.882813,1.30859 38.5,3.89062 12.355469,2.52735 24.507813,6.30078 36.117188,11.21094 11.378906,4.8125 22.34375,10.76172 32.59375,17.6875 10.121094,6.83984 19.636719,14.6875 28.28125,23.33203 8.640625,8.64453 16.492188,18.16016 23.332031,28.28125 6.921875,10.2461 12.875,21.21485 17.6875,32.58985 4.910157,11.61328 8.683594,23.76562 11.210938,36.11718 2.582031,12.6211 3.890625,25.57422 3.890625,38.5 h 5.835937 c 0,-13.3164 -1.347656,-26.66406 -4.007812,-39.66797 -2.609375,-12.73046 -6.496094,-25.2539 -11.558594,-37.22265"
             fill-opacity="1"
             fill-rule="nonzero"
             id="path88" />
        </g>
        <g
           clip-path="url(#47cbc82d58)"
           id="g90">
          <path
             fill="#1c6793"
             d="M 70.378906,463.62891 C 65.734375,452.64844 59.988281,442.0625 53.308594,432.17187 46.707031,422.40234 39.128906,413.21875 30.785156,404.875 22.445312,396.53516 13.261719,388.95703 3.492188,382.35547 c -9.894532,-6.6836 -20.476563,-12.42578 -31.460938,-17.07031 -11.207031,-4.74219 -22.9375,-8.38282 -34.863281,-10.82422 -12.179688,-2.49219 -24.679688,-3.75391 -37.160157,-3.75391 v 6.05078 c 12.074219,0 24.167969,1.22266 35.945313,3.63281 11.535156,2.35938 22.878906,5.88282 33.722656,10.46485 10.621094,4.49609 20.859375,10.05078 30.425781,16.51562 9.453126,6.38282 18.335938,13.71485 26.40625,21.78516 8.070313,8.07031 15.398438,16.95312 21.785157,26.40234 6.460937,9.57032 12.019531,19.80469 16.511719,30.42969 4.585937,10.83984 8.109374,22.1875 10.46875,33.71875 2.410156,11.78125 3.632812,23.875 3.632812,35.94531 h 6.050781 c 0,-12.47656 -1.261719,-24.98047 -3.753906,-37.15625 -2.441406,-11.92578 -6.082031,-23.65625 -10.824219,-34.86718"
             fill-opacity="1"
             fill-rule="nonzero"
             id="path89" />
        </g>
        <g
           clip-path="url(#81c94e8ea1)"
           id="g91">
          <path
             fill="#1c6793"
             d="m 1.296875,492.83203 c -2.761719,-6.52344 -6.179687,-12.81641 -10.15625,-18.69922 -3.921875,-5.80469 -8.429687,-11.26172 -13.390625,-16.22265 -4.957031,-4.96094 -10.417969,-9.46485 -16.222656,-13.39063 -5.882813,-3.97656 -12.171875,-7.39062 -18.699219,-10.15234 -6.664063,-2.82032 -13.640625,-4.98438 -20.730469,-6.4336 -7.230468,-1.47656 -14.660156,-2.22656 -22.089844,-2.22656 v 7.34766 c 6.9375,0 13.871094,0.69922 20.621094,2.07812 6.613282,1.35156 13.121094,3.3711 19.335938,6 6.089844,2.57813 11.957031,5.76563 17.449218,9.47656 5.417969,3.66407 10.511719,7.86719 15.140626,12.4961 4.628906,4.63281 8.835937,9.72656 12.496093,15.14453 3.714844,5.48828 6.902344,11.35937 9.476563,17.44922 2.632812,6.21484 4.652344,12.72265 6,19.33594 1.378906,6.74609 2.078125,13.68359 2.078125,20.61718 h 7.347656 c 0,-7.42578 -0.746094,-14.85937 -2.222656,-22.08593 C 6.28125,506.47266 4.117188,499.5 1.296875,492.83203"
             fill-opacity="1"
             fill-rule="nonzero"
             id="path90" />
        </g>
        <g
           clip-path="url(#95ac65adcc)"
           id="g92">
          <path
             fill="#1c6793"
             d="M 12.808594,487.96484 C 9.734375,480.69922 5.929688,473.69141 1.5,467.14062 c -4.367188,-6.46484 -9.386719,-12.54687 -14.910156,-18.07031 -5.523438,-5.52344 -11.601563,-10.53906 -18.066406,-14.91015 -6.550782,-4.42969 -13.558594,-8.23047 -20.828126,-11.3086 -7.421874,-3.14062 -15.1875,-5.55078 -23.085937,-7.16406 -8.054687,-1.64453 -16.332031,-2.48047 -24.601563,-2.48047 v 7.13281 c 7.792969,0 15.589844,0.78516 23.171876,2.33594 7.4375,1.51953 14.75,3.78906 21.738281,6.74609 6.84375,2.89454 13.441406,6.47657 19.609375,10.64844 6.089844,4.11719 11.816406,8.83985 17.019531,14.04297 5.203125,5.20313 9.929687,10.92969 14.046875,17.01953 4.167969,6.17188 7.75,12.76953 10.648438,19.61328 2.957031,6.98828 5.226562,14.30078 6.742187,21.73438 1.550781,7.58594 2.335937,15.38281 2.335937,23.17187 h 7.132813 c 0,-8.26953 -0.832031,-16.54687 -2.480469,-24.59765 -1.613281,-7.89844 -4.023437,-15.66407 -7.164062,-23.08985"
             fill-opacity="1"
             fill-rule="nonzero"
             id="path91" />
        </g>
        <g
           clip-path="url(#1296274102)"
           id="g93">
          <path
             fill="#1c6793"
             d="m 24.324219,483.09766 c -3.390625,-8.01172 -7.582031,-15.73438 -12.460938,-22.95313 -4.816406,-7.125 -10.34375,-13.82422 -16.433593,-19.91406 -6.085938,-6.08594 -12.789063,-11.61328 -19.914063,-16.4336 -7.21875,-4.875 -14.941406,-9.07031 -22.953125,-12.45703 -8.179688,-3.46093 -16.738281,-6.11718 -25.441406,-7.89843 -8.878906,-1.8125 -18,-2.73438 -27.113282,-2.73438 v 6.91797 c 8.648438,0 17.304688,0.87109 25.726563,2.59375 8.253906,1.6875 16.375,4.20703 24.132813,7.48828 7.601562,3.21875 14.925781,7.19531 21.777343,11.82422 6.761719,4.57031 13.117188,9.81641 18.894531,15.58984 5.777344,5.77735 11.023438,12.13672 15.59375,18.89844 4.628907,6.84766 8.605469,14.17578 11.820313,21.77344 3.285156,7.76172 5.804687,15.8789 7.492187,24.13281 1.71875,8.42578 2.59375,17.08203 2.59375,25.72656 h 6.914063 c 0,-9.10937 -0.917969,-18.23047 -2.734375,-27.10937 -1.777344,-8.70313 -4.433594,-17.26563 -7.894531,-25.44531"
             fill-opacity="1"
             fill-rule="nonzero"
             id="path92" />
        </g>
        <g
           clip-path="url(#0879956503)"
           id="g94">
          <path
             fill="#1c6793"
             d="M 185.51172,414.9375 C 177.72266,396.52344 168.09375,378.77734 156.89062,362.19531 145.83594,345.83203 133.14844,330.45312 119.17969,316.48437 105.21094,302.51562 89.828125,289.82812 73.464844,278.76953 56.886719,267.57031 39.140625,257.94141 20.726562,250.15234 c -18.808593,-7.95312 -38.488281,-14.0625 -58.496093,-18.15625 -20.40625,-4.17968 -41.339844,-6.29687 -62.222657,-6.29687 v 3.89062 c 20.621094,0 41.292969,2.08985 61.445313,6.21485 19.753906,4.04297 39.1875,10.07812 57.757813,17.92968 18.183593,7.69141 35.707031,17.19922 52.078124,28.26172 16.15625,10.91407 31.343748,23.44532 45.140628,37.23828 13.79297,13.79297 26.32031,28.98047 37.23828,45.14063 11.05859,16.37109 20.5664,33.89453 28.25781,52.07812 7.85547,18.57032 13.88672,38 17.92969,57.75782 4.125,20.15234 6.21484,40.82422 6.21484,61.4414 h 3.89063 c 0,-20.8789 -2.11719,-41.8125 -6.29297,-62.22265 -4.09375,-20.00782 -10.20313,-39.6875 -18.15625,-58.49219"
             fill-opacity="1"
             fill-rule="nonzero"
             id="path93" />
        </g>
        <g
           clip-path="url(#9db1ad76ca)"
           id="g95">
          <path
             fill="#1c6793"
             d="m 35.835938,478.23047 c -3.703126,-8.75391 -8.28125,-17.19141 -13.609376,-25.07813 -5.265624,-7.78906 -11.304687,-15.10937 -17.957031,-21.75781 -6.652343,-6.65234 -13.972656,-12.69531 -21.761719,-17.95703 -7.886718,-5.32813 -16.324218,-9.91016 -25.078124,-13.61328 -8.9375,-3.78125 -18.289063,-6.6836 -27.796876,-8.62891 -9.703124,-1.98047 -19.671874,-2.98828 -29.625,-2.98828 v 6.69922 c 9.503907,0 19.019532,0.96094 28.28125,2.85547 9.078126,1.85547 18.003907,4.625 26.53125,8.23437 8.355469,3.53516 16.410157,7.90625 23.9375,12.99219 7.433594,5.02344 14.421876,10.79297 20.773438,17.14453 6.351562,6.34766 12.117188,13.33594 17.140625,20.77344 5.085937,7.52734 9.460937,15.58203 12.996094,23.9375 3.605469,8.52734 6.378906,17.45312 8.234375,26.52734 1.894531,9.26563 2.851562,18.78125 2.851562,28.28125 h 6.703125 c 0,-9.95312 -1.007812,-19.91797 -2.992187,-29.62109 -1.945313,-9.51172 -4.847656,-18.86328 -8.628906,-27.80078"
             fill-opacity="1"
             fill-rule="nonzero"
             id="path94" />
        </g>
        <g
           clip-path="url(#aa4f1e4b47)"
           id="g96">
          <path
             fill="#1c6793"
             d="m 58.863281,468.49609 c -4.328125,-10.23828 -9.6875,-20.10547 -15.917969,-29.33203 -6.15625,-9.10937 -13.21875,-17.67187 -20.996093,-25.44922 -7.78125,-7.77734 -16.34375,-14.84375 -25.453125,-20.99609 -9.222656,-6.23438 -19.089844,-11.58984 -29.332032,-15.92188 -10.449218,-4.42187 -21.390624,-7.8164 -32.507812,-10.08984 -11.355469,-2.32422 -23.011719,-3.5 -34.648438,-3.5 v 6.26953 c 11.214844,0 22.449219,1.13281 33.390626,3.3711 10.714843,2.1914 21.253906,5.46484 31.324218,9.72265 9.867188,4.17578 19.378906,9.33594 28.265625,15.33985 8.777344,5.93359 17.03125,12.73828 24.527344,20.23828 7.496094,7.49609 14.304687,15.74609 20.234375,24.52734 6.007812,8.88672 11.167969,18.39844 15.339844,28.26172 4.261718,10.07422 7.535156,20.61328 9.726562,31.32812 2.238282,10.9375 3.371094,22.17188 3.371094,33.38672 h 6.269531 c 0,-11.63672 -1.179687,-23.29297 -3.5,-34.64453 -2.277343,-11.12109 -5.671875,-22.05859 -10.09375,-32.51172"
             fill-opacity="1"
             fill-rule="nonzero"
             id="path95" />
        </g>
        <g
           clip-path="url(#f4959ba862)"
           id="g97">
          <path
             fill="#1c6793"
             d="M 47.351562,473.36328 C 43.335938,463.86719 38.367188,454.71484 32.585938,446.16016 26.875,437.71094 20.324219,429.76953 13.109375,422.55469 c -7.214844,-7.21485 -15.15625,-13.76953 -23.605469,-19.47657 -8.554687,-5.78125 -17.710937,-10.75 -27.207031,-14.76562 -9.691406,-4.10156 -19.839844,-7.25 -30.152344,-9.36328 -10.527343,-2.15235 -21.339843,-3.24219 -32.136719,-3.24219 v 6.48438 c 10.359376,0 20.734376,1.04687 30.835938,3.11328 9.894531,2.02343 19.628906,5.04297 28.929688,8.97656 9.109374,3.85547 17.890624,8.62109 26.101562,14.16797 8.105469,5.48047 15.726562,11.76562 22.648438,18.6914 6.921874,6.92188 13.210937,14.54297 18.6875,22.64844 5.546874,8.20703 10.316406,16.99219 14.167968,26.10156 3.933594,9.30079 6.957032,19.03125 8.980469,28.92579 2.066406,10.10546 3.113281,20.47656 3.113281,30.83593 h 6.484375 c 0,-10.79297 -1.09375,-21.60547 -3.246093,-32.13281 -2.109376,-10.31641 -5.257813,-20.46094 -9.359376,-30.15625"
             fill-opacity="1"
             fill-rule="nonzero"
             id="path96" />
        </g>
        <g
           clip-path="url(#8714daa6ad)"
           id="g98">
          <path
             fill="#1c6793"
             d="m 335.23047,351.60937 c -11.87891,-28.08203 -26.5586,-55.13671 -43.63672,-80.41796 -16.84766,-24.9336 -36.17969,-48.3711 -57.46484,-69.65625 C 212.84375,180.25 189.40625,160.91406 164.46875,144.07031 139.19141,126.99219 112.13281,112.30859 84.050781,100.43359 55.363281,88.296875 25.339844,78.976562 -5.179688,72.734375 c -31.109374,-6.371094 -63.007812,-9.59375 -94.8125,-9.59375 v 1.195313 c 31.722657,0 63.542969,3.21875 94.574219,9.570312 30.441407,6.226562 60.386719,15.523438 89.003907,27.62891 28.011722,11.84765 55.000002,26.49218 80.214842,43.52734 24.87109,16.80469 48.25,36.08594 69.48047,57.31641 21.23437,21.23437 40.51562,44.60937 57.32031,69.48437 17.03516,25.21484 31.6836,52.20313 43.52735,80.21484 12.10546,28.61719 21.39843,58.5625 27.6289,89 6.35156,31.03125 9.57031,62.85157 9.57031,94.57422 h 1.19532 c 0,-31.80468 -3.23047,-63.70312 -9.59375,-94.8125 -6.2461,-30.51953 -15.56641,-60.53906 -27.69922,-89.23047"
             fill-opacity="1"
             fill-rule="nonzero"
             id="path97" />
        </g>
        <g
           clip-path="url(#c30c4fb4ba)"
           id="g99">
          <path
             fill="#1c6793"
             d="M 323.70703,356.48437 C 312.14062,329.14844 297.85156,302.80859 281.22266,278.19922 264.82422,253.92187 246,231.10937 225.27734,210.38672 204.55859,189.66406 181.74219,170.83984 157.46484,154.4375 132.85547,137.8125 106.51563,123.52344 79.175781,111.95703 51.25,100.14453 22.023438,91.074219 -7.6875,84.992188 -37.972656,78.792969 -69.027344,75.652344 -99.992188,75.652344 v 1.382812 c 30.871094,0 61.832032,3.132813 92.027344,9.3125 29.621094,6.0625 58.757813,15.109374 86.601563,26.882814 27.257811,11.53125 53.515621,25.77734 78.050781,42.35156 24.20703,16.35547 46.95312,35.12109 67.61328,55.78125 20.65625,20.66016 39.42578,43.40625 55.77734,67.60938 16.57422,24.53515 30.82422,50.79687 42.35157,78.05078 11.78125,27.84375 20.82031,56.98437 26.88281,86.60156 6.17969,30.19531 9.3125,61.16016 9.3125,92.02734 h 1.38281 c 0,-30.96093 -3.14062,-62.01953 -9.33984,-92.30468 -6.07813,-29.70704 -15.15235,-58.9336 -26.96094,-86.86329"
             fill-opacity="1"
             fill-rule="nonzero"
             id="path98" />
        </g>
        <g
           clip-path="url(#37dd3be5f1)"
           id="g100">
          <path
             fill="#1c6793"
             d="M 312.17969,361.35937 C 300.93359,334.76562 287.02734,309.14453 270.85547,285.20312 254.90234,261.58594 236.58984,239.39453 216.42969,219.23437 196.26953,199.07422 174.07422,180.76172 150.45703,164.80859 126.51953,148.63672 100.89453,134.73047 74.300781,123.48438 47.136719,111.99219 18.707031,103.16797 -10.195312,97.253906 -39.65625,91.226562 -69.871094,88.167969 -99.992188,88.167969 v 1.570312 c 30.015626,0 60.121094,3.046875 89.480469,9.054688 28.800781,5.894531 57.128907,14.687501 84.203125,26.136721 26.500004,11.21093 52.031254,25.0625 75.886714,41.17968 23.53516,15.89844 45.65235,34.14844 65.74219,54.23438 20.08594,20.08984 38.33594,42.20703 54.23438,65.73828 16.11718,23.85547 29.96875,49.39063 41.17968,75.89063 11.44922,27.07421 20.2461,55.40234 26.13672,84.19921 6.00782,29.35938 9.05469,59.46485 9.05469,89.48047 h 1.57031 c 0,-30.12109 -3.05859,-60.33203 -9.08984,-89.79297 -5.91016,-28.90234 -14.73438,-57.32812 -26.22656,-84.5"
             fill-opacity="1"
             fill-rule="nonzero"
             id="path99" />
        </g>
        <g
           clip-path="url(#64514d7de9)"
           id="g101">
          <path
             fill="#1c6793"
             d="m 346.75781,346.73437 c -12.1914,-28.82421 -27.26172,-56.59765 -44.79297,-82.54687 -17.29297,-25.59766 -37.14062,-49.65234 -58.98828,-71.5 -21.84765,-21.85156 -45.90234,-41.69531 -71.5,-58.99219 C 145.52734,116.16797 117.75391,101.09766 88.929688,88.90625 59.476562,76.449219 28.660156,66.882812 -2.667969,60.472656 -34.601562,53.933594 -67.347656,50.625 -99.992188,50.625 v 1.007812 c 32.578126,0 65.253907,3.304688 97.121094,9.828126 31.261719,6.398437 62.015625,15.941406 91.40625,28.371093 C 117.30078,102 145.01562,117.03906 170.91016,134.53516 c 25.54296,17.25781 49.55078,37.05859 71.35546,58.86718 21.80079,21.79688 41.60938,45.80469 58.86329,71.34766 17.49218,25.89453 32.53125,53.61328 44.69921,82.37891 12.42969,29.38671 21.97657,60.14062 28.375,91.40625 6.52344,31.86328 9.82813,64.54296 9.82813,97.11718 h 1.00781 c 0,-32.64453 -3.3125,-65.38672 -9.84765,-97.32031 -6.41016,-31.32812 -15.97657,-62.14844 -28.4336,-91.59766"
             fill-opacity="1"
             fill-rule="nonzero"
             id="path100" />
        </g>
        <g
           clip-path="url(#7c9f4fecb2)"
           id="g102">
          <path
             fill="#1c6793"
             d="M 392.86328,327.23437 C 379.41016,295.42969 362.78125,264.78906 343.44531,236.16406 324.36719,207.92578 302.47266,181.39062 278.375,157.28906 254.27344,133.1875 227.73437,111.29688 199.5,92.21875 170.87109,72.878906 140.23047,56.253906 108.42578,42.800781 75.933594,29.054688 41.929688,18.5 7.367188,11.425781 -27.863281,4.21875 -63.984375,0.5625 -99.992188,0.5625 V 0.824219 C -64,0.824219 -27.898438,4.476562 7.3125,11.683594 41.863281,18.75 75.847656,29.300781 108.32813,43.039062 c 31.78515,13.445313 62.41406,30.066407 91.02343,49.394532 28.22656,19.066406 54.75,40.949216 78.83985,65.039066 24.08984,24.08984 45.97265,50.61328 65.03906,78.83593 19.32812,28.61328 35.94531,59.23828 49.39062,91.02735 13.73828,32.47656 24.28907,66.46484 31.35938,101.01172 7.20312,35.21093 10.85937,71.3164 10.85937,107.30468 h 0.25782 c 0,-36.00781 -3.65625,-72.1289 -10.86719,-107.35547 -7.07031,-34.5664 -17.625,-68.57031 -31.36719,-101.0625"
             fill-opacity="1"
             fill-rule="nonzero"
             id="path101" />
        </g>
        <g
           clip-path="url(#968df7235c)"
           id="g103">
          <path
             fill="#1c6793"
             d="M 381.33594,332.10937 C 368.19922,301.05078 351.96094,271.125 333.07422,243.16797 314.44141,215.58984 293.0625,189.67578 269.52734,166.13672 245.98828,142.60156 220.07031,121.21875 192.49219,102.58594 164.53906,83.699219 134.61328,67.464844 103.55078,54.328125 71.820312,40.902344 38.613281,30.597656 4.855469,23.6875 -29.550781,16.648438 -64.824219,13.078125 -99.992188,13.078125 v 0.445313 c 35.136719,0 70.382813,3.570312 104.757813,10.601562 33.730469,6.902344 66.90625,17.203125 98.613285,30.613281 31.03515,13.125 60.93359,29.351563 88.86328,48.218749 27.55468,18.61719 53.44922,39.98047 76.96875,63.5 23.51562,23.51563 44.8789,49.40625 63.49218,76.96094 18.8711,27.93359 35.09766,57.83203 48.22266,88.86328 13.41016,31.70703 23.70703,64.88672 30.60938,98.61328 7.03515,34.375 10.60156,69.62109 10.60156,104.75781 h 0.44531 c 0,-35.16797 -3.57031,-70.4414 -10.60937,-104.84765 -6.90625,-33.75782 -17.21485,-66.96094 -30.63672,-98.69532"
             fill-opacity="1"
             fill-rule="nonzero"
             id="path102" />
        </g>
        <g
           clip-path="url(#f04baf7906)"
           id="g104">
          <path
             fill="#1c6793"
             d="M 358.28516,341.85937 C 345.77734,312.28906 330.31641,283.79687 312.33203,257.17969 294.59375,230.92578 274.23828,206.25 251.82812,183.83594 229.41406,161.42187 204.73828,141.06641 178.48047,123.32813 151.86328,105.34375 123.375,89.886719 93.800781,77.378906 63.589844,64.601562 31.976562,54.789062 -0.160156,48.210938 -32.917969,41.507812 -66.507812,38.109375 -99.992188,38.109375 v 0.820313 c 33.429688,0 66.964844,3.394531 99.667969,10.085937 32.082031,6.566406 63.644531,16.363281 93.804688,29.121094 29.523441,12.484375 57.968751,27.917971 84.539061,45.871091 26.21484,17.71094 50.85156,38.03516 73.22656,60.41016 22.375,22.375 42.69922,47.01172 60.40625,73.22265 17.95313,26.57422 33.38672,55.01563 45.875,84.53907 12.75782,30.16015 22.55469,61.72265 29.1211,93.80859 6.6914,32.70313 10.08593,66.23438 10.08593,99.66406 h 0.82032 c 0,-33.48437 -3.40235,-67.07422 -10.10547,-99.82812 C 380.875,403.6875 371.0625,372.07031 358.28516,341.85937"
             fill-opacity="1"
             fill-rule="nonzero"
             id="path103" />
        </g>
        <g
           clip-path="url(#9123029de6)"
           id="g105">
          <path
             fill="#1c6793"
             d="m 300.65234,366.23437 c -10.93359,-25.84765 -24.44531,-50.7539 -40.16797,-74.02343 -15.50781,-22.95703 -33.30859,-44.53125 -52.90625,-64.12891 -19.59375,-19.59375 -41.17187,-37.39453 -64.125,-52.90234 -23.26953,-15.72266 -48.175776,-29.23438 -74.027339,-40.16797 -26.40625,-11.17188 -54.039062,-19.74609 -82.132812,-25.49609 -28.636719,-5.85938 -58.003907,-8.83204 -87.285157,-8.83204 v 1.75782 c 29.164063,0 58.414063,2.96093 86.933594,8.79687 27.980469,5.72266 55.5,14.26563 81.800782,25.39453 25.746093,10.88672 50.550782,24.34375 73.726562,40.00391 22.86328,15.44531 44.35156,33.17187 63.86719,52.6875 19.51562,19.51953 37.24218,41.00781 52.6914,63.87109 15.65625,23.17578 29.11719,47.98047 40.00391,73.72656 11.125,26.30079 19.67187,53.82032 25.39453,81.79688 5.83594,28.52344 8.79688,57.77344 8.79688,86.93359 h 1.75781 c 0,-29.27734 -2.97266,-58.64453 -8.83203,-87.28515 -5.7461,-28.08985 -14.32813,-55.72266 -25.4961,-82.13282"
             fill-opacity="1"
             fill-rule="nonzero"
             id="path104" />
        </g>
        <g
           clip-path="url(#327e21f895)"
           id="g106">
          <path
             fill="#1c6793"
             d="M 197.02344,410.06641 C 188.92187,390.91016 178.90234,372.44922 167.25,355.19922 155.74609,338.17578 142.55078,322.17578 128.01562,307.64453 113.48828,293.11328 97.484375,279.91406 80.464844,268.41406 63.214844,256.75781 44.753906,246.74219 25.597656,238.64062 6.03125,230.36328 -14.445312,224.00781 -35.261719,219.75 c -21.230469,-4.34766 -43.007812,-6.55078 -64.730469,-6.55078 v 3.67578 c 21.472657,0 43.003907,2.17578 63.992188,6.47266 20.582031,4.21093 40.820312,10.49218 60.164062,18.67578 18.9375,8.01172 37.1875,17.91406 54.242188,29.43359 16.828125,11.37109 32.64844,24.42188 47.01172,38.78516 14.36719,14.36718 27.41406,30.18359 38.78515,47.01562 11.52344,17.05078 21.42579,35.30078 29.4375,54.23828 8.17969,19.34375 14.46485,39.58594 18.67579,60.16407 4.29296,20.99218 6.47265,42.51953 6.47265,63.99218 h 3.67188 c 0,-21.71875 -2.19922,-43.49609 -6.54688,-64.72656 -4.25781,-20.82031 -10.61719,-41.29297 -18.89062,-60.85937"
             fill-opacity="1"
             fill-rule="nonzero"
             id="path105" />
        </g>
        <g
           clip-path="url(#495fb47f3d)"
           id="g107">
          <path
             fill="#1c6793"
             d="m 369.80859,336.98437 c -12.82031,-30.3164 -28.66797,-59.52343 -47.10156,-86.80859 -18.1875,-26.91797 -39.05859,-52.21484 -62.02734,-75.1875 C 237.70312,152.01172 212.40625,131.14453 185.48828,112.95703 158.19922,94.523438 128.99219,78.671875 98.675781,65.851562 67.707031,52.75 35.296875,42.691406 2.347656,35.949219 -31.234375,29.074219 -65.664062,25.59375 -99.992188,25.59375 v 0.632812 c 34.285157,0 68.671876,3.480469 102.214844,10.34375 32.90625,6.734376 65.277344,16.78125 96.207032,29.863282 30.277342,12.808594 59.449222,28.636718 86.703122,47.050786 26.88281,18.16015 52.15235,39.0039 75.09375,61.94921 22.94531,22.94922 43.78906,48.21485 61.95313,75.09766 18.41015,27.25 34.23828,56.42187 47.04687,86.69922 13.08203,30.93359 23.13281,63.30469 29.86719,96.21094 6.85937,33.53906 10.33984,67.92968 10.33984,102.21093 h 0.63672 c 0,-34.32422 -3.48828,-68.75781 -10.35937,-102.33984 -6.73828,-32.94531 -16.80078,-65.35547 -29.90235,-96.32813"
             fill-opacity="1"
             fill-rule="nonzero"
             id="path106" />
        </g>
        <g
           clip-path="url(#62553f7bda)"
           id="g108">
          <path
             fill="#1c6793"
             d="M 243.07422,390.58984 C 233.71484,368.45703 222.14453,347.13281 208.68359,327.20703 195.39844,307.54687 180.15625,289.07031 163.375,272.28906 146.59375,255.50391 128.11328,240.26172 108.45703,226.98047 88.527344,213.51953 67.207031,201.94922 45.074219,192.58984 22.46875,183.02344 -1.1875,175.67969 -25.238281,170.76172 c -24.523438,-5.01953 -49.671875,-7.5625 -74.753907,-7.5625 v 2.80859 c 24.894532,0 49.855469,2.52735 74.191407,7.50391 23.867187,4.88672 47.34375,12.17187 69.78125,21.66406 21.964843,9.28906 43.125,20.77344 62.902341,34.13281 19.51172,13.1836 37.85156,28.3125 54.50391,44.96485 16.65625,16.65625 31.78515,34.99609 44.96484,54.50781 13.35938,19.77344 24.84375,40.9375 34.13672,62.90234 9.48828,22.4375 16.77734,45.91407 21.66016,69.78125 4.98047,24.33594 7.5039,49.29688 7.5039,74.1875 h 2.8125 c 0,-25.07812 -2.54687,-50.23047 -7.5625,-74.7539 -4.92187,-24.04688 -12.26562,-47.70313 -21.82812,-70.3086"
             fill-opacity="1"
             fill-rule="nonzero"
             id="path107" />
        </g>
        <g
           clip-path="url(#7a653d6ac0)"
           id="g109">
          <path
             fill="#1c6793"
             d="m 220.04687,400.32812 c -8.73046,-20.64453 -19.52343,-40.53515 -32.08203,-59.125 -12.39062,-18.33984 -26.61328,-35.58203 -42.26953,-51.23828 -15.65625,-15.65234 -32.89453,-29.875 -51.234372,-42.26562 -18.589844,-12.5586 -38.480469,-23.35156 -59.125,-32.08594 C 14.25,206.69531 -7.816406,199.84375 -30.25,195.25391 c -22.875,-4.67969 -46.339844,-7.05469 -69.742188,-7.05469 v 3.24219 c 23.183594,0 46.429688,2.35156 69.09375,6.99218 22.222657,4.54688 44.082032,11.32813 64.96875,20.16407 20.453126,8.65234 40.160157,19.34765 58.574219,31.78515 18.167969,12.27735 35.246099,26.36719 50.757809,41.875 15.51172,15.51172 29.60157,32.58985 41.875,50.76172 12.44141,18.41406 23.13672,38.12109 31.78516,58.57031 8.83594,20.89063 15.62109,42.75 20.16797,64.97266 4.63672,22.66406 6.98828,45.91016 6.98828,69.08984 h 3.24219 c 0,-23.39843 -2.375,-46.86328 -7.05469,-69.73828 -4.58984,-22.43359 -11.44141,-44.5 -20.35938,-65.58594"
             fill-opacity="1"
             fill-rule="nonzero"
             id="path108" />
        </g>
        <g
           clip-path="url(#0515598148)"
           id="g110">
          <path
             fill="#1c6793"
             d="m 289.12891,371.11328 c -10.6211,-25.10547 -23.7461,-49.29687 -39.01563,-71.89844 -15.0625,-22.29687 -32.35156,-43.25 -51.38281,-62.28515 C 179.69922,217.89844 158.74219,200.61328 136.44531,185.55078 113.84375,170.28125 89.65625,157.15234 64.550781,146.53906 38.90625,135.6875 12.070312,127.35938 -15.214844,121.77734 c -27.8125,-5.6914 -56.335937,-8.57812 -84.777344,-8.57812 v 1.94531 c 28.3125,0 56.703126,2.8711 84.390626,8.53516 27.152343,5.55859 53.867187,13.85156 79.394531,24.64843 24.988281,10.57032 49.066411,23.63672 71.562501,38.83204 22.19531,14.99218 43.05469,32.19921 62,51.14453 18.94531,18.94922 36.15234,39.80468 51.14453,62 15.19922,22.49609 28.26562,46.57422 38.83594,71.5664 10.79687,25.52735 19.08984,52.23828 24.64453,79.39453 5.66797,27.6875 8.53906,56.07813 8.53906,84.38672 h 1.94531 c 0,-28.4414 -2.88672,-56.96093 -8.57812,-84.77734 -5.58203,-27.28125 -13.91406,-54.11719 -24.75781,-79.76172"
             fill-opacity="1"
             fill-rule="nonzero"
             id="path109" />
        </g>
        <g
           clip-path="url(#b0cf2301f5)"
           id="g111">
          <path
             fill="#1c6793"
             d="m 208.53516,405.19922 c -8.41797,-19.90235 -18.82422,-39.07813 -30.92969,-56.9961 -11.94531,-17.68359 -25.65235,-34.30468 -40.75,-49.39453 C 121.76172,283.71094 105.14063,270 87.460938,258.05469 69.542969,245.94922 50.367188,235.54297 30.464844,227.125 c -20.328125,-8.59766 -41.597656,-15.19922 -63.21875,-19.62109 -22.054688,-4.51563 -44.675782,-6.80469 -67.238282,-6.80469 v 3.46094 c 22.328126,0 44.714844,2.26171 66.542969,6.73046 21.398438,4.37891 42.449219,10.91407 62.566407,19.42188 19.695312,8.33203 38.675781,18.62891 56.40625,30.60937 17.500002,11.82032 33.949222,25.39063 48.886722,40.33204 14.9414,14.9375 28.50781,31.38281 40.33203,48.88281 11.98047,17.73437 22.27734,36.71094 30.60937,56.41015 8.50781,20.11329 15.04297,41.16407 19.42188,62.56641 4.46484,21.82422 6.73047,44.21094 6.73047,66.53906 h 3.45703 c 0,-22.55859 -2.28907,-45.17968 -6.80078,-67.23437 -4.42579,-21.625 -11.02735,-42.89453 -19.625,-63.21875"
             fill-opacity="1"
             fill-rule="nonzero"
             id="path110" />
        </g>
        <g
           clip-path="url(#572843f90d)"
           id="g112">
          <path
             fill="#1c6793"
             d="m 231.5625,395.45703 c -9.04688,-21.38672 -20.23047,-41.99609 -33.24219,-61.25 -12.83203,-19.00391 -27.5664,-36.85937 -43.78515,-53.07812 -16.21875,-16.22266 -34.07813,-30.95313 -53.07813,-43.78907 -19.253905,-13.01172 -39.86328,-24.1914 -61.253905,-33.23828 -21.84375,-9.23828 -44.707031,-16.33594 -67.945313,-21.09375 -23.699218,-4.85156 -48.007812,-7.30859 -72.25,-7.30859 v 3.02734 c 24.039063,0 48.140626,2.4375 71.640626,7.2461 23.046874,4.71484 45.714843,11.7539 67.378906,20.91406 21.207031,8.97265 41.640625,20.0625 60.734375,32.96094 18.839841,12.72656 36.550781,27.33593 52.632811,43.41796 16.08203,16.08594 30.69141,33.79297 43.42188,52.63282 12.89843,19.09375 23.98828,39.53125 32.95703,60.73828 9.16406,21.66406 16.20312,44.33203 20.91797,67.375 4.80859,23.5 7.24609,47.60547 7.24609,71.64062 h 3.02344 c 0,-24.23828 -2.45703,-48.54687 -7.30469,-72.24609 -4.75781,-23.24219 -11.85547,-46.10156 -21.09375,-67.94922"
             fill-opacity="1"
             fill-rule="nonzero"
             id="path111" />
        </g>
        <g
           clip-path="url(#ba0d3a08ff)"
           id="g113">
          <path
             fill="#1c6793"
             d="M 277.61328,375.98047 C 267.30859,351.61719 254.57422,328.14453 239.75781,306.21484 225.13672,284.57812 208.35937,264.24219 189.89062,245.76953 171.42187,227.30078 151.08594,210.52344 129.44922,195.90625 107.51563,181.08984 84.042969,168.35156 59.683594,158.05078 34.796875,147.52344 8.753906,139.44141 -17.71875,134.02344 -44.710938,128.5 -72.390625,125.69922 -99.992188,125.69922 v 2.16016 c 27.457032,0 54.992188,2.78515 81.839844,8.28124 26.335938,5.38672 52.238282,13.42969 76.992188,23.89844 24.234375,10.25 47.582036,22.91797 69.398436,37.65625 21.52344,14.54297 41.75,31.23047 60.12109,49.60156 18.375,18.375 35.0625,38.60157 49.60547,60.12891 14.73828,21.8125 27.40625,45.16406 37.65625,69.39844 10.46875,24.7539 18.51563,50.65625 23.90235,76.99219 5.49609,26.84765 8.28125,54.38281 8.28125,81.83593 h 2.16015 c 0,-27.59765 -2.80078,-55.27734 -8.32422,-82.26953 -5.41796,-26.47265 -13.5,-52.51562 -24.02734,-77.40234"
             fill-opacity="1"
             fill-rule="nonzero"
             id="path112" />
        </g>
        <g
           clip-path="url(#fd14ca9f16)"
           id="g114">
          <path
             fill="#1c6793"
             d="m 254.58984,385.71875 c -9.67578,-22.875 -21.63672,-44.91406 -35.55078,-65.50781 C 205.3125,299.89062 189.55859,280.79297 172.21094,263.44922 154.87109,246.10547 135.77344,230.35156 115.45313,216.62109 94.859375,202.71094 72.816406,190.75 49.945312,181.07422 26.578125,171.19141 2.125,163.60156 -22.730469,158.51562 c -25.347656,-5.1875 -51.339843,-7.8164 -77.261719,-7.8164 v 2.59375 c 25.746094,0 51.566407,2.60937 76.742188,7.76172 24.6875,5.05468 48.976562,12.59375 72.183594,22.41015 22.71875,9.60938 44.613281,21.48828 65.066406,35.30469 20.18359,13.63672 39.15234,29.28516 56.37891,46.51172 17.22656,17.23047 32.8789,36.19922 46.51171,56.37891 13.82032,20.45703 25.69922,42.34765 35.3086,65.07031 9.8164,23.20703 17.35547,47.49609 22.40625,72.18359 5.15234,25.17578 7.76562,50.99219 7.76562,76.73828 h 2.59375 c 0,-25.91797 -2.63281,-51.91406 -7.8164,-77.25781 -5.08594,-24.85547 -12.67578,-49.30859 -22.5586,-72.67578"
             fill-opacity="1"
             fill-rule="nonzero"
             id="path113" />
        </g>
        <g
           clip-path="url(#b109621704)"
           id="g115">
          <path
             fill="#1c6793"
             d="m 266.10156,380.85156 c -9.99219,-23.62109 -22.33984,-46.375 -36.70703,-67.64062 -14.17187,-20.97657 -30.4375,-40.69532 -48.34375,-58.60157 C 163.14453,236.70312 143.42969,220.4375 122.44922,206.26562 101.1875,191.89844 78.429688,179.55078 54.8125,169.5625 30.6875,159.35547 5.441406,151.51953 -20.226562,146.26953 c -26.167969,-5.35547 -53.003907,-8.07031 -79.765626,-8.07031 v 2.3789 c 26.601563,0 53.277344,2.69922 79.289063,8.01954 25.511719,5.22265 50.609375,13.01171 74.589844,23.15625 23.476562,9.92968 46.097656,22.20312 67.230471,36.48437 20.85547,14.08594 40.45312,30.25391 58.2539,48.05469 17.80078,17.80078 33.96875,37.39844 48.05469,58.25 14.27734,21.13672 26.55469,43.75781 36.48438,67.23437 10.14453,23.98047 17.93359,49.07813 23.15234,74.58594 5.32422,26.01563 8.02344,52.69141 8.02344,79.28906 h 2.3789 c 0,-26.75781 -2.71484,-53.59375 -8.07422,-79.76172 -5.25,-25.66796 -13.08593,-50.91406 -23.28906,-75.03906"
             fill-opacity="1"
             fill-rule="nonzero"
             id="path114" />
        </g>
      </g>
    </g>
  </g>
  <g
     mask="url(#1aa9bac220)"
     id="g158">
    <g
       transform="translate(934)"
       id="g157">
      <g
         clip-path="url(#b2027fd9f4)"
         id="g156">
        <g
           clip-path="url(#579aae8e84)"
           id="g119">
          <path
             fill="#1c6793"
             d="m 330.50781,50.699219 c 5.58985,13.210937 12.4961,25.945312 20.53516,37.84375 7.9375,11.746091 17.04687,22.789061 27.08203,32.820311 10.02734,10.03516 21.07422,19.14453 32.82031,27.08203 11.89844,8.03906 24.63281,14.94531 37.84375,20.53516 13.48438,5.70312 27.59766,10.08594 41.94922,13.02344 14.64844,2.99609 29.67969,4.51562 44.67969,4.51562 v -5.40625 c -14.63672,0 -29.30469,-1.48047 -43.59766,-4.40625 -14,-2.86328 -27.76953,-7.14062 -40.92578,-12.70312 -12.89062,-5.45313 -25.3125,-12.19532 -36.92187,-20.03516 -11.46485,-7.74609 -22.24219,-16.63672 -32.02735,-26.42578 C 372.15625,107.75391 363.26562,96.980469 355.51953,85.515625 347.67578,73.90625 340.9375,61.484375 335.48437,48.59375 329.91797,35.4375 325.64453,21.664062 322.78125,7.667969 319.85547,-6.625 318.37109,-21.292969 318.37109,-35.929688 h -5.40234 c 0,15 1.51953,30.03125 4.51562,44.679688 2.9375,14.347656 7.32032,28.460938 13.02344,41.949219"
             fill-opacity="1"
             fill-rule="nonzero"
             id="path118" />
        </g>
        <g
           clip-path="url(#3c0ecd44f5)"
           id="g120">
          <path
             fill="#1c6793"
             d="m 318.99609,55.570312 c 5.90235,13.953126 13.19922,27.402344 21.6875,39.96875 8.38672,12.410158 18.00782,24.070318 28.60157,34.664058 10.59375,10.59375 22.2539,20.21875 34.66406,28.59766 12.5664,8.49219 26.01562,15.78906 39.96875,21.69141 14.24609,6.02734 29.15625,10.65625 44.3125,13.75781 15.47265,3.16406 31.34765,4.76953 47.1875,4.76953 v -5.1875 c -15.49219,0 -31.01563,-1.57031 -46.14844,-4.66406 -14.82031,-3.03516 -29.39844,-7.5625 -43.33203,-13.45313 -13.64453,-5.77343 -26.79688,-12.90625 -39.08594,-21.21093 C 394.71875,146.30859 383.3125,136.89453 372.95312,126.53516 362.58984,116.17578 353.18359,104.76953 344.98437,92.636719 336.67969,80.34375 329.54297,67.195312 323.77344,53.550781 317.87891,39.617188 313.35547,25.039062 310.32031,10.21875 307.22656,-4.914062 305.65625,-20.4375 305.65625,-35.929688 h -5.1875 c 0,15.839844 1.60547,31.714844 4.76953,47.1875 3.10156,15.15625 7.73047,30.0625 13.75781,44.3125"
             fill-opacity="1"
             fill-rule="nonzero"
             id="path119" />
        </g>
        <g
           clip-path="url(#fe8ccf7253)"
           id="g121">
          <path
             fill="#1c6793"
             d="m 307.48047,60.4375 c 6.21875,14.699219 13.90234,28.863281 22.84375,42.10156 8.83203,13.06641 18.96484,25.34766 30.12109,36.50391 11.15625,11.15625 23.4375,21.28906 36.50391,30.11719 13.23828,8.9414 27.40234,16.6289 42.10156,22.84375 15.00391,6.34765 30.71094,11.22265 46.67578,14.49218 16.29297,3.33594 33.01172,5.02344 49.69141,5.02344 v -4.97266 c -16.34766,0 -32.73047,-1.65625 -48.69531,-4.92187 -15.64454,-3.19922 -31.03125,-7.97656 -45.73829,-14.19922 -14.40234,-6.08984 -28.28125,-13.62109 -41.25,-22.38281 -12.80468,-8.65235 -24.83984,-18.58203 -35.77343,-29.51563 -10.9336,-10.93359 -20.86328,-22.96875 -29.51563,-35.773434 -8.76172,-12.96875 -16.29297,-26.847656 -22.38672,-41.25 -6.21875,-14.707031 -10.99609,-30.09375 -14.19531,-45.738281 -3.26562,-15.964844 -4.92187,-32.351563 -4.92187,-48.695313 h -4.97266 c 0,16.679688 1.6875,33.398438 5.02344,49.691407 3.26562,15.964843 8.14062,31.671875 14.48828,46.675781"
             fill-opacity="1"
             fill-rule="nonzero"
             id="path120" />
        </g>
        <g
           clip-path="url(#38d98c2e69)"
           id="g122">
          <path
             fill="#1c6793"
             d="m 342.01953,45.828125 c 5.27734,12.46875 11.79688,24.484375 19.38281,35.714844 7.49219,11.089843 16.08985,21.511721 25.5586,30.980471 9.46875,9.46875 19.89453,18.07031 30.98437,25.5625 11.22656,7.58593 23.2461,14.10547 35.71094,19.3789 12.73047,5.38282 26.04687,9.51953 39.58594,12.28907 13.82812,2.82812 28.01562,4.26562 42.17578,4.26562 v -5.62109 c -13.78125,0 -27.59375,-1.39453 -41.04688,-4.14844 -13.17578,-2.69922 -26.13672,-6.71875 -38.52343,-11.96094 -12.13282,-5.13281 -23.82813,-11.47656 -34.75782,-18.85937 -10.79297,-7.29297 -20.9375,-15.66406 -30.15234,-24.87891 -9.21875,-9.214842 -17.58594,-19.359374 -24.87891,-30.152342 -7.38281,-10.929688 -13.72656,-22.625 -18.85937,-34.757813 -5.24219,-12.386719 -9.26172,-25.347656 -11.96094,-38.523437 -2.75391,-13.457032 -4.14844,-27.265626 -4.14844,-41.046876 h -5.62109 c 0,14.15625 1.4375,28.347657 4.26562,42.175782 2.76954,13.539062 6.90235,26.855468 12.28516,39.582031"
             fill-opacity="1"
             fill-rule="nonzero"
             id="path121" />
        </g>
        <g
           clip-path="url(#7f9796047a)"
           id="g123">
          <path
             fill="#1c6793"
             d="m 295.96875,65.308594 c 6.53125,15.441406 14.60547,30.320312 24,44.226566 9.27344,13.72656 19.91797,26.6289 31.63672,38.34765 11.71875,11.71875 24.62109,22.36328 38.34765,31.63672 13.90625,9.39063 28.78516,17.46875 44.22657,24 15.76562,6.66797 32.26562,11.78906 49.03906,15.22266 17.11719,3.5 34.67969,5.27734 52.19922,5.27734 v -4.75391 c -17.19922,0 -34.44141,-1.74609 -51.2461,-5.18359 -16.46484,-3.36719 -32.66406,-8.39844 -48.14062,-14.94531 -15.15625,-6.41016 -29.76563,-14.33594 -43.41797,-23.5586 -13.47266,-9.10156 -26.14062,-19.55468 -37.64453,-31.05859 C 343.46484,133.01562 333.01172,120.34766 323.91016,106.87109 314.6875,93.222656 306.76172,78.613281 300.35156,63.457031 293.80469,47.980469 288.77344,31.78125 285.40625,15.316406 c -3.44141,-16.804687 -5.18359,-34.046875 -5.18359,-51.246094 h -4.75391 c 0,17.519532 1.77734,35.082032 5.27734,52.199219 3.4336,16.773438 8.55469,33.273438 15.22266,49.039063"
             fill-opacity="1"
             fill-rule="nonzero"
             id="path122" />
        </g>
        <g
           clip-path="url(#d96bf8ce5a)"
           id="g124">
          <path
             fill="#1c6793"
             d="m 272.94531,75.046875 c 7.16016,16.929687 16.00781,33.242185 26.3086,48.484375 10.16406,15.04297 21.82812,29.18359 34.67187,42.03125 12.84766,12.83984 26.98828,24.50781 42.03125,34.67187 15.24219,10.29688 31.55469,19.14844 48.48438,26.3086 17.28515,7.3125 35.375,12.92969 53.76562,16.6914 18.76172,3.83985 38.01172,5.78516 57.21094,5.78516 v -4.32422 c -18.91016,0 -37.86719,-1.91406 -56.34375,-5.69531 -18.11328,-3.70703 -35.92578,-9.23438 -52.94922,-16.4375 -16.67188,-7.05078 -32.73438,-15.76953 -47.75,-25.91016 -14.8125,-10.01172 -28.74219,-21.5 -41.39063,-34.14843 -12.64843,-12.64844 -24.14062,-26.57422 -34.14843,-41.39453 -10.14063,-15.01172 -18.85938,-31.074224 -25.91016,-47.746099 -7.20312,-17.023437 -12.73047,-34.839843 -16.4375,-52.949219 -3.78125,-18.476562 -5.69922,-37.4375 -5.69922,-56.34375 h -4.32031 c 0,19.199219 1.94531,38.449219 5.78516,57.210938 3.76171,18.390625 9.3789,36.480469 16.6914,53.765625"
             fill-opacity="1"
             fill-rule="nonzero"
             id="path123" />
        </g>
        <g
           clip-path="url(#b920c89c4b)"
           id="g125">
          <path
             fill="#1c6793"
             d="m 261.42969,79.917969 c 7.47656,17.667969 16.71484,34.699221 27.46484,50.609371 10.60938,15.70703 22.78516,30.46485 36.19531,43.8711 13.40625,13.41015 28.16407,25.58593 43.86719,36.19531 15.91406,10.75 32.94141,19.98828 50.61328,27.46484 18.04688,7.63282 36.92969,13.4961 56.12891,17.42188 19.58594,4.00781 39.67969,6.04297 59.71875,6.04297 v -4.10547 c -19.76563,0 -39.57813,-2.00781 -58.89453,-5.96094 -18.9336,-3.875 -37.55469,-9.65625 -55.35157,-17.18359 -17.42968,-7.36719 -34.22265,-16.48438 -49.91406,-27.08203 -15.48828,-10.46485 -30.04297,-22.47266 -43.26562,-35.69532 -13.22266,-13.22265 -25.23047,-27.77734 -35.69532,-43.26562 -10.60156,-15.69531 -19.71484,-32.484376 -27.08593,-49.914064 -7.52735,-17.796875 -13.3086,-36.417968 -17.17969,-55.351562 -3.95313,-19.316406 -5.96094,-39.132813 -5.96094,-58.894532 h -4.10547 c 0,20.039063 2.03516,40.132813 6.04297,59.714844 3.92578,19.199219 9.78906,38.085938 17.42188,56.132813"
             fill-opacity="1"
             fill-rule="nonzero"
             id="path124" />
        </g>
        <g
           clip-path="url(#d68dfeddb5)"
           id="g126">
          <path
             fill="#1c6793"
             d="m 284.45703,70.175781 c 6.84375,16.1875 15.30859,31.781249 25.15234,46.355469 9.71875,14.38672 20.87891,27.91016 33.15625,40.1875 12.28125,12.28516 25.80469,23.4375 40.1875,33.16016 14.57813,9.84375 30.17188,18.30859 46.35547,25.15234 16.52735,6.99219 33.82032,12.35937 51.40625,15.95703 17.9375,3.67188 36.34375,5.53125 54.70313,5.53125 v -4.53906 c -18.05469,0 -36.15625,-1.83203 -53.79297,-5.4375 -17.28906,-3.53906 -34.29688,-8.82031 -50.54688,-15.69141 -15.91406,-6.73437 -31.25,-15.05469 -45.58203,-24.73828 -14.14453,-9.55469 -27.4414,-20.52344 -39.51953,-32.60156 -12.07812,-12.07813 -23.04687,-25.375 -32.60547,-39.51953 -9.67968,-14.332034 -18.0039,-29.667971 -24.73437,-45.582034 -6.875,-16.25 -12.15235,-33.257812 -15.69141,-50.546875 -3.60937,-17.640625 -5.4375,-35.738281 -5.4375,-53.792969 h -4.53906 c 0,18.359376 1.85937,36.765626 5.53125,54.703126 3.59766,17.582031 8.96484,34.878906 15.95703,51.402343"
             fill-opacity="1"
             fill-rule="nonzero"
             id="path125" />
        </g>
        <g
           clip-path="url(#e8d06b0c09)"
           id="g127">
          <path
             fill="#1c6793"
             d="m 353.53516,40.960938 c 4.95703,11.722656 11.08984,23.023437 18.22656,33.585937 7.04297,10.429687 15.13281,20.234375 24.03906,29.140625 8.90625,8.90625 18.71094,16.99219 29.14063,24.03906 10.5625,7.13672 21.85937,13.26563 33.58593,18.22656 11.96875,5.0625 24.49219,8.94922 37.22266,11.55469 13,2.66016 26.34766,4.00781 39.66797,4.00781 v -5.83593 c -12.92578,0 -25.87891,-1.30469 -38.5,-3.89063 -12.35156,-2.52734 -24.50391,-6.30078 -36.11719,-11.21094 -11.37891,-4.8125 -22.34375,-10.76171 -32.58984,-17.68749 -10.125,-6.83985 -19.64063,-14.6875 -28.28125,-23.332036 -8.64453,-8.644532 -16.4961,-18.160156 -23.33203,-28.28125 -6.92579,-10.246094 -12.875,-21.210938 -17.6875,-32.589844 -4.91407,-11.613281 -8.6836,-23.765625 -11.21094,-36.117188 -2.58594,-12.621093 -3.89453,-25.574218 -3.89453,-38.5 h -5.83594 c 0,13.320313 1.35156,26.664063 4.01172,39.667969 2.60547,12.730469 6.49219,25.253907 11.55469,37.222657"
             fill-opacity="1"
             fill-rule="nonzero"
             id="path126" />
        </g>
        <g
           clip-path="url(#7fd3ed1647)"
           id="g128">
          <path
             fill="#1c6793"
             d="m 365.04687,36.09375 c 4.64844,10.980469 10.39063,21.566406 17.07422,31.457031 6.60157,9.769531 14.17578,18.953125 22.51953,27.296875 8.34375,8.343754 17.52735,15.917974 27.29688,22.519534 9.89062,6.68359 20.47656,12.42578 31.45703,17.07031 11.21094,4.74219 22.94141,8.38281 34.86719,10.82422 12.17578,2.49219 24.67969,3.7539 37.15625,3.7539 v -6.05078 c -12.07031,0 -24.16406,-1.22265 -35.94531,-3.63281 -11.53125,-2.35937 -22.87891,-5.88281 -33.71875,-10.46484 -10.625,-4.4961 -20.85938,-10.05078 -30.42969,-16.51563 C 425.875,105.96875 416.99219,98.636719 408.92187,90.566406 400.84766,82.496094 393.51953,73.613281 387.13672,64.164062 380.67187,54.59375 375.11328,44.359375 370.62109,33.734375 c -4.58593,-10.839844 -8.10547,-22.1875 -10.46484,-33.71875 -2.41016,-11.78125 -3.63281,-23.875 -3.63281,-35.945313 h -6.05469 c 0,12.476563 1.26562,24.980469 3.75781,37.15625 2.4375,11.925782 6.08203,23.65625 10.82031,34.867188"
             fill-opacity="1"
             fill-rule="nonzero"
             id="path127" />
        </g>
        <g
           clip-path="url(#a5b514ff75)"
           id="g129">
          <path
             fill="#1c6793"
             d="m 434.13281,6.890625 c 2.76172,6.527344 6.17578,12.816406 10.15235,18.699219 3.92578,5.804687 8.42968,11.261718 13.39062,16.222656 4.96094,4.960938 10.41797,9.464844 16.22266,13.390625 5.88281,3.976563 12.17578,7.390625 18.69922,10.152344 6.66406,2.820312 13.64062,4.984375 20.73046,6.433593 7.23047,1.476563 14.66407,2.226563 22.08985,2.226563 v -7.347656 c -6.9336,0 -13.8711,-0.699219 -20.61719,-2.078125 -6.61719,-1.351563 -13.12109,-3.371094 -19.33984,-6 -6.08594,-2.578125 -11.95703,-5.765625 -17.44532,-9.476563 -5.41796,-3.660156 -10.51171,-7.867187 -15.14453,-12.496093 -4.6289,-4.628907 -8.83203,-9.726563 -12.49609,-15.144532 -3.71094,-5.488281 -6.89844,-11.359375 -9.47656,-17.445312 -2.62891,-6.21875 -4.64844,-12.726563 -6,-19.339844 -1.37891,-6.746094 -2.07813,-13.683594 -2.07813,-20.617188 h -7.34765 c 0,7.425782 0.75,14.859376 2.22656,22.085938 1.44922,7.09375 3.61328,14.066406 6.43359,20.734375"
             fill-opacity="1"
             fill-rule="nonzero"
             id="path128" />
        </g>
        <g
           clip-path="url(#d4b1b5dfdd)"
           id="g130">
          <path
             fill="#1c6793"
             d="m 422.61719,11.757812 c 3.07422,7.269532 6.8789,14.273438 11.30859,20.824219 4.37109,6.46875 9.38672,12.546875 14.91016,18.070313 5.52343,5.523437 11.60547,10.539062 18.07031,14.910156 6.55078,4.429688 13.55469,8.234375 20.82422,11.308594 7.42187,3.140625 15.1914,5.550781 23.08594,7.164062 8.05468,1.644532 16.33203,2.480469 24.60156,2.480469 v -7.132813 c -7.78906,0 -15.58594,-0.785156 -23.17188,-2.335937 -7.43359,-1.519531 -14.75,-3.789063 -21.73828,-6.746094 C 483.66797,67.40625 477.07031,63.824219 470.89844,59.652344 464.80859,55.539062 459.08203,50.8125 453.87891,45.609375 448.67578,40.40625 443.94922,34.679688 439.83594,28.589844 435.66406,22.417969 432.08203,15.820312 429.1875,8.976562 c -2.95703,-6.988281 -5.22656,-14.300781 -6.74609,-21.734374 -1.55079,-7.585938 -2.33594,-15.382813 -2.33594,-23.171876 h -7.13281 c 0,8.269532 0.83203,16.546876 2.48046,24.597657 1.61329,7.898437 4.02344,15.667969 7.16407,23.089843"
             fill-opacity="1"
             fill-rule="nonzero"
             id="path129" />
        </g>
        <g
           clip-path="url(#3599da1973)"
           id="g131">
          <path
             fill="#1c6793"
             d="m 411.10547,16.625 c 3.38672,8.011719 7.57812,15.734375 12.45703,22.953125 4.81641,7.125 10.34766,13.824219 16.43359,19.914063 6.08985,6.085937 12.78907,11.617187 19.91407,16.433593 7.21875,4.875 14.9414,9.070313 22.95312,12.457031 8.17969,3.460938 16.74219,6.117188 25.44141,7.898438 8.8789,1.816406 18.0039,2.734375 27.11328,2.734375 v -6.917969 c -8.64844,0 -17.30469,-0.871094 -25.72656,-2.59375 -8.25391,-1.6875 -16.375,-4.207031 -24.13282,-7.488281 C 477.95703,78.800781 470.63281,74.820312 463.78516,70.191406 457.02344,65.621094 450.66406,60.375 444.88672,54.601562 439.10937,48.824219 433.86328,42.464844 429.29297,35.703125 424.66406,28.855469 420.6875,21.53125 417.47266,13.929688 c -3.28125,-7.761719 -5.80079,-15.878907 -7.48829,-24.132813 -1.72265,-8.425781 -2.59375,-17.082031 -2.59375,-25.726563 h -6.91796 c 0,9.109376 0.91796,18.234376 2.73437,27.109376 1.77734,8.703124 4.4375,17.265624 7.89844,25.445312"
             fill-opacity="1"
             fill-rule="nonzero"
             id="path130" />
        </g>
        <g
           clip-path="url(#b4b49c900d)"
           id="g132">
          <path
             fill="#1c6793"
             d="m 249.91797,84.785156 c 7.78906,18.417974 17.41797,36.160154 28.61719,52.742184 11.05468,16.36328 23.74609,31.74219 37.71093,45.71485 13.97266,13.96875 29.35157,26.65234 45.71485,37.71093 16.58203,11.19922 34.32422,20.82813 52.74218,28.61719 18.80469,7.95313 38.48438,14.0625 58.49219,18.15625 20.40625,4.17969 41.34375,6.29688 62.22266,6.29688 v -3.89063 c -20.61719,0 -41.29297,-2.08984 -61.44141,-6.21484 -19.75781,-4.04297 -39.1914,-10.07813 -57.76172,-17.92969 -18.18359,-7.69141 -35.70312,-17.19922 -52.07422,-28.26172 C 347.98047,206.8125 332.79297,194.28125 319,180.48828 305.20703,166.69531 292.67578,151.50781 281.76172,135.34766 270.69922,118.97656 261.19141,101.45313 253.5,83.269531 c -7.85156,-18.570312 -13.88672,-38 -17.92969,-57.757812 -4.125,-20.152344 -6.21484,-40.824219 -6.21484,-61.441407 h -3.89063 c 0,20.878907 2.11719,41.8125 6.29297,62.222657 4.09766,20.007812 10.20703,39.6875 18.16016,58.492187"
             fill-opacity="1"
             fill-rule="nonzero"
             id="path131" />
        </g>
        <g
           clip-path="url(#f5de50eed8)"
           id="g133">
          <path
             fill="#1c6793"
             d="m 450.47266,-35.929688 c 0,11.464844 2.24609,22.589844 6.67578,33.066407 4.28125,10.113281 10.40625,19.199219 18.20703,26.996093 7.79687,7.800782 16.88281,13.925782 26.99609,18.203126 10.47656,4.433593 21.60156,6.679687 33.06641,6.679687 v -84.945313 h -84.94531"
             fill-opacity="1"
             fill-rule="nonzero"
             id="path132" />
        </g>
        <g
           clip-path="url(#56344e81b3)"
           id="g134">
          <path
             fill="#1c6793"
             d="m 399.58984,21.492188 c 3.70313,8.753906 8.28125,17.191406 13.61328,25.078124 5.26172,7.789063 11.30469,15.109376 17.95313,21.757813 6.65234,6.652344 13.97266,12.695313 21.76172,17.957031 7.88672,5.328125 16.32422,9.910156 25.07812,13.613282 8.9375,3.781252 18.28907,6.683592 27.79688,8.628902 9.70703,1.98047 19.67187,2.98829 29.625,2.98829 v -6.69922 c -9.50391,0 -19.01953,-0.96094 -28.28125,-2.85547 -9.07422,-1.85547 -18,-4.625002 -26.53125,-8.234378 -8.35547,-3.535156 -16.40625,-7.90625 -23.9375,-12.992187 -7.4336,-5.023437 -14.42188,-10.792969 -20.77344,-17.144531 -6.35156,-6.347656 -12.11719,-13.335938 -17.14062,-20.769532 -5.08594,-7.53125 -9.45704,-15.585937 -12.99219,-23.9375 -3.60938,-8.53125 -6.37891,-17.457031 -8.23438,-26.53125 -1.89453,-9.265624 -2.85547,-18.78125 -2.85547,-28.28125 h -6.69921 c 0,9.953126 1.0039,19.917969 2.98828,29.621094 1.94531,9.511719 4.84765,18.863282 8.6289,27.800782"
             fill-opacity="1"
             fill-rule="nonzero"
             id="path133" />
        </g>
        <g
           clip-path="url(#e5e43fd2af)"
           id="g135">
          <path
             fill="#1c6793"
             d="m 376.5625,31.226562 c 4.33203,10.238282 9.6875,20.105469 15.92187,29.332032 6.15235,9.109375 13.21875,17.671875 20.9961,25.449218 7.77734,7.78125 16.33984,14.843748 25.44922,20.996098 9.22656,6.23437 19.09375,11.58984 29.33203,15.92187 10.45312,4.42188 21.39062,7.81641 32.51172,10.08984 11.35156,2.32422 23.00781,3.5 34.64453,3.5 v -6.26953 c -11.21485,0 -22.44922,-1.13281 -33.39063,-3.37109 -10.71484,-2.19141 -21.2539,-5.46484 -31.32422,-9.72266 -9.86718,-4.17578 -19.375,-9.33593 -28.26562,-15.33984 -8.77734,-5.933594 -17.02734,-12.738281 -24.52734,-20.238281 -7.4961,-7.496094 -14.30469,-15.746094 -20.23438,-24.527344 -6.00391,-8.886719 -11.16797,-18.398437 -15.33984,-28.261719 -4.26172,-10.074218 -7.53125,-20.613281 -9.72266,-31.324218 -2.23828,-10.941407 -3.37109,-22.175782 -3.37109,-33.390626 h -6.26953 c 0,11.636719 1.17578,23.292969 3.5,34.644532 2.27343,11.121094 5.66796,22.058594 10.08984,32.511718"
             fill-opacity="1"
             fill-rule="nonzero"
             id="path134" />
        </g>
        <g
           clip-path="url(#c10964ff58)"
           id="g136">
          <path
             fill="#1c6793"
             d="m 388.07422,26.359375 c 4.01953,9.496094 8.98437,18.648437 14.76562,27.207031 5.71094,8.445313 12.26563,16.386719 19.47657,23.605469 7.21875,7.210937 15.16015,13.765625 23.60937,19.472656 8.55469,5.781249 17.70703,10.749999 27.20313,14.769529 9.69531,4.09766 19.83984,7.2461 30.15625,9.35938 10.52734,2.15234 21.33984,3.24219 32.13281,3.24219 v -6.48438 c -10.35938,0 -20.73438,-1.04687 -30.83594,-3.11328 -9.89453,-2.02344 -19.625,-5.04297 -28.92578,-8.97656 -9.11328,-3.85547 -17.89453,-8.621098 -26.10156,-14.167972 -8.10547,-5.476563 -15.72657,-11.765626 -22.64844,-18.6875 -6.92578,-6.925782 -13.21484,-14.546876 -18.69141,-22.652344 -5.54687,-8.207032 -10.3125,-16.992188 -14.16797,-26.101563 -3.93359,-9.300781 -6.95312,-19.03125 -8.97656,-28.925781 -2.0664,-10.105469 -3.11719,-20.476562 -3.11719,-30.835938 h -6.48046 c 0,10.792969 1.08984,21.605469 3.24218,32.132813 2.10938,10.316406 5.26172,20.460937 9.35938,30.15625"
             fill-opacity="1"
             fill-rule="nonzero"
             id="path135" />
        </g>
        <g
           clip-path="url(#cbc6e0fe26)"
           id="g137">
          <path
             fill="#1c6793"
             d="m 445.64453,2.023438 c 2.44922,5.78125 5.47656,11.359374 9.00391,16.574218 3.47656,5.140625 7.46875,9.980469 11.86718,14.375 4.39454,4.398438 9.23438,8.390625 14.37891,11.867188 5.21094,3.527344 10.78516,6.554687 16.57031,9.003906 5.90625,2.5 12.08985,4.417969 18.375,5.699219 6.40625,1.308593 12.99219,1.972656 19.57813,1.972656 v -7.566406 c -6.07813,0 -12.15625,-0.609375 -18.0625,-1.816407 -5.79688,-1.183593 -11.4961,-2.953124 -16.94141,-5.257812 -5.33203,-2.257812 -10.47656,-5.050781 -15.28515,-8.300781 -4.7461,-3.210938 -9.20704,-6.894531 -13.26563,-10.949219 -4.05469,-4.058594 -7.73828,-8.519531 -10.94922,-13.265625 -3.2539,-4.808594 -6.04687,-9.953125 -8.30078,-15.285156 -2.30469,-5.445313 -4.07422,-11.144531 -5.25781,-16.941407 -1.20703,-5.90625 -1.81641,-11.984374 -1.81641,-18.0625 h -7.5664 c 0,6.585938 0.66406,13.171876 1.97265,19.578126 1.28125,6.285156 3.19922,12.464843 5.69922,18.375"
             fill-opacity="1"
             fill-rule="nonzero"
             id="path136" />
        </g>
        <g
           clip-path="url(#fc2f62a075)"
           id="g138">
          <path
             fill="#1c6793"
             d="m 100.19922,148.11328 c 11.875,28.08203 26.55859,55.13672 43.63281,80.41797 16.84766,24.9375 36.18359,48.37109 57.46484,69.65625 21.28907,21.28516 44.72266,40.62109 69.66016,57.46484 25.28125,17.07813 52.33594,31.76172 80.41797,43.63672 28.6875,12.13672 58.71094,21.45703 89.23047,27.69922 31.10937,6.37109 63.00781,9.59766 94.8125,9.59766 v -1.19922 c -31.72266,0 -63.54297,-3.21875 -94.57422,-9.57031 -30.44141,-6.22657 -60.38672,-15.52344 -89.00391,-27.62891 -28.01172,-11.84766 -55,-26.49219 -80.21093,-43.52344 C 246.75391,337.85937 223.375,318.57422 202.14453,297.34375 180.91406,276.11328 161.62891,252.73437 144.82422,227.85937 127.78906,202.64453 113.14453,175.65625 101.30078,147.64844 89.191406,119.03125 79.898438,89.085938 73.671875,58.644531 67.320312,27.613281 64.097656,-4.207031 64.097656,-35.929688 h -1.195312 c 0,31.804688 3.230468,63.703126 9.597656,94.8125 6.242188,30.519532 15.5625,60.539068 27.69922,89.230468"
             fill-opacity="1"
             fill-rule="nonzero"
             id="path137" />
        </g>
        <g
           clip-path="url(#4976a90a8b)"
           id="g139">
          <path
             fill="#1c6793"
             d="m 111.72266,143.23828 c 11.5625,27.33594 25.85546,53.67578 42.48046,78.28516 16.40235,24.27734 35.22266,47.08984 55.94532,67.8125 20.72265,20.72265 43.53906,39.54687 67.8164,55.94922 24.60938,16.625 50.94922,30.91796 78.28516,42.48046 27.92969,11.8125 57.15234,20.88282 86.86328,26.96485 30.28516,6.19922 61.34375,9.33984 92.30469,9.33984 v -1.38281 c -30.8711,0 -61.83203,-3.13281 -92.02735,-9.3125 -29.62109,-6.0625 -58.75781,-15.10547 -86.60156,-26.88281 C 329.53125,374.96094 303.27344,360.71484 278.73828,344.14062 254.53516,327.78516 231.78906,309.01953 211.125,288.35937 190.46875,267.69922 171.70312,244.95312 155.34766,220.75 138.77344,196.21484 124.52344,169.95312 112.99609,142.69922 101.21875,114.85547 92.175781,85.714844 86.113281,56.097656 79.933594,25.902344 76.800781,-5.0625 76.800781,-35.929688 h -1.382812 c 0,30.960938 3.144531,62.019532 9.339843,92.304688 6.078126,29.707031 15.152344,58.93359 26.964848,86.86328"
             fill-opacity="1"
             fill-rule="nonzero"
             id="path138" />
        </g>
        <g
           clip-path="url(#40a097066a)"
           id="g140">
          <path
             fill="#1c6793"
             d="m 123.24609,138.36328 c 11.25,26.59375 25.15235,52.21484 41.32813,76.15625 15.95312,23.61719 34.26172,45.80859 54.42578,65.96875 20.15625,20.16016 42.35156,38.47266 65.96875,54.42578 23.94141,16.17188 49.5625,30.07813 76.15625,41.32422 27.16797,11.49219 55.59766,20.31641 84.5,26.23047 29.46094,6.02734 59.67187,9.08594 89.79297,9.08594 v -1.57032 c -30.01563,0 -60.1211,-3.04687 -89.48047,-9.05468 -28.79688,-5.89453 -57.12891,-14.6875 -84.19922,-26.13672 -26.5,-11.20703 -52.03516,-25.0625 -75.89062,-41.17969 C 262.31641,317.71484 240.19531,299.46875 220.10937,279.37891 200.01953,259.28906 181.77344,237.17187 165.875,213.64062 149.75781,189.78516 135.90234,164.25 124.69531,137.75 113.24219,110.67578 104.44922,82.347656 98.554688,53.550781 92.550781,24.191406 89.503906,-5.914062 89.503906,-35.929688 h -1.570312 c 0,30.121094 3.058594,60.332032 9.085937,89.792969 5.914059,28.902344 14.738279,57.328129 26.226559,84.499999"
             fill-opacity="1"
             fill-rule="nonzero"
             id="path139" />
        </g>
        <g
           clip-path="url(#8d7b0e5984)"
           id="g141">
          <path
             fill="#1c6793"
             d="m 88.667969,152.98828 c 12.191411,28.82422 27.265621,56.60156 44.792971,82.54688 17.29687,25.59765 37.14062,49.65234 58.98828,71.5 21.84765,21.85156 45.90625,41.69531 71.5039,58.99218 25.94532,17.52735 53.71875,32.59766 82.54688,44.78907 29.44922,12.45703 60.26953,22.02343 91.59766,28.43359 31.93359,6.53906 64.67578,9.85156 97.32031,9.85156 v -1.01172 c -32.57422,0 -65.25,-3.30468 -97.11719,-9.82812 -31.26562,-6.39844 -62.01953,-15.94141 -91.40625,-28.3711 C 318.125,397.72266 290.41016,382.68359 264.51562,365.19141 238.97266,347.92969 214.96484,328.12891 193.16406,306.32422 171.35937,284.52344 151.55469,260.51562 134.29687,234.97266 116.80469,209.07812 101.76563,181.35937 89.597656,152.59375 77.167969,123.20703 67.621094,92.453125 61.226562,61.1875 54.703125,29.324219 51.398438,-3.351562 51.398438,-35.929688 h -1.011719 c 0,32.644532 3.316406,65.386719 9.851562,97.320313 6.410157,31.328125 15.976563,62.148435 28.429688,91.597655"
             fill-opacity="1"
             fill-rule="nonzero"
             id="path140" />
        </g>
        <g
           clip-path="url(#3edea3def4)"
           id="g142">
          <path
             fill="#1c6793"
             d="m 42.566406,172.48828 c 13.453125,31.80469 30.078125,62.44531 49.417969,91.07031 19.074215,28.23828 40.968745,54.77735 65.066405,78.875 24.10156,24.10157 50.64063,45.9961 78.87891,65.07032 28.625,19.33984 59.26562,35.96484 91.07031,49.41796 32.49219,13.7461 66.49609,24.30079 101.0625,31.375 35.23047,7.20704 71.34766,10.86329 107.35547,10.86329 v -0.26172 c -35.98828,0 -72.08985,-3.65235 -107.30469,-10.85938 -34.54687,-7.0664 -68.53516,-17.61719 -101.01172,-31.35547 C 295.3125,443.23828 264.6875,426.62109 236.07422,407.28906 207.85156,388.22266 181.32422,366.33984 157.23437,342.25 133.14453,318.16016 111.26172,291.63672 92.195312,263.41406 72.867188,234.80078 56.25,204.17578 42.804688,172.38672 29.066406,139.91016 18.519531,105.92188 11.449219,71.375 4.242188,36.164062 0.589844,0.0625 0.589844,-35.929688 H 0.328125 c 0,36.007813 3.65625,72.128907 10.867187,107.355469 7.070313,34.566409 17.628907,68.570309 31.371094,101.062499"
             fill-opacity="1"
             fill-rule="nonzero"
             id="path141" />
        </g>
        <g
           clip-path="url(#32377677cf)"
           id="g143">
          <path
             fill="#1c6793"
             d="m 54.089844,167.61328 c 13.140625,31.05859 29.375,60.98438 48.261716,88.94141 18.63282,27.57812 40.01172,53.49609 63.54688,77.03125 23.53906,23.53515 49.45703,44.91797 77.03515,63.55078 27.95703,18.88672 57.87891,35.12109 88.94141,48.25781 31.73047,13.42578 64.9375,23.73047 98.69531,30.64063 34.40625,7.03906 69.6836,10.60937 104.84766,10.60937 v -0.44531 c -35.13672,0 -70.38281,-3.57031 -104.75781,-10.60156 -33.73047,-6.90235 -66.90625,-17.20313 -98.60938,-30.61329 -31.03516,-13.125 -60.93359,-29.34765 -88.86719,-48.21875 -27.55468,-18.61328 -53.44531,-39.98046 -76.96484,-63.5 C 142.70312,309.75 121.33594,283.85937 102.72266,256.30469 83.851562,228.37109 67.628906,198.47266 54.503906,167.44141 41.089844,135.73437 30.792969,102.55469 23.890625,68.828125 16.859375,34.453125 13.289062,-0.792969 13.289062,-35.929688 H 12.84375 c 0,35.167969 3.570312,70.441407 10.613281,104.847657 6.902344,33.757811 17.214844,66.960941 30.632813,98.695311"
             fill-opacity="1"
             fill-rule="nonzero"
             id="path142" />
        </g>
        <g
           clip-path="url(#65d0fed721)"
           id="g144">
          <path
             fill="#1c6793"
             d="m 77.144531,157.86328 c 12.507813,29.57031 27.964849,58.0625 45.949219,84.67969 17.73828,26.2539 38.09375,50.92969 60.50391,73.34375 22.41406,22.41406 47.09375,42.76953 73.34765,60.50781 26.61719,17.98438 55.10938,33.44141 84.67969,45.94922 30.21094,12.77734 61.82422,22.59375 93.96094,29.16797 32.75781,6.70703 66.34765,10.10156 99.83203,10.10156 v -0.82031 c -33.42969,0 -66.96094,-3.39453 -99.66406,-10.08594 -32.08594,-6.56641 -63.64844,-16.36328 -93.8086,-29.12109 -29.52344,-12.48438 -57.96484,-27.91797 -84.53906,-45.8711 -26.21484,-17.71093 -50.84766,-38.03515 -73.22266,-60.41015 -22.375,-22.375 -42.70312,-47.00782 -60.41015,-73.22266 C 105.82031,215.50781 90.386719,187.06641 77.898438,157.54297 65.144531,127.38281 55.34375,95.820312 48.78125,63.734375 42.089844,31.03125 38.695312,-2.5 38.695312,-35.929688 H 37.875 c 0,33.484376 3.398438,67.074219 10.101562,99.832032 6.574219,32.132812 16.390626,63.749996 29.167969,93.960936"
             fill-opacity="1"
             fill-rule="nonzero"
             id="path143" />
        </g>
        <g
           clip-path="url(#8d08c084e7)"
           id="g145">
          <path
             fill="#1c6793"
             d="m 134.77734,133.48828 c 10.92969,25.84766 24.44532,50.75391 40.16407,74.02344 15.51171,22.95703 33.30859,44.53125 52.90625,64.1289 19.59765,19.59766 41.17187,37.39454 64.1289,52.90625 23.26953,15.71875 48.17578,29.23047 74.02344,40.16407 26.40625,11.17187 54.04297,19.74609 82.13281,25.49609 28.63672,5.85938 58.00391,8.83203 87.28516,8.83203 v -1.75781 c -29.16406,0 -58.41016,-2.96094 -86.9336,-8.79688 -27.97656,-5.72265 -55.5,-14.26562 -81.80078,-25.39062 -25.74218,-10.89063 -50.54687,-24.34766 -73.72265,-40.00391 -22.86328,-15.44922 -44.35157,-33.17578 -63.86719,-52.6914 -19.51953,-19.51953 -37.24609,-41.00782 -52.69531,-63.8711 C 160.74219,183.35156 147.28125,158.54687 136.39453,132.80078 125.26953,106.5 116.72656,78.980469 111,51.003906 105.16406,22.480469 102.20703,-6.765625 102.20703,-35.929688 h -1.75781 c 0,29.28125 2.97266,58.648438 8.83203,87.285157 5.74609,28.089843 14.32422,55.722661 25.49609,82.132811"
             fill-opacity="1"
             fill-rule="nonzero"
             id="path144" />
        </g>
        <g
           clip-path="url(#24c51019c6)"
           id="g146">
          <path
             fill="#1c6793"
             d="m 238.40234,89.65625 c 8.10547,19.15625 18.1211,37.61719 29.77735,54.86719 11.5,17.02343 24.69922,33.02343 39.23047,47.55468 14.53125,14.53125 30.53125,27.73047 47.55468,39.23047 17.25,11.65625 35.71094,21.67188 54.86719,29.77735 19.56641,8.27343 40.03906,14.6289 60.85547,18.88672 21.23437,4.34765 43.01172,6.55078 64.73047,6.55078 v -3.67578 c -21.47266,0 -43.00391,-2.17579 -63.99219,-6.47266 -20.57812,-4.21094 -40.82031,-10.49219 -60.16406,-18.67578 -18.9375,-8.00781 -37.1875,-17.91406 -54.24219,-29.4336 C 340.19141,216.89453 324.375,203.84766 310.00781,189.48047 295.64062,175.11328 282.59375,159.29687 271.22266,142.46875 259.69922,125.41406 249.79687,107.16406 241.78906,88.226562 233.60547,68.882812 227.32422,48.640625 223.11328,28.0625 218.81641,7.074219 216.64062,-14.457031 216.64062,-35.929688 h -3.67578 c 0,21.71875 2.20313,43.496094 6.54688,64.726563 4.26172,20.820313 10.61719,41.292969 18.89062,60.859375"
             fill-opacity="1"
             fill-rule="nonzero"
             id="path145" />
        </g>
        <g
           clip-path="url(#9fe553f518)"
           id="g147">
          <path
             fill="#1c6793"
             d="m 65.617188,162.73828 c 12.820312,30.31641 28.671874,59.52344 47.105472,86.80859 18.18359,26.91797 39.05468,52.21485 62.02734,75.1875 22.97266,22.97657 48.27344,43.84375 75.19141,62.03125 27.28515,18.4336 56.49218,34.28516 86.80859,47.10547 30.97266,13.10157 63.38281,23.16016 96.32812,29.90625 33.58204,6.8711 68.01563,10.35157 102.33985,10.35157 v -0.63282 c -34.28125,0 -68.67188,-3.48047 -102.21094,-10.34375 -32.90625,-6.73437 -65.27734,-16.78125 -96.21094,-29.86328 C 306.71875,420.48047 277.54687,404.65234 250.29297,386.23828 223.41016,368.07812 198.14453,347.23437 175.19922,324.28906 152.25391,301.33984 131.41016,276.07812 113.24609,249.19141 94.835938,221.94141 79.007812,192.76953 66.199219,162.49219 53.117188,131.55859 43.070312,99.1875 36.335938,66.28125 29.472656,32.742188 25.992188,-1.648438 25.992188,-35.929688 h -0.632813 c 0,34.324219 3.484375,68.757813 10.355469,102.339844 6.742187,32.945313 16.800781,65.355464 29.902344,96.328124"
             fill-opacity="1"
             fill-rule="nonzero"
             id="path146" />
        </g>
        <g
           clip-path="url(#acc556a05b)"
           id="g148">
          <path
             fill="#1c6793"
             d="m 192.35156,109.13281 c 9.35938,22.13281 20.9336,43.45703 34.39453,63.38281 13.28125,19.66016 28.52344,38.13672 45.3086,54.91797 16.78125,16.78516 35.25781,32.02735 54.91797,45.3086 19.92578,13.46093 41.25,25.03515 63.3789,34.39453 22.60938,9.5625 46.26563,16.90625 70.3125,21.82422 24.52344,5.01953 49.67578,7.5625 74.75391,7.5625 v -2.8086 c -24.89063,0 -49.85156,-2.52734 -74.19141,-7.5039 -23.86719,-4.88672 -47.34375,-12.17188 -69.77734,-21.66407 -21.96485,-9.28906 -43.12891,-20.77343 -62.90235,-34.13281 -19.51171,-13.17969 -37.85156,-28.30859 -54.50781,-44.96484 -16.65625,-16.65625 -31.78515,-34.9961 -44.96484,-54.50781 -13.35938,-19.77344 -24.84375,-40.9375 -34.13281,-62.90235 -9.49219,-22.433591 -16.77735,-45.91406 -21.66407,-69.781248 -4.98047,-24.335937 -7.5039,-49.296874 -7.5039,-74.1875 h -2.8086 c 0,25.078126 2.54297,50.230469 7.5625,74.753907 4.91797,24.046875 12.26172,47.703125 21.82422,70.308591"
             fill-opacity="1"
             fill-rule="nonzero"
             id="path147" />
        </g>
        <g
           clip-path="url(#2dba4d9e0f)"
           id="g149">
          <path
             fill="#1c6793"
             d="m 215.37891,99.394531 c 8.73046,20.644529 19.52734,40.539059 32.08203,59.124999 12.39453,18.34375 26.61328,35.58203 42.27343,51.23828 15.65235,15.65235 32.89063,29.875 51.23438,42.26563 18.58594,12.55859 38.48047,23.35547 59.125,32.08593 21.08594,8.91797 43.15234,15.76954 65.58203,20.35938 22.87891,4.68359 46.34375,7.05469 69.74219,7.05469 v -3.24219 c -23.1836,0 -46.42578,-2.35156 -69.08985,-6.98828 -22.22265,-4.54688 -44.08203,-11.33203 -64.97265,-20.16797 -20.45313,-8.65234 -40.16016,-19.34375 -58.57422,-31.78516 -18.16797,-12.27734 -35.24609,-26.36718 -50.75781,-41.875 -15.50782,-15.51172 -29.59766,-32.58984 -41.875,-50.76172 -12.44141,-18.41406 -23.13282,-38.12109 -31.78516,-58.570308 -8.83594,-20.890624 -15.62109,-42.75 -20.16797,-64.972656 -4.63672,-22.664062 -6.98828,-45.910156 -6.98828,-69.089844 h -3.24219 c 0,23.398438 2.375,46.863282 7.05469,69.738282 4.58984,22.433594 11.44141,44.5 20.35938,65.585937"
             fill-opacity="1"
             fill-rule="nonzero"
             id="path148" />
        </g>
        <g
           clip-path="url(#eac88cfa59)"
           id="g150">
          <path
             fill="#1c6793"
             d="m 146.30078,128.60937 c 10.61719,25.10938 23.74609,49.29688 39.01172,71.89844 15.0625,22.29688 32.35156,43.25 51.38672,62.28516 19.03125,19.03125 39.98828,36.3164 62.28125,51.38281 22.60156,15.26563 46.78906,28.39453 71.89453,39.00781 25.64844,10.85157 52.48437,19.17969 79.76562,24.76172 27.8125,5.69141 56.33594,8.58203 84.77735,8.58203 v -1.94922 c -28.3086,0 -56.70313,-2.87109 -84.38672,-8.53515 -27.15625,-5.5586 -53.87109,-13.85156 -79.39844,-24.64844 -24.98828,-10.57031 -49.0664,-23.63281 -71.5625,-38.83203 -22.19531,-14.99219 -43.05469,-32.19922 -62,-51.14453 -18.9414,-18.94922 -36.15234,-39.80469 -51.14453,-62 -15.19922,-22.4961 -28.26172,-46.57422 -38.83594,-71.5625 -10.79297,-25.52734 -19.08593,-52.242189 -24.64453,-79.398439 -5.66406,-27.6875 -8.53515,-56.078125 -8.53515,-84.386719 h -1.94922 c 0,28.441407 2.88672,56.960938 8.57812,84.777344 5.58594,27.28125 13.91406,54.117184 24.76172,79.761714"
             fill-opacity="1"
             fill-rule="nonzero"
             id="path149" />
        </g>
        <g
           clip-path="url(#1fd3ca5858)"
           id="g151">
          <path
             fill="#1c6793"
             d="m 226.89062,94.523438 c 8.41797,19.902342 18.82422,39.078122 30.92969,57.000002 11.94531,17.67968 25.65625,34.30078 40.75,49.39453 15.09375,15.09375 31.71485,28.80469 49.39453,40.75 17.91797,12.10547 37.09766,22.51172 56.9961,30.92969 20.32812,8.59765 41.59765,15.19921 63.22265,19.625 22.05469,4.51171 44.67578,6.80078 67.23438,6.80078 v -3.46094 c -22.32813,0 -44.71485,-2.26172 -66.54297,-6.73047 -21.39844,-4.375 -42.44922,-10.91406 -62.56641,-19.42187 -19.69531,-8.32813 -38.67187,-18.62891 -56.40625,-30.60547 -17.5,-11.82422 -33.94922,-25.39453 -48.88672,-40.33203 -14.9375,-14.9375 -28.50781,-31.38672 -40.32812,-48.88672 C 248.70312,131.85156 238.40625,112.875 230.07812,93.179688 221.57031,73.0625 215.03125,52.011719 210.65625,30.613281 206.1875,8.785156 203.92187,-13.601562 203.92187,-35.929688 h -3.45703 c 0,22.558594 2.28907,45.179688 6.80078,67.234376 4.42579,21.625 11.02735,42.894531 19.625,63.21875"
             fill-opacity="1"
             fill-rule="nonzero"
             id="path150" />
        </g>
        <g
           clip-path="url(#a9b9aa32cc)"
           id="g152">
          <path
             fill="#1c6793"
             d="m 203.86719,104.26563 c 9.04297,21.38671 20.22656,41.99609 33.23828,61.24999 12.83594,19.00391 27.5664,36.85938 43.78906,53.07813 16.21875,16.22266 34.07422,30.95312 53.07422,43.78906 19.25781,13.01172 39.86719,24.19141 61.25391,33.23828 21.84765,9.24219 44.70703,16.33985 67.94921,21.09375 23.69922,4.85157 48.00782,7.3086 72.2461,7.3086 v -3.02735 c -24.03516,0 -48.14063,-2.4375 -71.64063,-7.24609 -23.04297,-4.71484 -45.71093,-11.75391 -67.375,-20.91406 -21.20703,-8.97266 -41.64453,-20.0625 -60.73828,-32.96094 -18.83984,-12.72656 -36.54687,-27.33594 -52.6289,-43.41797 -16.08594,-16.08203 -30.69532,-33.79297 -43.42188,-52.63281 -12.89844,-19.09375 -23.99219,-39.53125 -32.96094,-60.73828 -9.16015,-21.664065 -16.19922,-44.332034 -20.91406,-67.375002 -4.80859,-23.5 -7.25,-47.605469 -7.25,-71.640626 h -3.02344 c 0,24.238282 2.45703,48.546876 7.3086,72.246094 4.7539,23.242188 11.85156,46.101563 21.09375,67.949224"
             fill-opacity="1"
             fill-rule="nonzero"
             id="path151" />
        </g>
        <g
           clip-path="url(#6a5a65bdb8)"
           id="g153">
          <path
             fill="#1c6793"
             d="m 157.8125,123.74219 c 10.30469,24.36328 23.04297,47.83593 37.85937,69.76562 14.61719,21.63672 31.39454,41.97656 49.86329,60.44531 18.46875,18.46875 38.80859,35.2461 60.44531,49.86329 21.92969,14.8164 45.40234,27.55468 69.76562,37.85937 24.88672,10.52344 50.92578,18.60547 77.40235,24.02344 26.98828,5.52344 54.66797,8.32812 82.26953,8.32812 v -2.16406 c -27.45313,0 -54.98828,-2.78516 -81.83594,-8.28125 -26.33594,-5.38672 -52.23828,-13.42969 -76.99609,-23.89844 -24.23047,-10.25 -47.58203,-22.91797 -69.39453,-37.65625 -21.52735,-14.54297 -41.75391,-31.23047 -60.125,-49.60156 -18.375,-18.375 -35.0625,-38.60156 -49.60157,-60.12891 -14.73828,-21.8125 -27.41015,-45.16406 -37.66015,-69.39843 -10.46875,-24.753909 -18.51172,-50.656252 -23.89844,-76.99219 -5.49609,-26.847656 -8.28516,-54.382812 -8.28516,-81.835938 h -2.16015 c 0,27.597657 2.80468,55.28125 8.32812,82.269532 5.41406,26.472656 13.5,52.515625 24.02344,77.402346"
             fill-opacity="1"
             fill-rule="nonzero"
             id="path152" />
        </g>
        <g
           clip-path="url(#4c078e43d4)"
           id="g154">
          <path
             fill="#1c6793"
             d="m 180.83984,114.00391 c 9.67578,22.875 21.63282,44.91406 35.54688,65.51171 13.72656,20.31641 29.48437,39.41407 46.82812,56.75782 17.34375,17.34375 36.44141,33.09765 56.76172,46.82812 20.59375,13.91016 42.63281,25.8711 65.50781,35.54688 23.36329,9.88281 47.81641,17.47656 72.67579,22.55859 25.34375,5.1875 51.33593,7.81641 77.25781,7.81641 v -2.58985 c -25.7461,0 -51.56641,-2.61328 -76.73828,-7.76562 -24.69141,-5.05469 -48.97657,-12.58985 -72.1875,-22.41016 -22.71875,-9.60937 -44.60938,-21.48828 -65.06641,-35.30469 -20.18359,-13.63671 -39.14844,-29.28515 -56.37891,-46.51171 -17.22656,-17.23047 -32.875,-36.19532 -46.51171,-56.37891 -13.81641,-20.45703 -25.69532,-42.34766 -35.30469,-65.07031 -9.82031,-23.207034 -17.35938,-47.496096 -22.41016,-72.183596 -5.15234,-25.175782 -7.76562,-50.992188 -7.76562,-76.738282 h -2.59375 c 0,25.917969 2.63281,51.914063 7.82031,77.257813 5.08203,24.859375 12.67578,49.308594 22.55859,72.675785"
             fill-opacity="1"
             fill-rule="nonzero"
             id="path153" />
        </g>
        <g
           clip-path="url(#d08fd7683b)"
           id="g155">
          <path
             fill="#1c6793"
             d="m 169.32812,118.87109 c 9.98829,23.6211 22.33594,46.375 36.70313,67.64063 14.17187,20.97656 30.4375,40.69531 48.34375,58.60156 17.91016,17.90625 37.625,34.17188 58.60156,48.34375 21.26172,14.36719 44.01953,26.71484 67.63672,36.70313 24.12891,10.20703 49.375,18.04296 75.03906,23.29296 26.16797,5.35547 53.00391,8.07032 79.76563,8.07032 v -2.37891 c -26.60156,0 -53.27735,-2.69922 -79.28906,-8.01953 -25.51172,-5.22266 -50.60547,-13.01172 -74.58985,-23.15625 -23.47656,-9.92969 -46.09375,-22.19922 -67.23047,-36.48438 -20.85156,-14.08593 -40.45312,-30.2539 -58.25,-48.05468 C 238.25781,225.62891 222.08594,206.03125 208,185.17969 193.72266,164.04297 181.44922,141.42187 171.51562,117.94531 161.37109,93.964844 153.58594,68.871094 148.36328,43.359375 143.03906,17.34375 140.33984,-9.332031 140.33984,-35.929688 h -2.375 c 0,26.757813 2.71485,53.597657 8.07032,79.765626 5.25,25.664062 13.08593,50.910156 23.29296,75.035152"
             fill-opacity="1"
             fill-rule="nonzero"
             id="path154" />
        </g>
      </g>
    </g>
  </g>
</svg>
