<?xml version="1.0" encoding="UTF-8" standalone="no"?>
<svg
   width="1920"
   zoomAndPan="magnify"
   viewBox="0 0 1440 809.99999"
   height="1080"
   preserveAspectRatio="xMidYMid"
   version="1.0"
   id="svg148"
   xmlns="http://www.w3.org/2000/svg"
   xmlns:svg="http://www.w3.org/2000/svg">
  <defs
     id="defs69">
    <filter
       x="0"
       y="0"
       width="1"
       height="1"
       id="759b4a9586">
      <feColorMatrix
         values="0 0 0 0 1 0 0 0 0 1 0 0 0 0 1 0 0 0 1 0"
         color-interpolation-filters="sRGB"
         id="feColorMatrix1" />
    </filter>
    <mask
       id="28a0018d65">
      <g
         filter="url(#759b4a9586)"
         id="g3">
        <rect
           x="-144"
           width="1728"
           fill="#000000"
           y="-81"
           height="972"
           fill-opacity="0.5"
           id="rect3" />
      </g>
    </mask>
    <clipPath
       id="fa502729f2">
      <path
         d="M 0,0 H 51 V 78 H 0 Z m 0,0"
         clip-rule="nonzero"
         id="path3" />
    </clipPath>
    <clipPath
       id="b78bf82091">
      <path
         d="M 0,0 H 63 V 90 H 0 Z m 0,0"
         clip-rule="nonzero"
         id="path4" />
    </clipPath>
    <clipPath
       id="62b9a6e6f9">
      <path
         d="M 0,0 H 76 V 103 H 0 Z m 0,0"
         clip-rule="nonzero"
         id="path5" />
    </clipPath>
    <clipPath
       id="48e6282b7b">
      <path
         d="M 0,0 H 38 V 65 H 0 Z m 0,0"
         clip-rule="nonzero"
         id="path6" />
    </clipPath>
    <clipPath
       id="980fe06844">
      <path
         d="M 0,0 H 88 V 115 H 0 Z m 0,0"
         clip-rule="nonzero"
         id="path7" />
    </clipPath>
    <clipPath
       id="196f911698">
      <path
         d="M 0,0 H 113 V 140 H 0 Z m 0,0"
         clip-rule="nonzero"
         id="path8" />
    </clipPath>
    <clipPath
       id="f192a4ed9c">
      <path
         d="M 0,0 H 126 V 153 H 0 Z m 0,0"
         clip-rule="nonzero"
         id="path9" />
    </clipPath>
    <clipPath
       id="e20bc4fb04">
      <path
         d="M 0,0 H 101 V 128 H 0 Z m 0,0"
         clip-rule="nonzero"
         id="path10" />
    </clipPath>
    <clipPath
       id="20e1de2ba4">
      <path
         d="M 0,0 H 26 V 53 H 0 Z m 0,0"
         clip-rule="nonzero"
         id="path11" />
    </clipPath>
    <clipPath
       id="c5bbc2fc90">
      <path
         d="M 0,0 H 13 V 40 H 0 Z m 0,0"
         clip-rule="nonzero"
         id="path12" />
    </clipPath>
    <clipPath
       id="57b95c0bbe">
      <path
         d="M 0,0 H 138 V 165 H 0 Z m 0,0"
         clip-rule="nonzero"
         id="path13" />
    </clipPath>
    <clipPath
       id="79db377413">
      <path
         d="M 0,0 H 1 V 28 H 0 Z m 0,0"
         clip-rule="nonzero"
         id="path14" />
    </clipPath>
    <clipPath
       id="0f28cf70ac">
      <path
         d="M 0,0 H 301 V 328 H 0 Z m 0,0"
         clip-rule="nonzero"
         id="path15" />
    </clipPath>
    <clipPath
       id="ffbfb00b4b">
      <path
         d="M 0,0 H 288 V 315 H 0 Z m 0,0"
         clip-rule="nonzero"
         id="path16" />
    </clipPath>
    <clipPath
       id="e1df207cca">
      <path
         d="M 0,0 H 276 V 303 H 0 Z m 0,0"
         clip-rule="nonzero"
         id="path17" />
    </clipPath>
    <clipPath
       id="d3286fc89f">
      <path
         d="M 0,0 H 313 V 340 H 0 Z m 0,0"
         clip-rule="nonzero"
         id="path18" />
    </clipPath>
    <clipPath
       id="2bceb88f22">
      <path
         d="M 0,0 H 362.54297 V 389.57031 H 0 Z m 0,0"
         clip-rule="nonzero"
         id="path19" />
    </clipPath>
    <clipPath
       id="48ef34f3b2">
      <path
         d="M 0,0 H 351 V 378 H 0 Z m 0,0"
         clip-rule="nonzero"
         id="path20" />
    </clipPath>
    <clipPath
       id="c1e64178a4">
      <path
         d="M 0,0 H 326 V 353 H 0 Z m 0,0"
         clip-rule="nonzero"
         id="path21" />
    </clipPath>
    <clipPath
       id="b10646543a">
      <path
         d="M 0,0 H 263 V 290 H 0 Z m 0,0"
         clip-rule="nonzero"
         id="path22" />
    </clipPath>
    <clipPath
       id="ec701d3f02">
      <path
         d="M 0,0 H 151 V 178 H 0 Z m 0,0"
         clip-rule="nonzero"
         id="path23" />
    </clipPath>
    <clipPath
       id="d7ad3058cb">
      <path
         d="M 0,0 H 338 V 365 H 0 Z m 0,0"
         clip-rule="nonzero"
         id="path24" />
    </clipPath>
    <clipPath
       id="1974761047">
      <path
         d="M 0,0 H 201 V 228 H 0 Z m 0,0"
         clip-rule="nonzero"
         id="path25" />
    </clipPath>
    <clipPath
       id="c2212f719b">
      <path
         d="M 0,0 H 176 V 203 H 0 Z m 0,0"
         clip-rule="nonzero"
         id="path26" />
    </clipPath>
    <clipPath
       id="80dff05b2b">
      <path
         d="M 0,0 H 251 V 278 H 0 Z m 0,0"
         clip-rule="nonzero"
         id="path27" />
    </clipPath>
    <clipPath
       id="1d995a7721">
      <path
         d="M 0,0 H 163 V 190 H 0 Z m 0,0"
         clip-rule="nonzero"
         id="path28" />
    </clipPath>
    <clipPath
       id="4de1b610e3">
      <path
         d="M 0,0 H 188 V 215 H 0 Z m 0,0"
         clip-rule="nonzero"
         id="path29" />
    </clipPath>
    <clipPath
       id="4fcb980fba">
      <path
         d="M 0,0 H 238 V 265 H 0 Z m 0,0"
         clip-rule="nonzero"
         id="path30" />
    </clipPath>
    <clipPath
       id="1834a9841c">
      <path
         d="M 0,0 H 213 V 240 H 0 Z m 0,0"
         clip-rule="nonzero"
         id="path31" />
    </clipPath>
    <clipPath
       id="57cccd8199">
      <path
         d="M 0,0 H 226 V 253 H 0 Z m 0,0"
         clip-rule="nonzero"
         id="path32" />
    </clipPath>
    <clipPath
       id="21c106e7a5">
      <rect
         x="0"
         width="364"
         y="0"
         height="390"
         id="rect32" />
    </clipPath>
    <mask
       id="beb3745f99">
      <g
         filter="url(#759b4a9586)"
         id="g33">
        <rect
           x="-144"
           width="1728"
           fill="#000000"
           y="-81"
           height="972"
           fill-opacity="0.5"
           id="rect33" />
      </g>
    </mask>
    <clipPath
       id="2263cc39d0">
      <path
         d="M 313,313 H 515 V 478 H 313 Z m 0,0"
         clip-rule="nonzero"
         id="path33" />
    </clipPath>
    <clipPath
       id="b03dfe0439">
      <path
         d="M 300,300 H 515 V 478 H 300 Z m 0,0"
         clip-rule="nonzero"
         id="path34" />
    </clipPath>
    <clipPath
       id="e78e3a3637">
      <path
         d="M 288,288 H 515 V 478 H 288 Z m 0,0"
         clip-rule="nonzero"
         id="path35" />
    </clipPath>
    <clipPath
       id="2331c7ae89">
      <path
         d="M 325,325 H 515 V 478 H 325 Z m 0,0"
         clip-rule="nonzero"
         id="path36" />
    </clipPath>
    <clipPath
       id="f4816cc851">
      <path
         d="M 275,275 H 515 V 478 H 275 Z m 0,0"
         clip-rule="nonzero"
         id="path37" />
    </clipPath>
    <clipPath
       id="4b8e4a43a6">
      <path
         d="M 250,250 H 515 V 478 H 250 Z m 0,0"
         clip-rule="nonzero"
         id="path38" />
    </clipPath>
    <clipPath
       id="4caea4cb6d">
      <path
         d="M 238,238 H 515 V 478 H 238 Z m 0,0"
         clip-rule="nonzero"
         id="path39" />
    </clipPath>
    <clipPath
       id="68e0f96f61">
      <path
         d="M 263,263 H 515 V 478 H 263 Z m 0,0"
         clip-rule="nonzero"
         id="path40" />
    </clipPath>
    <clipPath
       id="324829f714">
      <path
         d="M 338,338 H 515 V 478 H 338 Z m 0,0"
         clip-rule="nonzero"
         id="path41" />
    </clipPath>
    <clipPath
       id="b7284c604f">
      <path
         d="M 350,350 H 515 V 478 H 350 Z m 0,0"
         clip-rule="nonzero"
         id="path42" />
    </clipPath>
    <clipPath
       id="a00e92db67">
      <path
         d="m 425,425 h 90 v 53 h -90 z m 0,0"
         clip-rule="nonzero"
         id="path43" />
    </clipPath>
    <clipPath
       id="b5c7f68b2d">
      <path
         d="m 413,413 h 102 v 65 H 413 Z m 0,0"
         clip-rule="nonzero"
         id="path44" />
    </clipPath>
    <clipPath
       id="f4c067e5be">
      <path
         d="m 400,400 h 115 v 78 H 400 Z m 0,0"
         clip-rule="nonzero"
         id="path45" />
    </clipPath>
    <clipPath
       id="b7c0e09faf">
      <path
         d="M 225,225 H 515 V 478 H 225 Z m 0,0"
         clip-rule="nonzero"
         id="path46" />
    </clipPath>
    <clipPath
       id="feb31ea743">
      <path
         d="m 450,450 h 65 v 28 h -65 z m 0,0"
         clip-rule="nonzero"
         id="path47" />
    </clipPath>
    <clipPath
       id="d0a7f3912f">
      <path
         d="m 388,388 h 127 v 90 H 388 Z m 0,0"
         clip-rule="nonzero"
         id="path48" />
    </clipPath>
    <clipPath
       id="e723adc8e3">
      <path
         d="M 363,363 H 515 V 478 H 363 Z m 0,0"
         clip-rule="nonzero"
         id="path49" />
    </clipPath>
    <clipPath
       id="e012af0ac9">
      <path
         d="M 375,375 H 515 V 478 H 375 Z m 0,0"
         clip-rule="nonzero"
         id="path50" />
    </clipPath>
    <clipPath
       id="4e5851b22e">
      <path
         d="m 438,438 h 77 v 40 h -77 z m 0,0"
         clip-rule="nonzero"
         id="path51" />
    </clipPath>
    <clipPath
       id="99067f06d1">
      <path
         d="M 63,63 H 515 V 478 H 63 Z m 0,0"
         clip-rule="nonzero"
         id="path52" />
    </clipPath>
    <clipPath
       id="11febb69fa">
      <path
         d="M 75,75 H 515 V 478 H 75 Z m 0,0"
         clip-rule="nonzero"
         id="path53" />
    </clipPath>
    <clipPath
       id="867e332f08">
      <path
         d="M 88,88 H 515 V 478 H 88 Z m 0,0"
         clip-rule="nonzero"
         id="path54" />
    </clipPath>
    <clipPath
       id="199f86aa62">
      <path
         d="M 50,50 H 515 V 478 H 50 Z m 0,0"
         clip-rule="nonzero"
         id="path55" />
    </clipPath>
    <clipPath
       id="2adef45221">
      <path
         d="M 0.953125,0.554688 H 515 V 478 H 0.953125 Z m 0,0"
         clip-rule="nonzero"
         id="path56" />
    </clipPath>
    <clipPath
       id="f89163549f">
      <path
         d="M 13,13 H 515 V 478 H 13 Z m 0,0"
         clip-rule="nonzero"
         id="path57" />
    </clipPath>
    <clipPath
       id="cfa7bae835">
      <path
         d="M 38,38 H 515 V 478 H 38 Z m 0,0"
         clip-rule="nonzero"
         id="path58" />
    </clipPath>
    <clipPath
       id="521111f13c">
      <path
         d="M 100,100 H 515 V 478 H 100 Z m 0,0"
         clip-rule="nonzero"
         id="path59" />
    </clipPath>
    <clipPath
       id="8bfa5fadd6">
      <path
         d="M 213,213 H 515 V 478 H 213 Z m 0,0"
         clip-rule="nonzero"
         id="path60" />
    </clipPath>
    <clipPath
       id="ec33675d0c">
      <path
         d="M 25,25 H 515 V 478 H 25 Z m 0,0"
         clip-rule="nonzero"
         id="path61" />
    </clipPath>
    <clipPath
       id="543bddce72">
      <path
         d="M 163,163 H 515 V 478 H 163 Z m 0,0"
         clip-rule="nonzero"
         id="path62" />
    </clipPath>
    <clipPath
       id="92cf3626f2">
      <path
         d="M 188,188 H 515 V 478 H 188 Z m 0,0"
         clip-rule="nonzero"
         id="path63" />
    </clipPath>
    <clipPath
       id="959a07bdce">
      <path
         d="M 113,113 H 515 V 478 H 113 Z m 0,0"
         clip-rule="nonzero"
         id="path64" />
    </clipPath>
    <clipPath
       id="15f7aaaa68">
      <path
         d="M 200,200 H 515 V 478 H 200 Z m 0,0"
         clip-rule="nonzero"
         id="path65" />
    </clipPath>
    <clipPath
       id="761a41b235">
      <path
         d="M 175,175 H 515 V 478 H 175 Z m 0,0"
         clip-rule="nonzero"
         id="path66" />
    </clipPath>
    <clipPath
       id="8e15cd68d3">
      <path
         d="M 125,125 H 515 V 478 H 125 Z m 0,0"
         clip-rule="nonzero"
         id="path67" />
    </clipPath>
    <clipPath
       id="227cd15096">
      <path
         d="M 150,150 H 515 V 478 H 150 Z m 0,0"
         clip-rule="nonzero"
         id="path68" />
    </clipPath>
    <clipPath
       id="3a9aaf0527">
      <path
         d="M 138,138 H 515 V 478 H 138 Z m 0,0"
         clip-rule="nonzero"
         id="path69" />
    </clipPath>
    <clipPath
       id="5355bc6ce8">
      <rect
         x="0"
         width="515"
         y="0"
         height="478"
         id="rect69" />
    </clipPath>
  </defs>
  <rect
     x="-144"
     width="1728"
     fill="#ffffff"
     y="-81"
     height="972"
     fill-opacity="1"
     id="rect70" />
  <g
     mask="url(#28a0018d65)"
     id="g108">
    <g
       id="g107">
      <g
         clip-path="url(#21c106e7a5)"
         id="g106">
        <g
           clip-path="url(#fa502729f2)"
           id="g76">
          <path
             fill="#1c6793"
             d="m 32.703125,-58.550781 c -5.589844,13.214843 -12.496094,25.945312 -20.535156,37.84375 -7.9375,11.746093 -17.046875,22.789062 -27.078125,32.820312 -10.03125,10.035157 -21.078125,19.144531 -32.824219,27.082031 -11.898437,8.039063 -24.632813,14.945313 -37.84375,20.535157 -13.484375,5.703125 -27.597655,10.085937 -41.949215,13.023437 -14.64844,2.996094 -29.67969,4.515625 -44.67969,4.515625 v -5.40625 c 14.63672,0 29.30469,-1.480469 43.59766,-4.40625 13.99999,-2.863281 27.76953,-7.140625 40.929682,-12.703125 12.886719,-5.453125 25.3125,-12.195312 36.917969,-20.035156 11.464844,-7.746094 22.242188,-16.636719 32.027344,-26.425781 9.789063,-9.789063 18.6796875,-20.5625 26.425781,-32.027344 7.84375,-11.609375 14.582032,-24.03125 20.035156,-36.921875 5.566407,-13.15625 9.839844,-26.929688 12.707032,-40.92578 2.921875,-14.29297 4.40625,-28.96094 4.40625,-43.59766 h 5.402344 c 0,15 -1.519532,30.03125 -4.515626,44.67969 -2.9375,14.347656 -7.320312,28.460938 -13.023437,41.949219"
             fill-opacity="1"
             fill-rule="nonzero"
             id="path75" />
        </g>
        <g
           clip-path="url(#b78bf82091)"
           id="g77">
          <path
             fill="#1c6793"
             d="m 44.214844,-53.679688 c -5.902344,13.953126 -13.199219,27.402344 -21.6875,39.96875 -8.382813,12.410157 -18.003906,24.070313 -28.601563,34.664063 -10.589843,10.59375 -22.253906,20.21875 -34.664062,28.601563 -12.566407,8.488281 -26.015625,15.785156 -39.96875,21.6875 C -94.953125,77.269531 -109.86328,81.898438 -125.01953,85 c -15.47266,3.164062 -31.34766,4.769531 -47.1875,4.769531 v -5.1875 c 15.49219,0 31.01953,-1.570312 46.14844,-4.664062 14.82031,-3.035157 29.398434,-7.558594 43.332028,-13.453125 13.644531,-5.769532 26.796874,-12.90625 39.085937,-21.210938 12.132813,-8.195312 23.539063,-17.609375 33.902344,-27.96875 C 0.621094,6.925781 10.027344,-4.480469 18.226562,-16.613281 26.53125,-28.90625 33.667969,-42.054688 39.441406,-55.699219 c 5.890625,-13.933593 10.414063,-28.511719 13.449219,-43.332031 3.09375,-15.13281 4.664063,-30.65625 4.664063,-46.14844 h 5.1875 c 0,15.83985 -1.605469,31.71485 -4.769532,47.187502 -3.101562,15.15625 -7.730468,30.0625 -13.757812,44.3125"
             fill-opacity="1"
             fill-rule="nonzero"
             id="path76" />
        </g>
        <g
           clip-path="url(#62b9a6e6f9)"
           id="g78">
          <path
             fill="#1c6793"
             d="m 55.730469,-48.8125 c -6.21875,14.699219 -13.902344,28.863281 -22.84375,42.101562 -8.832031,13.066407 -18.960938,25.347657 -30.121094,36.503907 -11.15625,11.15625 -23.4375,21.289062 -36.503906,30.117187 -13.238281,8.945313 -27.402344,16.628906 -42.097657,22.84375 -15.007812,6.347656 -30.714842,11.222656 -46.675782,14.492188 -16.29687,3.335936 -33.01562,5.023436 -49.69531,5.023436 v -4.972655 c 16.34766,0 32.73047,-1.65625 48.69531,-4.921875 15.64453,-3.199219 31.031251,-7.976562 45.738282,-14.199219 14.402344,-6.089843 28.28125,-13.621093 41.25,-22.382812 C -23.71875,47.140625 -11.683594,37.210938 -0.75,26.277344 10.183594,15.34375 20.113281,3.308594 28.765625,-9.496094 c 8.761719,-12.96875 16.292969,-26.847656 22.386719,-41.25 6.21875,-14.707031 10.996094,-30.09375 14.195312,-45.738281 3.265625,-15.964845 4.921875,-32.351565 4.921875,-48.695315 h 4.972657 c 0,16.67969 -1.6875,33.39844 -5.023438,49.691409 -3.265625,15.964843 -8.140625,31.671875 -14.488281,46.675781"
             fill-opacity="1"
             fill-rule="nonzero"
             id="path77" />
        </g>
        <g
           clip-path="url(#48e6282b7b)"
           id="g79">
          <path
             fill="#1c6793"
             d="M 21.191406,-63.421875 C 15.914062,-50.953125 9.394531,-38.9375 1.808594,-27.707031 -5.683594,-16.617188 -14.28125,-6.195312 -23.75,3.273438 c -9.46875,9.472656 -19.894531,18.070312 -30.984375,25.5625 -11.226563,7.585937 -23.242187,14.105468 -35.710937,19.378906 -12.730468,5.382812 -26.046878,9.519531 -39.585938,12.289062 -13.82812,2.828125 -28.01562,4.265625 -42.17578,4.265625 v -5.621093 c 13.78125,0 27.59375,-1.394532 41.04687,-4.148438 13.17578,-2.699219 26.13672,-6.71875 38.523441,-11.960938 12.132813,-5.132812 23.828125,-11.476562 34.757813,-18.859374 10.792968,-7.292969 20.9375,-15.664063 30.152344,-24.878907 9.21875,-9.214843 17.585937,-19.359375 24.878906,-30.152343 7.382812,-10.929688 13.726562,-22.625 18.859375,-34.757813 5.242187,-12.386719 9.265625,-25.347656 11.960937,-38.523435 2.753906,-13.45703 4.148438,-27.26563 4.148438,-41.04688 h 5.621094 c 0,14.15625 -1.4375,28.34766 -4.265626,42.17578 -2.769531,13.539066 -6.902343,26.855472 -12.285156,39.582035"
             fill-opacity="1"
             fill-rule="nonzero"
             id="path78" />
        </g>
        <g
           clip-path="url(#980fe06844)"
           id="g80">
          <path
             fill="#1c6793"
             d="m 67.242188,-43.941406 c -6.53125,15.441406 -14.605469,30.320312 -24,44.226562 -9.273438,13.726563 -19.917969,26.628906 -31.636719,38.347656 -11.71875,11.71875 -24.621094,22.363282 -38.347657,31.636719 -13.90625,9.394531 -28.785156,17.46875 -44.226562,24 -15.765625,6.667969 -32.26563,11.789059 -49.03906,15.222659 -17.11719,3.5 -34.67969,5.27734 -52.19922,5.27734 v -4.7539 c 17.19922,0 34.44141,-1.7461 51.24609,-5.1836 16.46485,-3.36719 32.664065,-8.398436 48.140628,-14.945311 15.15625,-6.410157 29.765624,-14.335938 43.417968,-23.558594 C -15.929688,57.226562 -3.261719,46.773438 8.242188,35.269531 19.746094,23.765625 30.199219,11.097656 39.300781,-2.378906 c 9.222657,-13.648438 17.148438,-28.257813 23.5625,-43.414063 6.542969,-15.476562 11.574219,-31.675781 14.941407,-48.140625 3.441406,-16.804686 5.183593,-34.046876 5.183593,-51.246096 h 4.753907 c 0,17.51953 -1.773438,35.08203 -5.277344,52.199221 -3.433594,16.773438 -8.554688,33.273438 -15.222656,49.039063"
             fill-opacity="1"
             fill-rule="nonzero"
             id="path79" />
        </g>
        <g
           clip-path="url(#196f911698)"
           id="g81">
          <path
             fill="#1c6793"
             d="M 90.269531,-34.203125 C 83.105469,-17.273438 74.257812,-0.960938 63.957031,14.28125 53.792969,29.324219 42.128906,43.464844 29.285156,56.3125 16.4375,69.152344 2.300781,80.820312 -12.746094,90.984375 c -15.242187,10.296875 -31.554687,19.148435 -48.484375,26.308595 -17.285156,7.3125 -35.375,12.92969 -53.765621,16.6914 -18.76172,3.83985 -38.01172,5.78516 -57.21094,5.78516 v -4.32031 c 18.91016,0 37.86719,-1.91797 56.34375,-5.69922 18.11328,-3.70703 35.92578,-9.23437 52.949218,-16.4375 16.671874,-7.05078 32.738281,-15.769531 47.75,-25.910156 14.816406,-10.011719 28.742187,-21.5 41.390624,-34.148438 C 38.875,40.605469 50.367188,26.679688 60.375,11.859375 70.515625,-3.152344 79.234375,-19.214844 86.285156,-35.886719 c 7.203125,-17.023437 12.730469,-34.839843 16.437504,-52.949219 3.78125,-18.476562 5.69922,-37.437502 5.69922,-56.343752 h 4.32031 c 0,19.19922 -1.94531,38.44922 -5.78516,57.21094 -3.76172,18.390625 -9.378905,36.480469 -16.687499,53.765625"
             fill-opacity="1"
             fill-rule="nonzero"
             id="path80" />
        </g>
        <g
           clip-path="url(#f192a4ed9c)"
           id="g82">
          <path
             fill="#1c6793"
             d="M 101.78125,-29.332031 C 94.308594,-11.664062 85.066406,5.367188 74.316406,21.277344 63.707031,36.984375 51.53125,51.742188 38.121094,65.148438 24.714844,78.558594 9.957031,90.734375 -5.746094,101.34375 c -15.914062,10.75 -32.941406,19.98828 -50.613281,27.46484 -18.046875,7.63282 -36.929687,13.4961 -56.128905,17.42188 -19.58594,4.00781 -39.67969,6.04297 -59.71875,6.04297 v -4.10547 c 19.76562,0 39.57812,-2.00781 58.89453,-5.96094 18.933594,-3.875 37.554688,-9.65625 55.351562,-17.18359 17.429688,-7.36719 34.222657,-16.48438 49.914063,-27.082034 C 7.441406,87.480469 21.996094,75.46875 35.21875,62.246094 48.441406,49.023438 60.449219,34.46875 70.914062,18.980469 81.515625,3.289062 90.628906,-13.503906 98,-30.933594 c 7.52734,-17.796875 13.30859,-36.417968 17.17969,-55.351562 3.95312,-19.316404 5.96094,-39.132814 5.96094,-58.894534 h 4.10546 c 0,20.03906 -2.03515,40.13281 -6.03906,59.714846 -3.92969,19.199219 -9.79297,38.085938 -17.42578,56.132813"
             fill-opacity="1"
             fill-rule="nonzero"
             id="path81" />
        </g>
        <g
           clip-path="url(#e20bc4fb04)"
           id="g83">
          <path
             fill="#1c6793"
             d="m 78.753906,-39.074219 c -6.84375,16.1875 -15.308594,31.78125 -25.152344,46.355469 -9.71875,14.386719 -20.878906,27.910156 -33.15625,40.1875 -12.28125,12.285156 -25.804687,23.4375 -40.1875,33.160156 -14.574218,9.84375 -30.171874,18.308594 -46.355468,25.152344 -16.527344,6.99219 -33.820313,12.35938 -51.406254,15.95703 -17.9375,3.67188 -36.34375,5.53125 -54.70312,5.53125 v -4.53906 c 18.05469,0 36.15625,-1.83203 53.79687,-5.4375 17.28907,-3.53906 34.292972,-8.82031 50.542972,-15.69141 15.914063,-6.734372 31.25,-15.054685 45.582032,-24.738279 C -8.136719,67.308594 5.15625,56.339844 17.234375,44.261719 29.3125,32.183594 40.28125,18.886719 49.839844,4.742188 59.523438,-9.589844 67.84375,-24.925781 74.574219,-40.839844 c 6.875,-16.25 12.152343,-33.257812 15.691406,-50.546875 3.609375,-17.640621 5.4375,-35.738281 5.4375,-53.792971 h 4.539065 c 0,18.35938 -1.859378,36.76563 -5.531252,54.703128 -3.597657,17.582031 -8.964844,34.878906 -15.957032,51.402343"
             fill-opacity="1"
             fill-rule="nonzero"
             id="path82" />
        </g>
        <g
           clip-path="url(#20e1de2ba4)"
           id="g84">
          <path
             fill="#1c6793"
             d="m 9.675781,-68.289062 c -4.957031,11.722656 -11.089843,23.023437 -18.226562,33.585937 -7.042969,10.429687 -15.132813,20.234375 -24.039063,29.140625 -8.90625,8.90625 -18.710937,16.992188 -29.140625,24.039062 -10.5625,7.136719 -21.859375,13.265626 -33.585937,18.226563 -11.968754,5.0625 -24.492184,8.949219 -37.222654,11.554687 -13,2.660157 -26.34766,4.007813 -39.66797,4.007813 v -5.835937 c 12.92578,0 25.87891,-1.304688 38.5,-3.890626 12.35156,-2.527343 24.5039,-6.300781 36.117186,-11.210937 11.378906,-4.8125 22.34375,-10.761719 32.59375,-17.6875 10.121094,-6.839844 19.636719,-14.6875 28.28125,-23.332031 8.640625,-8.644532 16.492188,-18.160156 23.328125,-28.28125 6.925781,-10.246094 12.875,-21.210938 17.6875,-32.589844 4.914063,-11.613281 8.683594,-23.765625 11.214844,-36.11719 2.582031,-12.62109 3.890625,-25.57422 3.890625,-38.5 h 5.835938 c 0,13.32032 -1.347657,26.66406 -4.011719,39.66797 -2.605469,12.73047 -6.492188,25.253908 -11.554688,37.222658"
             fill-opacity="1"
             fill-rule="nonzero"
             id="path83" />
        </g>
        <g
           clip-path="url(#c5bbc2fc90)"
           id="g85">
          <path
             fill="#1c6793"
             d="m -1.835938,-73.15625 c -4.648437,10.980469 -10.390624,21.566406 -17.074218,31.457031 -6.597656,9.769531 -14.175782,18.953125 -22.519532,27.296875 -8.34375,8.34375 -17.527343,15.917969 -27.296874,22.519532 -9.890626,6.683593 -20.472657,12.425781 -31.457028,17.070312 -11.21094,4.742188 -22.94141,8.382812 -34.86719,10.824219 -12.17578,2.492187 -24.67969,3.753906 -37.15625,3.753906 v -6.050781 c 12.07031,0 24.16406,-1.222656 35.94531,-3.632813 11.53125,-2.359375 22.87891,-5.882812 33.71875,-10.464843 10.625001,-4.496094 20.859376,-10.050782 30.429689,-16.515626 9.449219,-6.382812 18.335937,-13.714843 26.402343,-21.785156 8.074219,-8.070312 15.402344,-16.953125 21.785157,-26.402344 6.464843,-9.570312 12.023437,-19.804687 16.515625,-30.429687 4.585937,-10.839844 8.105468,-22.1875 10.464844,-33.718755 2.410156,-11.78125 3.632812,-23.87499 3.632812,-35.94531 h 6.054688 c 0,12.47657 -1.265626,24.98047 -3.753907,37.15625 -2.441406,11.925784 -6.082031,23.656252 -10.824219,34.86719"
             fill-opacity="1"
             fill-rule="nonzero"
             id="path84" />
        </g>
        <g
           clip-path="url(#57b95c0bbe)"
           id="g86">
          <path
             fill="#1c6793"
             d="M 113.29297,-24.464844 C 105.50391,-6.046875 95.878906,11.695312 84.675781,28.277344 73.621094,44.640625 60.929688,60.019531 46.964844,73.992188 32.992188,87.960938 17.613281,100.64453 1.25,111.70313 c -16.582031,11.19921 -34.324219,20.82812 -52.738281,28.61718 -18.808594,7.95313 -38.488281,14.0625 -58.496099,18.15625 -20.40624,4.17969 -41.34374,6.29688 -62.22265,6.29688 v -3.89063 c 20.61719,0 41.29297,-2.08984 61.4414,-6.21484 19.757818,-4.04297 39.191411,-10.07813 57.761724,-17.92969 18.183594,-7.69141 35.703125,-17.19922 52.074218,-28.26172 C 15.230469,97.5625 30.417969,85.03125 44.210938,71.238281 58.007812,57.445312 70.535156,42.257812 81.449219,26.097656 92.511719,9.726562 102.01953,-7.796875 109.71094,-25.980469 c 7.85547,-18.570312 13.88672,-38 17.92969,-57.757812 4.12499,-20.152349 6.21484,-40.824219 6.21484,-61.441409 h 3.89062 c 0,20.87891 -2.11718,41.8125 -6.29297,62.222659 -4.09765,20.007812 -10.20703,39.6875 -18.16015,58.492187"
             fill-opacity="1"
             fill-rule="nonzero"
             id="path85" />
        </g>
        <g
           clip-path="url(#79db377413)"
           id="g87">
          <path
             fill="#1c6793"
             d="m -13.351562,-78.023438 c -4.332032,10.238282 -9.6875,20.105469 -15.917969,29.332032 -6.15625,9.109375 -13.222657,17.671875 -21,25.449218 -7.777344,7.78125 -16.339844,14.84375 -25.449219,20.996094 -9.222656,6.234375 -19.09375,11.589844 -29.33203,15.921875 -10.45313,4.421875 -21.39063,7.816407 -32.51172,10.089844 -11.35156,2.324219 -23.00781,3.5 -34.64453,3.5 v -6.269531 c 11.21484,0 22.44922,-1.132813 33.39062,-3.371094 10.71485,-2.191406 21.25391,-5.464844 31.32422,-9.722656 9.86719,-4.171875 19.375002,-9.335938 28.265628,-15.339844 8.777343,-5.933594 17.027343,-12.738281 24.527343,-20.238281 7.496094,-7.496094 14.304688,-15.746094 20.234375,-24.527344 6.007813,-8.886719 11.167969,-18.398437 15.339844,-28.261719 4.261719,-10.074218 7.53125,-20.613286 9.722656,-31.324216 2.238282,-10.94141 3.375,-22.17578 3.375,-33.39063 h 6.265625 c 0,11.63672 -1.175781,23.29297 -3.5,34.64453 -2.273437,11.121098 -5.667969,22.058598 -10.089843,32.511722"
             fill-opacity="1"
             fill-rule="nonzero"
             id="path86" />
        </g>
        <g
           clip-path="url(#0f28cf70ac)"
           id="g88">
          <path
             fill="#1c6793"
             d="M 263.01562,38.863281 C 251.13672,66.945312 236.45312,94 219.37891,119.28125 c -16.84766,24.9375 -36.1836,48.37109 -57.46485,69.65625 -21.28906,21.28516 -44.72265,40.62109 -69.660154,57.46484 -25.28125,17.07813 -52.335937,31.76172 -80.417968,43.63672 -28.6875,12.13672 -58.710938,21.45703 -89.230469,27.69922 -31.109379,6.37109 -63.007809,9.59766 -94.812499,9.59766 v -1.19922 c 31.72266,0 63.54297,-3.21875 94.574218,-9.57031 30.441406,-6.22657 60.386718,-15.52344 89.003906,-27.62891 28.011718,-11.84766 55,-26.49219 80.210937,-43.52344 24.874999,-16.80469 48.253909,-36.08984 69.484379,-57.32031 21.23046,-21.23047 40.51562,-44.60938 57.32031,-69.48437 17.03515,-25.214849 31.67969,-52.20313 43.52344,-80.210942 12.10937,-28.617188 21.40234,-58.5625 27.63281,-89.003907 6.35156,-31.03125 9.57031,-62.851561 9.57031,-94.574221 h 1.19531 c 0,31.80469 -3.23047,63.703128 -9.59765,94.812502 -6.24219,30.519532 -15.5625,60.539063 -27.69532,89.230469"
             fill-opacity="1"
             fill-rule="nonzero"
             id="path87" />
        </g>
        <g
           clip-path="url(#ffbfb00b4b)"
           id="g89">
          <path
             fill="#1c6793"
             d="m 251.48828,33.988281 c -11.5625,27.335938 -25.85547,53.675781 -42.48047,78.285159 -16.40234,24.27734 -35.22265,47.08984 -55.94531,67.8125 -20.72266,20.72265 -43.53906,39.54687 -67.816406,55.94922 -24.609375,16.625 -50.949219,30.91796 -78.285156,42.48046 -27.929688,11.8125 -57.152344,20.88282 -86.863282,26.96485 -30.285156,6.19922 -61.343746,9.33984 -92.304686,9.33984 v -1.38281 c 30.87109,0 61.83203,-3.13281 92.027342,-9.3125 29.621094,-6.0625 58.757813,-15.10547 86.601563,-26.88281 C 33.679688,265.71094 59.9375,251.46484 84.472656,234.89062 108.67578,218.53516 131.42578,199.76953 152.08594,179.11328 172.74219,158.44922 191.50781,135.70312 207.86328,111.5 224.4375,86.964844 238.6875,60.703125 250.21484,33.449219 c 11.77735,-27.84375 20.82032,-56.980469 26.88282,-86.601563 6.17968,-30.195312 9.3125,-61.160156 9.3125,-92.027346 h 1.38281 c 0,30.96094 -3.14453,62.019534 -9.33985,92.30469 -6.07812,29.707031 -15.15234,58.933594 -26.96484,86.863281"
             fill-opacity="1"
             fill-rule="nonzero"
             id="path88" />
        </g>
        <g
           clip-path="url(#e1df207cca)"
           id="g90">
          <path
             fill="#1c6793"
             d="m 239.96484,29.113281 c -11.25,26.59375 -25.15234,52.214844 -41.32812,76.156249 -15.95313,23.61719 -34.26172,45.80859 -54.42578,65.96875 -20.15625,20.16016 -42.35156,38.47266 -65.968752,54.42578 -23.941407,16.17188 -49.5625,30.07813 -76.15625,41.32422 -27.167969,11.49219 -55.597657,20.31641 -84.496094,26.23047 -29.464844,6.02734 -59.675784,9.08594 -89.796874,9.08594 v -1.57032 c 30.01562,0 60.12109,-3.04687 89.480468,-9.05468 28.800781,-5.89453 57.128906,-14.6875 84.199218,-26.13672 26.503906,-11.20703 52.035156,-25.0625 75.890625,-41.17969 23.531249,-15.89844 45.652349,-34.14453 65.738279,-54.23437 20.08985,-20.08985 38.33594,-42.20703 54.23438,-65.73828 C 213.45312,80.535156 227.30859,55 238.51562,28.5 c 11.45313,-27.074219 20.2461,-55.402344 26.14063,-84.199219 6.00391,-29.359375 9.05078,-59.464841 9.05078,-89.480471 h 1.57031 c 0,30.1211 -3.05468,60.332034 -9.08593,89.792971 -5.91407,28.902344 -14.73438,57.328125 -26.22657,84.5"
             fill-opacity="1"
             fill-rule="nonzero"
             id="path89" />
        </g>
        <g
           clip-path="url(#d3286fc89f)"
           id="g91">
          <path
             fill="#1c6793"
             d="M 274.54297,43.738281 C 262.35156,72.566406 247.27734,100.33984 229.75,126.28516 c -17.29688,25.59765 -37.14063,49.65625 -58.98828,71.5 -21.84766,21.85156 -45.90625,41.69531 -71.503908,58.99218 -25.945312,17.52735 -53.71875,32.60157 -82.546874,44.78907 -29.449219,12.45703 -60.265626,22.02343 -91.597657,28.43359 -31.933591,6.53906 -64.675781,9.85156 -97.320311,9.85156 v -1.01172 c 32.57812,0 65.25,-3.30468 97.121092,-9.82812 31.261719,-6.39844 62.015626,-15.94141 91.40625,-28.3711 28.765626,-12.16796 56.480469,-27.20703 82.375,-44.69921 25.542968,-17.26172 49.550778,-37.0625 71.355468,-58.86719 21.80078,-21.80078 41.60547,-45.8086 58.86328,-71.35156 17.49219,-25.894535 32.53125,-53.613285 44.69922,-82.37891 12.42969,-29.386719 21.97656,-60.140625 28.37109,-91.40625 6.52344,-31.863281 9.83204,-64.53906 9.83204,-97.11719 h 1.00781 c 0,32.64453 -3.31641,65.386721 -9.85156,97.320315 -6.40625,31.328125 -15.97657,62.148437 -28.42969,91.597656"
             fill-opacity="1"
             fill-rule="nonzero"
             id="path90" />
        </g>
        <g
           clip-path="url(#2bceb88f22)"
           id="g92">
          <path
             fill="#1c6793"
             d="m 320.64453,63.238281 c -13.45312,31.804688 -30.07812,62.445309 -49.41797,91.070309 -19.07422,28.23828 -40.96875,54.77735 -65.0664,78.875 -24.10157,24.10157 -50.64063,45.9961 -78.87891,65.07032 -28.625,19.33984 -59.265625,35.96484 -91.070312,49.41796 -32.492188,13.7461 -66.496094,24.30079 -101.0625,31.375 -35.230468,7.20704 -71.347658,10.86329 -107.355468,10.86329 v -0.26172 c 35.98828,0 72.08984,-3.65235 107.304686,-10.85938 34.546875,-7.0664 68.535156,-17.61719 101.011719,-31.35547 31.789063,-13.44531 62.414063,-30.0625 91.027345,-49.39453 28.22265,-19.0664 54.75,-40.94922 78.83984,-65.03906 24.08985,-24.08984 45.97266,-50.61328 65.03906,-78.83594 19.32813,-28.61328 35.94532,-59.238279 49.39063,-91.027341 13.73828,-32.476563 24.28516,-66.464844 31.35547,-101.011719 7.20703,-35.210938 10.85937,-71.3125 10.85937,-107.30469 h 0.26172 c 0,36.00781 -3.65625,72.128909 -10.86719,107.355471 -7.07031,34.566407 -17.6289,68.570313 -31.37109,101.0625"
             fill-opacity="1"
             fill-rule="nonzero"
             id="path91" />
        </g>
        <g
           clip-path="url(#48ef34f3b2)"
           id="g93">
          <path
             fill="#1c6793"
             d="m 309.12109,58.363281 c -13.14062,31.0625 -29.375,60.984379 -48.26172,88.941409 -18.63281,27.57812 -40.01171,53.49609 -63.54687,77.03125 -23.53906,23.53515 -49.45703,44.91797 -77.03516,63.55078 -27.957028,18.88672 -57.878902,35.12109 -88.941402,48.25781 -31.730469,13.42578 -64.9375,23.73047 -98.695313,30.64063 -34.406255,7.03906 -69.683595,10.60937 -104.847655,10.60937 v -0.44531 c 35.13672,0 70.38281,-3.57031 104.757811,-10.60156 33.730469,-6.90235 66.90625,-17.20313 98.613281,-30.61329 31.035157,-13.125 60.929688,-29.34765 88.863278,-48.21875 27.55469,-18.61328 53.44532,-39.98046 76.96485,-63.5 23.51562,-23.51562 44.88281,-49.40625 63.49609,-76.96093 18.87109,-27.9336 35.09375,-57.832034 48.22266,-88.863284 13.41015,-31.707031 23.70703,-64.886718 30.60937,-98.613281 7.03516,-34.375 10.60156,-69.621095 10.60156,-104.757815 h 0.44532 c 0,35.16797 -3.57032,70.445315 -10.61328,104.847659 -6.90235,33.757812 -17.21485,66.960937 -30.63282,98.695312"
             fill-opacity="1"
             fill-rule="nonzero"
             id="path92" />
        </g>
        <g
           clip-path="url(#c1e64178a4)"
           id="g94">
          <path
             fill="#1c6793"
             d="m 286.06641,48.613281 c -12.50782,29.570313 -27.96485,58.062499 -45.94922,84.679689 -17.73828,26.25781 -38.09375,50.92969 -60.50391,73.34375 -22.41406,22.41406 -47.09375,42.76953 -73.34765,60.50781 C 79.648438,285.12891 51.15625,300.58594 21.585938,313.09375 -8.625,325.87109 -40.238281,335.6875 -72.375,342.26172 c -32.75781,6.70703 -66.34766,10.10156 -99.83203,10.10156 v -0.82031 c 33.42969,0 66.96094,-3.39453 99.664061,-10.08594 32.085938,-6.56641 63.648438,-16.36328 93.808594,-29.12109 29.523437,-12.48438 57.964844,-27.91797 84.539065,-45.8711 26.21484,-17.71093 50.85156,-38.03515 73.22265,-60.41015 22.375,-22.375 42.70313,-47.00782 60.41016,-73.22266 17.95312,-26.57422 33.38672,-55.015624 45.875,-84.539061 12.75391,-30.160157 22.55469,-61.722657 29.11719,-93.808594 6.6914,-32.703125 10.08593,-66.234375 10.08593,-99.664065 h 0.82032 c 0,33.48438 -3.39844,67.074221 -10.10157,99.832034 -6.57421,32.136718 -16.39062,63.75 -29.16796,93.960937"
             fill-opacity="1"
             fill-rule="nonzero"
             id="path93" />
        </g>
        <g
           clip-path="url(#b10646543a)"
           id="g95">
          <path
             fill="#1c6793"
             d="m 228.43359,24.238281 c -10.92968,25.847657 -24.44531,50.753907 -40.16406,74.023438 -15.51172,22.957031 -33.30859,44.531251 -52.90625,64.128901 -19.59765,19.59766 -41.171874,37.39454 -64.128905,52.90625 -23.269531,15.71875 -48.175781,29.23047 -74.023437,40.16407 -26.40625,11.17187 -54.039063,19.75 -82.132813,25.49609 -28.636715,5.85938 -58.003905,8.83203 -87.285155,8.83203 v -1.75781 c 29.16406,0 58.41015,-2.96094 86.933592,-8.79688 27.976563,-5.72265 55.5,-14.26562 81.800782,-25.39062 25.746094,-10.89063 50.546875,-24.34766 73.722656,-40.00391 22.867188,-15.44531 44.35547,-33.17578 63.86719,-52.6914 19.51953,-19.51953 37.24609,-41.00781 52.69531,-63.871096 15.65625,-23.175782 29.11719,-47.980469 40.00391,-73.726563 11.125,-26.296875 19.66796,-53.820312 25.39453,-81.796875 5.83593,-28.523437 8.79297,-57.769536 8.79297,-86.933596 h 1.75781 c 0,29.28125 -2.97266,58.64844 -8.83203,87.285159 -5.7461,28.089843 -14.32422,55.722656 -25.4961,82.132812"
             fill-opacity="1"
             fill-rule="nonzero"
             id="path94" />
        </g>
        <g
           clip-path="url(#ec701d3f02)"
           id="g96">
          <path
             fill="#1c6793"
             d="m 124.80859,-19.59375 c -8.10546,19.15625 -18.12109,37.617188 -29.77734,54.867188 -11.5,17.023437 -24.699219,33.023437 -39.230469,47.554687 -14.53125,14.53125 -30.53125,27.730465 -47.554687,39.230465 -17.25,11.65625 -35.710938,21.67188 -54.867188,29.77735 -19.566406,8.27343 -40.039062,14.6289 -60.855466,18.89062 -21.23047,4.34375 -43.01172,6.54688 -64.73047,6.54688 v -3.67578 c 21.47266,0 43.00391,-2.17579 63.99219,-6.47266 20.578121,-4.21094 40.820309,-10.49219 60.164059,-18.67578 18.9375,-8.00781 37.1875,-17.91406 54.242187,-29.43359 C 23.019531,107.64453 38.835938,94.597656 53.203125,80.230469 67.570312,65.863281 80.617188,50.046875 91.988281,33.21875 103.51172,16.164062 113.41406,-2.085938 121.42188,-21.023438 c 8.18359,-19.34375 14.46484,-39.585937 18.67578,-60.164062 4.29687,-20.98828 6.47656,-42.51953 6.47656,-63.99219 h 3.67187 c 0,21.71875 -2.20312,43.4961 -6.54687,64.726565 -4.26172,20.820313 -10.61719,41.292969 -18.89063,60.859375"
             fill-opacity="1"
             fill-rule="nonzero"
             id="path95" />
        </g>
        <g
           clip-path="url(#d7ad3058cb)"
           id="g97">
          <path
             fill="#1c6793"
             d="m 297.59375,53.488281 c -12.82031,30.316407 -28.67188,59.523439 -47.10547,86.808589 -18.18359,26.91797 -39.05469,52.21485 -62.02734,75.1875 -22.97266,22.97657 -48.27344,43.84375 -75.19141,62.03125 -27.285155,18.4336 -56.492186,34.28516 -86.808592,47.10547 -30.96875,13.10157 -63.382813,23.16016 -96.328126,29.90625 -33.582032,6.8711 -68.015622,10.35157 -102.339842,10.35157 v -0.63282 c 34.28125,0 68.67187,-3.48047 102.210936,-10.34375 32.910156,-6.73437 65.277344,-16.78125 96.210938,-29.86328 30.277344,-12.80859 59.449218,-28.63672 86.703126,-47.05078 26.88281,-18.16016 52.14844,-39.00391 75.09375,-61.94922 22.94531,-22.94922 43.78906,-48.21094 61.95312,-75.09765 18.41016,-27.25 34.23828,-56.421879 47.04688,-86.699222 13.08203,-30.933594 23.1289,-63.304688 29.86328,-96.210938 6.86328,-33.539062 10.34375,-67.92578 10.34375,-102.21094 h 0.63281 c 0,34.32422 -3.48437,68.757815 -10.35547,102.339846 -6.74218,32.945313 -16.80078,65.355469 -29.90234,96.328125"
             fill-opacity="1"
             fill-rule="nonzero"
             id="path96" />
        </g>
        <g
           clip-path="url(#1974761047)"
           id="g98">
          <path
             fill="#1c6793"
             d="M 170.85937,-0.117188 C 161.5,22.015625 149.92969,43.339844 136.46875,63.265625 123.18359,82.925781 107.94141,101.40234 91.15625,118.18359 74.375,134.96875 55.898438,150.21094 36.238281,163.49219 c -19.925781,13.46093 -41.25,25.03515 -63.378906,34.39453 -22.609375,9.5625 -46.265625,16.90625 -70.3125,21.82422 -24.523435,5.01953 -49.671875,7.5625 -74.753905,7.5625 v -2.8086 c 24.89062,0 49.85156,-2.52734 74.191405,-7.5039 23.867187,-4.88672 47.34375,-12.17188 69.78125,-21.66407 21.960937,-9.28906 43.125,-20.77343 62.898437,-34.13281 19.511719,-13.17969 37.851563,-28.30859 54.507813,-44.96484 16.656255,-16.656251 31.785155,-34.996095 44.964845,-54.507814 13.35937,-19.773437 24.84375,-40.9375 34.13672,-62.902344 9.48828,-22.433593 16.77343,-45.914062 21.66015,-69.78125 4.98047,-24.335937 7.50391,-49.296872 7.50391,-74.187502 h 2.8125 c 0,25.07813 -2.54688,50.230471 -7.56641,74.753909 -4.91797,24.046875 -12.26172,47.703125 -21.82422,70.308593"
             fill-opacity="1"
             fill-rule="nonzero"
             id="path97" />
        </g>
        <g
           clip-path="url(#c2212f719b)"
           id="g99">
          <path
             fill="#1c6793"
             d="m 147.83203,-9.855469 c -8.73047,20.644531 -19.52734,40.539063 -32.08203,59.125 -12.39062,18.34375 -26.613281,35.582031 -42.269531,51.238279 -15.65625,15.65235 -32.894531,29.875 -51.238281,42.26563 -18.585938,12.55859 -38.480469,23.35547 -59.125,32.08593 -21.085938,8.91797 -43.152344,15.76954 -65.582028,20.35938 -22.87891,4.68359 -46.34375,7.05469 -69.74219,7.05469 v -3.24219 c 23.18359,0 46.42969,-2.35156 69.08984,-6.98828 22.222659,-4.54688 44.082034,-11.33203 64.972659,-20.16797 20.453125,-8.65234 40.160156,-19.34375 58.574219,-31.78516 C 38.597656,127.8125 55.675781,113.72266 71.1875,98.214844 86.695312,82.703125 100.78516,65.625 113.0625,47.457031 c 12.44141,-18.417969 23.13281,-38.125 31.78516,-58.574219 8.83593,-20.890624 15.62109,-42.75 20.16796,-64.972656 4.63672,-22.664062 6.98829,-45.910156 6.98829,-69.089846 h 3.24218 c 0,23.39844 -2.375,46.863284 -7.05468,69.738284 -4.58985,22.433594 -11.44141,44.5 -20.35938,65.585937"
             fill-opacity="1"
             fill-rule="nonzero"
             id="path98" />
        </g>
        <g
           clip-path="url(#80dff05b2b)"
           id="g100">
          <path
             fill="#1c6793"
             d="m 216.91016,19.359375 c -10.61719,25.109375 -23.7461,49.296875 -39.01172,71.898437 -15.0625,22.296878 -32.35157,43.249998 -51.38672,62.285158 -19.03125,19.03125 -39.984376,36.3164 -62.281251,51.38281 -22.601563,15.26563 -46.789063,28.39453 -71.894531,39.00781 -25.648438,10.85157 -52.484376,19.17969 -79.765626,24.76172 -27.812502,5.69141 -56.335932,8.58203 -84.777342,8.58203 v -1.94922 c 28.30859,0 56.70312,-2.87109 84.386718,-8.53515 27.15625,-5.5586 53.871093,-13.85156 79.398437,-24.64844 24.988281,-10.57031 49.066406,-23.63281 71.5625,-38.83203 22.195313,-14.99219 43.054685,-32.19922 62.000005,-51.14453 18.9414,-18.94922 36.15234,-39.80469 51.14453,-62.000001 15.19921,-22.496094 28.26171,-46.574219 38.83593,-71.5625 10.79297,-25.527344 19.08594,-52.242188 24.64453,-79.398438 5.66407,-27.6875 8.53516,-56.078121 8.53516,-84.386721 H 250.25 c 0,28.44141 -2.88672,56.96094 -8.57813,84.777346 -5.58593,27.28125 -13.91406,54.117188 -24.76171,79.761719"
             fill-opacity="1"
             fill-rule="nonzero"
             id="path99" />
        </g>
        <g
           clip-path="url(#1d995a7721)"
           id="g101">
          <path
             fill="#1c6793"
             d="m 136.32031,-14.726562 c -8.41797,19.902343 -18.82422,39.078124 -30.92968,57 C 93.445312,59.953125 79.734375,76.574219 64.640625,91.667969 49.546875,106.76172 32.925781,120.47266 15.246094,132.41797 -2.671875,144.52344 -21.851562,154.92969 -41.75,163.34766 c -20.328125,8.59765 -41.597656,15.19921 -63.22266,19.625 -22.05468,4.51171 -44.67578,6.80078 -67.23437,6.80078 v -3.46094 c 22.32812,0 44.71484,-2.26172 66.54297,-6.73047 21.398435,-4.375 42.449216,-10.91406 62.566404,-19.42187 19.695312,-8.32813 38.671875,-18.62891 56.40625,-30.60547 17.5,-11.82422 33.949218,-25.39453 48.886718,-40.332034 14.9375,-14.9375 28.507813,-31.386718 40.328128,-48.886718 11.98437,-17.734376 22.28125,-36.710938 30.60937,-56.40625 8.50781,-20.117188 15.04688,-41.167969 19.42188,-62.566407 4.46875,-21.828121 6.73437,-44.214841 6.73437,-66.542971 h 3.45703 c 0,22.5586 -2.28906,45.17969 -6.80078,67.234378 -4.42578,21.625 -11.02734,42.894531 -19.625,63.21875"
             fill-opacity="1"
             fill-rule="nonzero"
             id="path100" />
        </g>
        <g
           clip-path="url(#4de1b610e3)"
           id="g102">
          <path
             fill="#1c6793"
             d="m 159.34375,-4.984375 c -9.04297,21.386719 -20.22656,41.996094 -33.23828,61.25 C 113.26953,75.269531 98.539062,93.125 82.316406,109.34375 66.101562,125.56641 48.242188,140.29687 29.242188,153.13281 9.984375,166.14453 -10.625,177.32422 -32.011719,186.37109 c -21.847656,9.24219 -44.707031,16.33985 -67.949219,21.09375 -23.699222,4.85157 -48.003902,7.3086 -72.246092,7.3086 v -3.02735 c 24.03516,0 48.14062,-2.4375 71.64062,-7.24609 23.042972,-4.71484 45.714848,-11.75391 67.375004,-20.91406 C -11.980469,174.61719 8.453125,163.52344 27.546875,150.625 46.386719,137.89844 64.09375,123.28906 80.179688,107.20703 96.261719,91.125 110.87109,73.414062 123.59766,54.574219 136.5,35.480469 147.58984,15.042969 156.55859,-6.164062 c 9.16407,-21.664063 16.19922,-44.332032 20.91407,-67.375 4.8125,-23.5 7.25,-47.605468 7.25,-71.640628 h 3.02343 c 0,24.23828 -2.45703,48.546878 -7.30859,72.246096 -4.75391,23.242188 -11.85156,46.101563 -21.09375,67.949219"
             fill-opacity="1"
             fill-rule="nonzero"
             id="path101" />
        </g>
        <g
           clip-path="url(#4fcb980fba)"
           id="g103">
          <path
             fill="#1c6793"
             d="m 205.39844,14.492188 c -10.30469,24.363281 -23.04297,47.835937 -37.85938,69.765624 -14.61719,21.640628 -31.39453,41.976568 -49.86328,60.445308 -18.468749,18.46875 -38.808592,35.2461 -60.445311,49.86329 -21.929688,14.8164 -45.402344,27.55468 -69.761719,37.85937 -24.886719,10.52344 -50.929688,18.60547 -77.402344,24.02344 -26.992186,5.52344 -54.671876,8.32812 -82.273436,8.32812 v -2.16406 c 27.45312,0 54.98828,-2.78516 81.839842,-8.28125 26.332032,-5.38672 52.238282,-13.42969 76.992188,-23.89844 24.230469,-10.25 47.582031,-22.91797 69.398438,-37.65625 21.523437,-14.54297 41.75,-31.23047 60.121092,-49.60156 18.375,-18.375 35.0625,-38.60156 49.60156,-60.124999 14.73828,-21.816406 27.41016,-45.167969 37.66016,-69.402343 10.46875,-24.753907 18.51172,-50.65625 23.89844,-76.992188 5.49609,-26.847656 8.28515,-54.38281 8.28515,-81.83594 H 237.75 c 0,27.59766 -2.80469,55.281252 -8.32422,82.269534 -5.41797,26.472656 -13.50391,52.515625 -24.02734,77.402344"
             fill-opacity="1"
             fill-rule="nonzero"
             id="path102" />
        </g>
        <g
           clip-path="url(#1834a9841c)"
           id="g104">
          <path
             fill="#1c6793"
             d="m 182.37109,4.753906 c -9.67578,22.875 -21.63281,44.914063 -35.54687,65.511719 -13.72656,20.316406 -29.48438,39.414065 -46.828126,56.761715 -17.339844,17.33985 -36.4375,33.09375 -56.757813,46.82422 -20.59375,13.91016 -42.636719,25.8711 -65.511719,35.54688 -23.363281,9.88281 -47.816406,17.47656 -72.675781,22.55859 -25.343751,5.1875 -51.335941,7.81641 -77.257811,7.81641 v -2.58985 c 25.74609,0 51.5664,-2.61328 76.73828,-7.76562 24.691406,-5.05469 48.976562,-12.58985 72.1875,-22.41016 C -0.5625,197.39844 21.328125,185.51953 41.785156,171.70312 61.96875,158.06641 80.933594,142.41797 98.164062,125.19141 115.39063,107.96094 131.03906,88.996094 144.67578,68.8125 158.49219,48.355469 170.37109,26.464844 179.98437,3.742188 c 9.81641,-23.207032 17.35547,-47.496094 22.40625,-72.183594 5.15235,-25.175782 7.76563,-50.992184 7.76563,-76.738284 H 212.75 c 0,25.91797 -2.63281,51.914065 -7.82031,77.257815 -5.08203,24.859375 -12.67188,49.308594 -22.5586,72.675781"
             fill-opacity="1"
             fill-rule="nonzero"
             id="path103" />
        </g>
        <g
           clip-path="url(#57cccd8199)"
           id="g105">
          <path
             fill="#1c6793"
             d="m 193.88672,9.621094 c -9.99219,23.621094 -22.33985,46.375 -36.70703,67.640625 -14.17188,20.976562 -30.4375,40.695311 -48.34375,58.601561 -17.910159,17.90625 -37.625002,34.17188 -58.601565,48.34766 -21.261719,14.36328 -44.019531,26.71093 -67.636719,36.69922 -24.128906,10.20703 -49.375,18.04296 -75.039062,23.29296 -26.167974,5.35547 -53.003904,8.07032 -79.765624,8.07032 v -2.37891 c 26.60156,0 53.27734,-2.69922 79.289061,-8.01953 25.511719,-5.22266 50.605469,-13.01172 74.589844,-23.15625 23.476563,-9.92969 46.09375,-22.19922 67.230469,-36.48047 20.851562,-14.08984 40.453125,-30.25781 58.253906,-48.05859 17.79688,-17.79688 33.96875,-37.39844 48.05469,-58.250002 14.27734,-21.136719 26.55078,-43.757813 36.48437,-67.234376 10.14453,-23.980468 17.9336,-49.074218 23.15235,-74.585937 5.32421,-26.015625 8.02343,-52.691405 8.02343,-79.289065 h 2.375 c 0,26.75781 -2.71093,53.597659 -8.07031,79.765628 -5.25,25.664062 -13.08594,50.910156 -23.28906,75.035156"
             fill-opacity="1"
             fill-rule="nonzero"
             id="path104" />
        </g>
      </g>
    </g>
  </g>
  <g
     mask="url(#beb3745f99)"
     id="g148">
    <g
       transform="translate(925,332)"
       id="g147">
      <g
         clip-path="url(#5355bc6ce8)"
         id="g146">
        <g
           clip-path="url(#2263cc39d0)"
           id="g109">
          <path
             fill="#1c6793"
             d="m 330.79297,449.01562 c 5.58984,-13.21093 12.49609,-25.94531 20.53515,-37.84375 7.9375,-11.74609 17.04688,-22.78906 27.08204,-32.82031 10.03125,-10.03515 21.07421,-19.14453 32.82031,-27.08203 11.89844,-8.03906 24.63281,-14.94531 37.84375,-20.53516 13.48828,-5.70312 27.60156,-10.08593 41.94922,-13.02343 14.64843,-2.9961 29.67968,-4.51563 44.67968,-4.51563 v 5.40625 c -14.63671,0 -29.30468,1.48047 -43.59765,4.40625 -14,2.86328 -27.76953,7.14063 -40.92578,12.70313 -12.89063,5.45312 -25.3125,12.19531 -36.92188,20.03515 -11.46484,7.7461 -22.23828,16.63672 -32.02734,26.42578 -9.78906,9.78907 -18.67969,20.5625 -26.42578,32.02735 -7.83985,11.60937 -14.58203,24.03125 -20.03516,36.92187 -5.5625,13.15625 -9.83984,26.92969 -12.70312,40.92578 -2.92579,14.29297 -4.40625,28.96094 -4.40625,43.59766 h -5.40625 c 0,-15 1.51953,-30.03125 4.51562,-44.67969 2.9375,-14.34765 7.32031,-28.46093 13.02344,-41.94922"
             fill-opacity="1"
             fill-rule="nonzero"
             id="path108" />
        </g>
        <g
           clip-path="url(#b03dfe0439)"
           id="g110">
          <path
             fill="#1c6793"
             d="m 319.28125,444.14453 c 5.90234,-13.95312 13.19922,-27.40234 21.69141,-39.96875 8.38281,-12.41016 18.0039,-24.07031 28.59765,-34.66406 10.59375,-10.59375 22.25781,-20.21875 34.66406,-28.59766 12.57032,-8.49219 26.01563,-15.78906 39.96875,-21.6914 14.2461,-6.02735 29.15625,-10.65235 44.3125,-13.75782 15.47266,-3.16406 31.34766,-4.76953 47.1875,-4.76953 v 5.1875 c -15.49218,0 -31.01562,1.57031 -46.14453,4.66797 -14.82422,3.03125 -29.40234,7.55859 -43.33593,13.44922 -13.64454,5.77344 -26.79297,12.90625 -39.08594,21.21094 -12.13281,8.19531 -23.53906,17.60937 -33.89844,27.96875 -10.35937,10.35937 -19.76953,21.76562 -27.96875,33.89843 -8.30469,12.29297 -15.4375,25.44141 -21.21094,39.08594 -5.89062,13.9336 -10.41797,28.51172 -13.45312,43.33203 -3.09375,15.13282 -4.66406,30.65625 -4.66406,46.14844 h -5.1875 c 0,-15.83984 1.60546,-31.71484 4.76953,-47.1875 3.10547,-15.15625 7.73047,-30.0625 13.75781,-44.3125"
             fill-opacity="1"
             fill-rule="nonzero"
             id="path109" />
        </g>
        <g
           clip-path="url(#e78e3a3637)"
           id="g111">
          <path
             fill="#1c6793"
             d="m 307.76562,439.27734 c 6.21875,-14.69922 13.90625,-28.86328 22.84766,-42.10156 8.82813,-13.06641 18.96094,-25.34766 30.11719,-36.50391 11.15625,-11.15625 23.4375,-21.28906 36.5039,-30.11718 13.23829,-8.94141 27.40235,-16.62891 42.10157,-22.84375 15.00781,-6.34766 30.71093,-11.22266 46.67578,-14.49219 16.29297,-3.33594 33.01172,-5.02344 49.6914,-5.02344 v 4.97266 c -16.34375,0 -32.73046,1.65625 -48.69531,4.92187 -15.64453,3.19922 -31.03125,7.97657 -45.73828,14.19922 -14.40234,6.08985 -28.28125,13.6211 -41.25,22.38281 -12.80469,8.65235 -24.83984,18.58204 -35.77344,29.51563 -10.93359,10.93359 -20.86328,22.96875 -29.51562,35.77344 -8.75781,12.96875 -16.29297,26.84765 -22.38281,41.25 -6.22266,14.70703 -11,30.09375 -14.19922,45.73828 -3.26563,15.96484 -4.92188,32.35156 -4.92188,48.69531 h -4.97265 c 0,-16.67969 1.6875,-33.39844 5.02343,-49.69141 3.26953,-15.96484 8.14453,-31.66796 14.48828,-46.67578"
             fill-opacity="1"
             fill-rule="nonzero"
             id="path110" />
        </g>
        <g
           clip-path="url(#2331c7ae89)"
           id="g112">
          <path
             fill="#1c6793"
             d="m 342.30859,453.88672 c 5.27344,-12.46875 11.79297,-24.48438 19.37891,-35.71485 7.49219,-11.08984 16.08984,-21.51171 25.55859,-30.98046 9.47266,-9.46875 19.89453,-18.07032 30.98438,-25.5625 11.23047,-7.58594 23.24609,-14.10547 35.71094,-19.37891 12.73046,-5.38281 26.04687,-9.51953 39.58593,-12.28906 13.82813,-2.82813 28.01563,-4.26172 42.17578,-4.26172 v 5.61719 c -13.78125,0 -27.58984,1.39453 -41.04687,4.14843 -13.17578,2.69922 -26.13672,6.71875 -38.52344,11.96094 -12.13281,5.13281 -23.82812,11.47656 -34.75781,18.85938 -10.79297,7.29296 -20.9375,15.66406 -30.15234,24.8789 -9.21875,9.21485 -17.58594,19.35938 -24.87891,30.15235 -7.38281,10.92968 -13.72656,22.625 -18.85938,34.75781 -5.24218,12.38672 -9.26171,25.34765 -11.96093,38.52344 -2.75391,13.45703 -4.14844,27.26562 -4.14844,41.04687 h -5.62109 c 0,-14.15625 1.4375,-28.34766 4.26562,-42.17187 2.76953,-13.54297 6.90625,-26.85938 12.28906,-39.58594"
             fill-opacity="1"
             fill-rule="nonzero"
             id="path111" />
        </g>
        <g
           clip-path="url(#f4816cc851)"
           id="g113">
          <path
             fill="#1c6793"
             d="m 296.25391,434.40625 c 6.53125,-15.44141 14.60937,-30.32031 24,-44.22656 9.27343,-13.72657 19.91796,-26.62891 31.63671,-38.34766 11.71875,-11.71875 24.6211,-22.36328 38.34766,-31.63672 13.90625,-9.39062 28.78516,-17.46875 44.22656,-24 15.76563,-6.66797 32.26563,-11.78906 49.03907,-15.22265 17.11718,-3.5 34.67968,-5.27735 52.19921,-5.27735 v 4.75391 c -17.19921,0 -34.4414,1.74609 -51.24609,5.18359 -16.46484,3.36719 -32.66016,8.39844 -48.14062,14.94531 -15.15625,6.41016 -29.76563,14.33594 -43.41407,23.5586 -13.47656,9.10156 -26.14453,19.55469 -37.64843,31.05859 -11.50391,11.50391 -21.95704,24.17188 -31.0586,37.64844 -9.22265,13.64844 -17.14844,28.25781 -23.55859,43.41406 -6.54688,15.47656 -11.57813,31.67578 -14.94531,48.14063 -3.4375,16.80468 -5.1836,34.04687 -5.1836,51.24609 h -4.7539 c 0,-17.51953 1.77734,-35.08203 5.27734,-52.19922 3.43359,-16.77344 8.55469,-33.27344 15.22266,-49.03906"
             fill-opacity="1"
             fill-rule="nonzero"
             id="path112" />
        </g>
        <g
           clip-path="url(#4b8e4a43a6)"
           id="g114">
          <path
             fill="#1c6793"
             d="m 273.23047,424.66797 c 7.16015,-16.92969 16.01172,-33.24219 26.30859,-48.48438 10.16406,-15.04297 21.82813,-29.18359 34.67188,-42.03125 12.84765,-12.83984 26.98828,-24.50781 42.03125,-34.67187 15.24218,-10.29688 31.55468,-19.14844 48.48437,-26.3086 17.28516,-7.3125 35.375,-12.92968 53.76563,-16.6914 18.76172,-3.83985 38.01172,-5.78516 57.21093,-5.78516 v 4.32422 c -18.91015,0 -37.86718,1.91406 -56.34375,5.69531 -18.10937,3.70703 -35.92578,9.23438 -52.94921,16.4375 -16.67188,7.05078 -32.73438,15.76953 -47.7461,25.91016 -14.8164,10.01172 -28.74609,21.5 -41.39453,34.14844 -12.64844,12.64843 -24.13672,26.57422 -34.14844,41.39453 -10.14062,15.01172 -18.85937,31.07422 -25.91015,47.74609 -7.20313,17.02344 -12.73047,34.83985 -16.4336,52.94922 -3.78515,18.47656 -5.69922,37.4375 -5.69922,56.34375 h -4.32421 c 0,-19.19922 1.94531,-38.44922 5.78515,-57.21094 3.76172,-18.39062 9.37891,-36.48047 16.69141,-53.76562"
             fill-opacity="1"
             fill-rule="nonzero"
             id="path113" />
        </g>
        <g
           clip-path="url(#4caea4cb6d)"
           id="g115">
          <path
             fill="#1c6793"
             d="m 261.71484,419.79687 c 7.47657,-17.66796 16.71485,-34.69921 27.46485,-50.60937 10.60937,-15.70703 22.78515,-30.46484 36.19531,-43.87109 13.40625,-13.41016 28.16406,-25.58594 43.87109,-36.19532 15.91016,-10.75 32.9375,-19.98828 50.60938,-27.46484 18.04687,-7.63281 36.93359,-13.49219 56.13281,-17.42188 19.58203,-4.00781 39.67578,-6.04296 59.71484,-6.04296 v 4.10937 c -19.76171,0 -39.57812,2.00391 -58.89453,5.95703 -18.93359,3.875 -37.55468,9.65625 -55.35156,17.1836 -17.42969,7.36718 -34.21875,16.48437 -49.91406,27.08203 -15.48438,10.46484 -30.04297,22.47265 -43.26563,35.69531 -13.22265,13.22266 -25.23047,27.77734 -35.69531,43.26562 -10.60156,15.69532 -19.71484,32.48438 -27.08203,49.91407 -7.52734,17.79687 -13.30859,36.41797 -17.18359,55.35156 -3.95313,19.31641 -5.95704,39.13281 -5.95704,58.89453 H 238.25 c 0,-20.03906 2.03516,-40.12891 6.04297,-59.71484 3.92969,-19.19922 9.78906,-38.08594 17.42187,-56.13282"
             fill-opacity="1"
             fill-rule="nonzero"
             id="path114" />
        </g>
        <g
           clip-path="url(#68e0f96f61)"
           id="g116">
          <path
             fill="#1c6793"
             d="m 284.74219,429.53906 c 6.84375,-16.1875 15.30859,-31.78125 25.15234,-46.35547 9.72266,-14.38672 20.87891,-27.91015 33.16016,-40.1875 12.27734,-12.28515 25.80078,-23.4375 40.1875,-33.16015 14.57422,-9.84375 30.16797,-18.3086 46.35156,-25.15235 16.52734,-6.99218 33.82422,-12.35937 51.40625,-15.95703 17.9375,-3.67187 36.34375,-5.53125 54.70312,-5.53125 v 4.53906 c -18.05468,0 -36.15234,1.83204 -53.79296,5.4375 -17.28907,3.53907 -34.29688,8.82032 -50.54688,15.69141 -15.91406,6.73438 -31.25,15.05469 -45.58203,24.73828 -14.14453,9.55469 -27.44141,20.52344 -39.51953,32.60156 -12.07422,12.07813 -23.04688,25.375 -32.60156,39.51954 -9.6836,14.33203 -18.00782,29.66796 -24.73829,45.58203 -6.87109,16.25 -12.15234,33.25781 -15.6914,50.54687 -3.60547,17.64063 -5.4375,35.73828 -5.4375,53.79297 h -4.53906 c 0,-18.35937 1.85937,-36.76562 5.53125,-54.70312 3.59765,-17.58204 8.96484,-34.87891 15.95703,-51.40235"
             fill-opacity="1"
             fill-rule="nonzero"
             id="path115" />
        </g>
        <g
           clip-path="url(#324829f714)"
           id="g117">
          <path
             fill="#1c6793"
             d="m 353.82031,458.75391 c 4.96094,-11.72266 11.08985,-23.02344 18.22656,-33.58594 7.04297,-10.42969 15.13282,-20.23438 24.04297,-29.14063 8.90235,-8.90625 18.70703,-16.99218 29.13672,-24.03906 10.5625,-7.13672 21.86328,-13.26562 33.58594,-18.22656 11.96875,-5.0625 24.49219,-8.94922 37.22266,-11.55469 13.0039,-2.66016 26.34765,-4.00781 39.66796,-4.00781 v 5.83594 c -12.92578,0 -25.8789,1.30859 -38.5,3.89062 -12.35156,2.52734 -24.5039,6.30078 -36.11718,11.21094 -11.37891,4.8125 -22.34375,10.76172 -32.58985,17.6875 -10.125,6.83984 -19.63672,14.6875 -28.28125,23.33203 -8.64453,8.64453 -16.49609,18.16016 -23.33203,28.28125 -6.92578,10.24609 -12.875,21.21094 -17.6875,32.58984 -4.91015,11.61328 -8.68359,23.76563 -11.21094,36.11719 -2.58203,12.62109 -3.89062,25.57422 -3.89062,38.5 h -5.83594 c 0,-13.31641 1.34766,-26.66406 4.00781,-39.66797 2.60547,-12.73047 6.49219,-25.2539 11.55469,-37.22265"
             fill-opacity="1"
             fill-rule="nonzero"
             id="path116" />
        </g>
        <g
           clip-path="url(#b7284c604f)"
           id="g118">
          <path
             fill="#1c6793"
             d="m 365.33594,463.62109 c 4.64453,-10.98047 10.38672,-21.5664 17.07031,-31.45703 6.60156,-9.76953 14.17578,-18.95312 22.51953,-27.29687 8.34375,-8.34375 17.52734,-15.91797 27.29688,-22.51953 9.89062,-6.6836 20.47656,-12.42579 31.45703,-17.07032 11.21093,-4.74218 22.9414,-8.38281 34.86718,-10.82422 12.17579,-2.49218 24.67969,-3.7539 37.15625,-3.7539 V 356.75 c -12.07031,0 -24.16406,1.22266 -35.94531,3.63281 -11.53125,2.35938 -22.8789,5.88281 -33.71875,10.46485 -10.625,4.49609 -20.85937,10.05078 -30.42969,16.51562 -9.44921,6.38281 -18.33203,13.71484 -26.40234,21.78516 -8.07422,8.07031 -15.40234,16.95312 -21.78516,26.40234 -6.46484,9.57031 -12.01953,19.80469 -16.51562,30.42969 -4.58203,10.83984 -8.10547,22.1875 -10.46484,33.71875 -2.41016,11.78125 -3.63282,23.875 -3.63282,35.94531 h -6.05078 c 0,-12.47656 1.26172,-24.98047 3.75391,-37.15625 2.4414,-11.92578 6.08203,-23.65625 10.82422,-34.86719"
             fill-opacity="1"
             fill-rule="nonzero"
             id="path117" />
        </g>
        <g
           clip-path="url(#a00e92db67)"
           id="g119">
          <path
             fill="#1c6793"
             d="m 434.41797,492.82422 c 2.76172,-6.52735 6.17578,-12.81641 10.15625,-18.69922 3.92187,-5.80469 8.42578,-11.26172 13.38672,-16.22266 4.96093,-4.96093 10.41797,-9.46484 16.22265,-13.39062 5.88282,-3.97656 12.17578,-7.39063 18.69922,-10.15235 6.66406,-2.82031 13.64063,-4.98437 20.73438,-6.43359 7.22656,-1.47656 14.66015,-2.22656 22.08593,-2.22656 v 7.34765 c -6.93359,0 -13.87109,0.69922 -20.61718,2.07813 -6.61328,1.35156 -13.1211,3.37109 -19.33985,6 -6.08593,2.57812 -11.95703,5.76562 -17.44531,9.47656 -5.41797,3.66016 -10.51172,7.86719 -15.14453,12.4961 -4.62891,4.6289 -8.83203,9.72656 -12.49609,15.14453 -3.71094,5.48828 -6.89844,11.35937 -9.47657,17.44531 -2.6289,6.21875 -4.64843,12.72656 -6,19.33984 -1.375,6.7461 -2.07812,13.6836 -2.07812,20.61719 h -7.34766 c 0,-7.42578 0.75,-14.85937 2.22656,-22.08594 1.44922,-7.09375 3.61329,-14.0664 6.4336,-20.73437"
             fill-opacity="1"
             fill-rule="nonzero"
             id="path118" />
        </g>
        <g
           clip-path="url(#b5c7f68b2d)"
           id="g120">
          <path
             fill="#1c6793"
             d="m 422.90234,487.95703 c 3.07422,-7.26562 6.87891,-14.27344 11.3086,-20.82422 4.37109,-6.46875 9.38672,-12.54687 14.91015,-18.07031 5.52344,-5.52344 11.60547,-10.53906 18.07032,-14.91016 6.55078,-4.42968 13.55859,-8.23437 20.82421,-11.30859 7.42188,-3.14063 15.19141,-5.55078 23.08985,-7.16406 8.05078,-1.64453 16.32812,-2.48047 24.59765,-2.48047 v 7.13281 c -7.78906,0 -15.58593,0.78516 -23.17187,2.33594 -7.43359,1.51953 -14.74609,3.78906 -21.73438,6.74609 -6.84375,2.89453 -13.4414,6.47656 -19.60937,10.64844 -6.09375,4.11328 -11.82031,8.83984 -17.02344,14.04297 -5.20312,5.20312 -9.92578,10.92969 -14.04297,17.01953 -4.17187,6.17187 -7.7539,12.76953 -10.64843,19.61328 -2.95704,6.98828 -5.22657,14.30078 -6.7461,21.73438 -1.55078,7.58593 -2.33594,15.38281 -2.33594,23.17187 h -7.13281 c 0,-8.26953 0.83594,-16.54687 2.48047,-24.59766 1.61328,-7.89843 4.02344,-15.66796 7.16406,-23.08984"
             fill-opacity="1"
             fill-rule="nonzero"
             id="path119" />
        </g>
        <g
           clip-path="url(#f4c067e5be)"
           id="g121">
          <path
             fill="#1c6793"
             d="m 411.39062,483.08984 c 3.38672,-8.01172 7.58204,-15.73437 12.46094,-22.95312 4.81641,-7.125 10.34375,-13.82422 16.42969,-19.91406 6.08984,-6.08594 12.78906,-11.61719 19.91797,-16.4336 7.21484,-4.875 14.9375,-9.07031 22.94922,-12.45703 8.17968,-3.46094 16.74218,-6.11719 25.44531,-7.89844 8.875,-1.8164 18,-2.73437 27.10937,-2.73437 v 6.91797 c -8.64453,0 -17.30078,0.87109 -25.72656,2.59375 -8.2539,1.6875 -16.375,4.20703 -24.13281,7.48828 -7.59766,3.21484 -14.92578,7.19531 -21.77344,11.82422 -6.76172,4.57031 -13.12109,9.8164 -18.89453,15.58984 -5.77734,5.77734 -11.02344,12.13672 -15.59375,18.89844 -4.62891,6.84765 -8.60937,14.17578 -11.82422,21.77344 -3.28125,7.76171 -5.80078,15.8789 -7.48828,24.13281 -1.72266,8.42578 -2.59375,17.08203 -2.59375,25.72656 h -6.91797 c 0,-9.10937 0.91797,-18.23437 2.73438,-27.10937 1.78125,-8.70313 4.4375,-17.26563 7.89843,-25.44532"
             fill-opacity="1"
             fill-rule="nonzero"
             id="path120" />
        </g>
        <g
           clip-path="url(#b7c0e09faf)"
           id="g122">
          <path
             fill="#1c6793"
             d="m 250.20312,414.92969 c 7.78907,-18.41797 17.41797,-36.16016 28.61719,-52.74219 11.0586,-16.36328 23.7461,-31.74219 37.71094,-45.71484 13.97266,-13.96485 29.35156,-26.65235 45.71484,-37.71094 16.58203,-11.19922 34.32422,-20.82813 52.74219,-28.61719 18.80469,-7.95312 38.48438,-14.0625 58.49219,-18.15625 20.40625,-4.17969 41.34375,-6.29687 62.22265,-6.29687 v 3.89062 c -20.61718,0 -41.28906,2.08984 -61.4414,6.21484 -19.75781,4.04297 -39.1875,10.07813 -57.75781,17.92969 -18.1836,7.69141 -35.70704,17.19922 -52.07813,28.26172 -16.16016,10.91406 -31.34375,23.44531 -45.14062,37.23828 -13.79297,13.79297 -26.32422,28.98047 -37.23829,45.14063 -11.0625,16.37109 -20.57031,33.89453 -28.26171,52.07812 -7.85157,18.57031 -13.88672,38 -17.92969,57.75781 -4.125,20.15235 -6.21485,40.82422 -6.21485,61.44141 H 225.75 c 0,-20.87891 2.11719,-41.8125 6.29687,-62.22266 4.09375,-20.00781 10.20313,-39.6875 18.15625,-58.49218"
             fill-opacity="1"
             fill-rule="nonzero"
             id="path121" />
        </g>
        <g
           clip-path="url(#feb31ea743)"
           id="g123">
          <path
             fill="#1c6793"
             d="m 450.75781,535.64453 c 0,-11.46484 2.2461,-22.58984 6.67969,-33.06641 4.27734,-10.11328 10.40234,-19.19921 18.20312,-26.99609 7.79688,-7.80078 16.88282,-13.92578 27,-18.20312 10.47266,-4.4336 21.59766,-6.67969 33.0625,-6.67969 v 84.94531 h -84.94531"
             fill-opacity="1"
             fill-rule="nonzero"
             id="path122" />
        </g>
        <g
           clip-path="url(#d0a7f3912f)"
           id="g124">
          <path
             fill="#1c6793"
             d="m 399.875,478.22266 c 3.70312,-8.75391 8.28516,-17.19141 13.61328,-25.07813 5.26172,-7.78906 11.30469,-15.10937 17.95703,-21.75781 6.65235,-6.65235 13.97266,-12.69531 21.75781,-17.95703 7.88672,-5.32813 16.32422,-9.91016 25.07813,-13.61328 8.9375,-3.78125 18.28906,-6.6836 27.80078,-8.62891 9.70313,-1.98047 19.66797,-2.98828 29.62109,-2.98828 v 6.69922 c -9.5,0 -19.01562,0.96093 -28.28125,2.85547 -9.07421,1.85546 -18,4.625 -26.52734,8.23437 -8.35547,3.53516 -16.41016,7.90625 -23.9375,12.99219 -7.4375,5.02344 -14.42578,10.79297 -20.77344,17.14453 -6.35156,6.34766 -12.12109,13.33594 -17.14453,20.76953 -5.08594,7.53125 -9.45703,15.58594 -12.99219,23.94141 -3.60937,8.52734 -6.3789,17.45312 -8.23437,26.52734 -1.89453,9.26563 -2.85547,18.78125 -2.85547,28.28125 h -6.69922 c 0,-9.95312 1.00781,-19.91797 2.98828,-29.62109 1.94532,-9.51172 4.84766,-18.86328 8.62891,-27.80078"
             fill-opacity="1"
             fill-rule="nonzero"
             id="path123" />
        </g>
        <g
           clip-path="url(#e723adc8e3)"
           id="g125">
          <path
             fill="#1c6793"
             d="m 376.84766,468.48828 c 4.33203,-10.23828 9.6875,-20.10547 15.92187,-29.33203 6.15234,-9.10938 13.21875,-17.67188 20.99609,-25.44922 7.77735,-7.77734 16.34375,-14.84375 25.44922,-20.99609 9.22657,-6.23438 19.09375,-11.58985 29.33203,-15.92188 10.45313,-4.42187 21.39063,-7.8164 32.51172,-10.08984 11.35157,-2.32422 23.00782,-3.5 34.64453,-3.5 v 6.26953 c -11.21484,0 -22.44921,1.13281 -33.39062,3.37109 -10.71094,2.19141 -21.25,5.46485 -31.32422,9.72266 -9.86719,4.17578 -19.375,9.33594 -28.26172,15.33984 -8.78125,5.9336 -17.03125,12.73828 -24.52734,20.23828 -7.4961,7.4961 -14.30469,15.7461 -20.23828,24.52735 -6.00391,8.88672 -11.16407,18.39844 -15.33985,28.26172 -4.26172,10.07422 -7.53125,20.61328 -9.72265,31.32422 -2.23828,10.9414 -3.3711,22.17578 -3.3711,33.39062 h -6.26953 c 0,-11.63672 1.17578,-23.29297 3.5,-34.64453 2.27344,-11.12109 5.66797,-22.05859 10.08985,-32.51172"
             fill-opacity="1"
             fill-rule="nonzero"
             id="path124" />
        </g>
        <g
           clip-path="url(#e012af0ac9)"
           id="g126">
          <path
             fill="#1c6793"
             d="m 388.35937,473.35547 c 4.01954,-9.4961 8.98438,-18.64844 14.76954,-27.20313 5.70703,-8.44922 12.26171,-16.39062 19.47656,-23.60547 7.21484,-7.21484 15.15625,-13.76953 23.60547,-19.47656 8.55468,-5.78125 17.70703,-10.75 27.20312,-14.76953 9.69531,-4.09766 19.83985,-7.24609 30.15625,-9.35937 10.52735,-2.15235 21.33985,-3.24219 32.13281,-3.24219 v 6.48437 c -10.35937,0 -20.73437,1.04688 -30.83593,3.11328 -9.89453,2.02344 -19.625,5.04297 -28.92578,8.97657 -9.11329,3.85547 -17.89454,8.62109 -26.10157,14.16797 -8.10547,5.47656 -15.72656,11.76562 -22.64843,18.6875 -6.92579,6.92578 -13.21485,14.54687 -18.69141,22.65234 -5.54688,8.20703 -10.3125,16.99219 -14.16797,26.10156 -3.93359,9.30078 -6.95312,19.03125 -8.97656,28.92578 -2.06641,10.10547 -3.11328,20.47657 -3.11328,30.83594 h -6.48438 c 0,-10.79297 1.08985,-21.60547 3.24219,-32.13281 2.11328,-10.31641 5.26172,-20.46094 9.35937,-30.15625"
             fill-opacity="1"
             fill-rule="nonzero"
             id="path125" />
        </g>
        <g
           clip-path="url(#4e5851b22e)"
           id="g127">
          <path
             fill="#1c6793"
             d="m 445.92969,497.69141 c 2.44922,-5.78125 5.47656,-11.35938 9.0039,-16.57422 3.47657,-5.14063 7.46875,-9.98047 11.86719,-14.375 4.39453,-4.39844 9.23438,-8.39063 14.37891,-11.86719 5.21093,-3.52734 10.78906,-6.55469 16.57031,-9.00391 5.91016,-2.5 12.08984,-4.41797 18.37891,-5.69922 6.40234,-1.30859 12.98828,-1.97265 19.57421,-1.97265 v 7.5664 c -6.07812,0 -12.15625,0.60938 -18.0625,1.81641 -5.79687,1.18359 -11.49609,2.95313 -16.9414,5.25781 -5.33203,2.25782 -10.47656,5.05078 -15.28125,8.30078 -4.7461,3.21094 -9.21094,6.89454 -13.26953,10.94922 -4.05469,4.0586 -7.73828,8.51953 -10.94922,13.26563 -3.25,4.80859 -6.04297,9.95312 -8.30078,15.28515 -2.30469,5.44532 -4.07422,11.14454 -5.25782,16.94141 -1.20703,5.90625 -1.8164,11.98438 -1.8164,18.0625 h -7.56641 c 0,-6.58594 0.66406,-13.17187 1.97266,-19.57812 1.28125,-6.28516 3.19922,-12.46485 5.69922,-18.375"
             fill-opacity="1"
             fill-rule="nonzero"
             id="path126" />
        </g>
        <g
           clip-path="url(#99067f06d1)"
           id="g128">
          <path
             fill="#1c6793"
             d="m 100.48438,351.60156 c 11.875,-28.08203 26.55859,-55.13672 43.63671,-80.41797 16.84375,-24.9375 36.17969,-48.37109 57.46094,-69.65625 21.28906,-21.28515 44.72266,-40.62109 69.66016,-57.46484 25.28125,-17.07812 52.33593,-31.76172 80.41797,-43.63672 28.6875,-12.136718 58.71093,-21.45703 89.23046,-27.699218 31.10938,-6.371093 63.01172,-9.597656 94.8125,-9.597656 v 1.199219 c -31.72265,0 -63.53906,3.21875 -94.57031,9.570313 C 410.6875,80.125 380.74219,89.421875 352.125,101.52734 c -28.00781,11.84766 -54.99609,26.49219 -80.21094,43.52344 -24.875,16.80469 -48.2539,36.08984 -69.48437,57.32031 -21.23047,21.23047 -40.51563,44.60938 -57.32032,69.48438 -17.03515,25.21484 -31.67968,52.20312 -43.52343,80.21484 -12.105471,28.61328 -21.402346,58.5586 -27.628909,89 -6.351562,31.03125 -9.574219,62.85156 -9.574219,94.57422 H 63.1875 c 0,-31.80469 3.230469,-63.70312 9.597656,-94.8125 6.242188,-30.51953 15.5625,-60.53906 27.699224,-89.23047"
             fill-opacity="1"
             fill-rule="nonzero"
             id="path127" />
        </g>
        <g
           clip-path="url(#11febb69fa)"
           id="g129">
          <path
             fill="#1c6793"
             d="m 112.00781,356.47656 c 11.5625,-27.33594 25.85547,-53.67578 42.48438,-78.28515 16.39843,-24.27735 35.22265,-47.08985 55.94531,-67.8125 20.71875,-20.72266 43.53516,-39.54688 67.8125,-55.94922 24.60937,-16.625 50.94922,-30.91797 78.28516,-42.48047 27.92968,-11.8125 57.15234,-20.882814 86.86328,-26.964845 30.28906,-6.199219 61.34375,-9.339844 92.30468,-9.339844 v 1.382813 c -30.86718,0 -61.83203,3.132812 -92.02734,9.3125 -29.62109,6.0625 -58.75781,15.109376 -86.60156,26.882816 -27.25391,11.53125 -53.51563,25.77734 -78.05078,42.35156 -24.20313,16.35547 -46.94922,35.12109 -67.60938,55.78125 -20.66015,20.66015 -39.42578,43.40625 -55.78125,67.60937 C 139.05859,303.5 124.8125,329.76172 113.28125,357.01562 101.50391,384.85937 92.460938,414 86.398438,443.61719 c -6.179688,30.19531 -9.3125,61.16015 -9.3125,92.02734 h -1.382813 c 0,-30.96094 3.144531,-62.01953 9.339844,-92.30469 6.082031,-29.70703 15.152341,-58.93359 26.964841,-86.86328"
             fill-opacity="1"
             fill-rule="nonzero"
             id="path128" />
        </g>
        <g
           clip-path="url(#867e332f08)"
           id="g130">
          <path
             fill="#1c6793"
             d="m 123.53516,361.35156 c 11.24609,-26.59375 25.15234,-52.21484 41.32421,-76.15625 15.95313,-23.61719 34.26563,-45.80859 54.42579,-65.96875 20.16015,-20.16015 42.35156,-38.47265 65.96875,-54.42578 23.9414,-16.17187 49.5625,-30.07812 76.15625,-41.32422 27.16796,-11.49218 55.59765,-20.3164 84.5,-26.230466 29.46093,-6.027344 59.67187,-9.085938 89.79296,-9.085938 v 1.570313 c -30.01562,0 -60.12109,3.046875 -89.48046,9.054687 -28.79688,5.894534 -57.12891,14.687504 -84.19922,26.136724 -26.5,11.21093 -52.03516,25.06249 -75.88672,41.17968 -23.53516,15.89844 -45.65625,34.14453 -65.74219,54.23438 -20.08984,20.08984 -38.33594,42.20703 -54.23437,65.73828 -16.11719,23.85547 -29.96875,49.39062 -41.17969,75.89062 -11.44922,27.07422 -20.24609,55.40235 -26.13672,84.19922 -6.007812,29.35938 -9.054688,59.46485 -9.054688,89.48047 H 88.21875 c 0,-30.12109 3.058594,-60.33203 9.085938,-89.79297 5.914062,-28.90234 14.738282,-57.32812 26.230472,-84.5"
             fill-opacity="1"
             fill-rule="nonzero"
             id="path129" />
        </g>
        <g
           clip-path="url(#199f86aa62)"
           id="g131">
          <path
             fill="#1c6793"
             d="m 88.957031,346.72656 c 12.191409,-28.82422 27.261719,-56.60156 44.789059,-82.54687 17.29688,-25.59766 37.14063,-49.65235 58.99219,-71.5 21.84766,-21.85157 45.90234,-41.69532 71.5,-58.99219 25.94531,-17.52734 53.72266,-32.59766 82.54688,-44.789062 29.44921,-12.457032 60.26953,-22.023438 91.59765,-28.433594 31.9336,-6.539063 64.67578,-9.851563 97.32031,-9.851563 V 51.625 c -32.57421,0 -65.25,3.304688 -97.11718,9.828125 -31.26563,6.398437 -62.01953,15.941406 -91.40625,28.371094 -28.76953,12.167971 -56.48438,27.207031 -82.37891,44.699221 -25.54297,17.26172 -49.55078,37.0625 -71.35156,58.86718 -21.80469,21.80079 -41.60938,45.8086 -58.86719,71.35157 -17.49219,25.89453 -32.53125,53.61328 -44.699218,82.3789 -12.429687,29.38672 -21.972656,60.14063 -28.371093,91.40625 -6.523438,31.86328 -9.828125,64.53907 -9.828125,97.11719 h -1.011719 c 0,-32.64453 3.316406,-65.38672 9.851563,-97.32031 C 66.933594,406.99609 76.5,376.17578 88.957031,346.72656"
             fill-opacity="1"
             fill-rule="nonzero"
             id="path130" />
        </g>
        <g
           clip-path="url(#2adef45221)"
           id="g132">
          <path
             fill="#1c6793"
             d="m 42.851562,327.22656 c 13.453126,-31.80469 30.078126,-62.44531 49.417969,-91.07031 19.074219,-28.23828 40.968749,-54.77734 65.066409,-78.875 24.10156,-24.10156 50.64062,-45.99609 78.8789,-65.070312 28.625,-19.339844 59.26563,-35.964844 91.07032,-49.417969 32.49609,-13.746094 66.49609,-24.300781 101.0625,-31.375 C 463.57812,4.210938 499.69922,0.554688 535.70312,0.554688 v 0.261718 c -35.98828,0 -72.08984,3.652344 -107.30468,10.859375 -34.54688,7.066407 -68.53516,17.617188 -101.01172,31.355469 -31.78906,13.445312 -62.41406,30.0625 -91.02735,49.394531 -28.22265,19.066409 -54.75,40.949219 -78.83984,65.039059 -24.08594,24.08985 -45.96875,50.61328 -65.035155,78.83594 C 73.152344,264.91406 56.535156,295.53906 43.089844,327.32812 29.351562,359.80469 18.804688,393.79297 11.734375,428.33984 4.527344,463.55078 0.875,499.65234 0.875,535.64453 H 0.613281 c 0,-36.00781 3.660157,-72.12891 10.867188,-107.35547 7.070312,-34.5664 17.628906,-68.57031 31.371093,-101.0625"
             fill-opacity="1"
             fill-rule="nonzero"
             id="path131" />
        </g>
        <g
           clip-path="url(#f89163549f)"
           id="g133">
          <path
             fill="#1c6793"
             d="M 54.378906,332.10156 C 67.515625,301.04297 83.75,271.11719 102.63672,243.16016 c 18.63281,-27.57813 40.01562,-53.4961 63.55078,-77.03125 23.53516,-23.53516 49.45703,-44.91797 77.03125,-63.55078 27.95703,-18.886724 57.87891,-35.121099 88.94141,-48.257818 31.73437,-13.425781 64.9375,-23.730468 98.69531,-30.640624 34.40625,-7.039063 69.68359,-10.609376 104.84765,-10.609376 v 0.445313 c -35.13671,0 -70.38281,3.570313 -104.75781,10.601563 -33.72656,6.902343 -66.90625,17.203124 -98.60937,30.613281 -31.03516,13.125 -60.9336,29.347656 -88.86719,48.218751 -27.55078,18.61328 -53.44531,39.98047 -76.96484,63.5 -23.51563,23.51562 -44.88282,49.40625 -63.4961,76.96094 -18.871091,27.93359 -35.093748,57.83203 -48.218748,88.86328 -13.410156,31.70703 -23.710937,64.88672 -30.613281,98.61328 -7.03125,34.375 -10.601562,69.62109 -10.601562,104.75781 h -0.445313 c 0,-35.16797 3.570313,-70.44141 10.613282,-104.84766 6.90625,-33.75781 17.214843,-66.96093 30.636718,-98.69531"
             fill-opacity="1"
             fill-rule="nonzero"
             id="path132" />
        </g>
        <g
           clip-path="url(#cfa7bae835)"
           id="g134">
          <path
             fill="#1c6793"
             d="m 77.429688,341.85156 c 12.507812,-29.57031 27.964842,-58.0625 45.949222,-84.67969 17.73828,-26.2539 38.09375,-50.92968 60.50781,-73.34375 22.41406,-22.41406 47.08984,-42.76953 73.34375,-60.50781 26.61719,-17.98437 55.10937,-33.441404 84.67969,-45.949216 30.21093,-12.777344 61.82421,-22.59375 93.96484,-29.167969 32.75781,-6.707031 66.34375,-10.101563 99.82812,-10.101563 v 0.820313 c -33.42968,0 -66.96093,3.394531 -99.66406,10.085937 -32.08594,6.566407 -63.64844,16.363282 -93.80859,29.121094 C 312.70703,90.613281 284.26562,106.04688 257.69141,124 c -26.21094,17.71094 -50.84766,38.03516 -73.22266,60.41016 -22.375,22.375 -42.69922,47.00781 -60.40625,73.22265 -17.95703,26.57422 -33.390625,55.01563 -45.875,84.53906 -12.757812,30.16016 -22.554688,61.72266 -29.121094,93.8086 -6.691406,32.70312 -10.085937,66.23437 -10.085937,99.66406 h -0.820313 c 0,-33.48437 3.398438,-67.07422 10.101563,-99.83203 6.574219,-32.13281 16.390625,-63.75 29.167969,-93.96094"
             fill-opacity="1"
             fill-rule="nonzero"
             id="path133" />
        </g>
        <g
           clip-path="url(#521111f13c)"
           id="g135">
          <path
             fill="#1c6793"
             d="m 135.0625,366.22656 c 10.93359,-25.84765 24.44531,-50.7539 40.16406,-74.02344 15.51172,-22.95703 33.3086,-44.53125 52.90625,-64.1289 19.59766,-19.59766 41.17188,-37.39453 64.12891,-52.90625 23.26953,-15.71875 48.17578,-29.23047 74.02344,-40.16406 26.40625,-11.17188 54.04296,-19.7461 82.13281,-25.4961 28.63672,-5.85937 58.0039,-8.83203 87.28515,-8.83203 v 1.75781 c -29.16406,0 -58.41015,2.96094 -86.93359,8.79688 -27.97656,5.72266 -55.49609,14.26562 -81.80078,25.39062 -25.74219,10.89063 -50.54688,24.34766 -73.72266,40.00391 -22.86328,15.44922 -44.35156,33.17578 -63.86718,52.69141 -19.51954,19.51953 -37.2461,41.00781 -52.69532,63.87109 -15.65625,23.17578 -29.11328,47.98047 -40.0039,73.72656 -11.125,26.30078 -19.66797,53.82031 -25.39063,81.79688 -5.83593,28.52343 -8.79687,57.76953 -8.79687,86.93359 h -1.75781 c 0,-29.28125 2.97265,-58.64844 8.83203,-87.28516 5.74609,-28.08984 14.32422,-55.72265 25.49609,-82.13281"
             fill-opacity="1"
             fill-rule="nonzero"
             id="path134" />
        </g>
        <g
           clip-path="url(#8bfa5fadd6)"
           id="g136">
          <path
             fill="#1c6793"
             d="m 238.6875,410.05859 c 8.10547,-19.15625 18.12109,-37.61718 29.77734,-54.86718 11.5,-17.02344 24.69922,-33.02344 39.23047,-47.55469 14.53125,-14.53125 30.53125,-27.73047 47.55469,-39.23047 17.25,-11.65625 35.71094,-21.67188 54.86719,-29.77734 19.5664,-8.27344 40.04297,-14.62891 60.85547,-18.88672 21.23437,-4.34766 43.01171,-6.55078 64.73046,-6.55078 v 3.67578 c -21.47265,0 -43.0039,2.17578 -63.99218,6.47265 -20.57813,4.21094 -40.82032,10.49219 -60.16407,18.67578 -18.9375,8.01172 -37.1875,17.91407 -54.24218,29.4336 -16.82813,11.37109 -32.64453,24.42187 -47.01172,38.78515 -14.36328,14.36719 -27.41406,30.1836 -38.78516,47.01172 -11.51953,17.05469 -21.42578,35.30469 -29.43359,54.24219 -8.1836,19.34375 -14.46485,39.58594 -18.67578,60.16406 -4.29688,20.98828 -6.47266,42.51953 -6.47266,63.99219 H 213.25 c 0,-21.71875 2.20312,-43.49609 6.55078,-64.72656 4.25781,-20.82031 10.61328,-41.29297 18.88672,-60.85938"
             fill-opacity="1"
             fill-rule="nonzero"
             id="path135" />
        </g>
        <g
           clip-path="url(#ec33675d0c)"
           id="g137">
          <path
             fill="#1c6793"
             d="m 65.902344,336.97656 c 12.820312,-30.3164 28.671875,-59.52344 47.105466,-86.80859 18.1836,-26.91797 39.05469,-52.21485 62.02735,-75.1875 22.97656,-22.97656 48.27343,-43.84375 75.1914,-62.03125 27.28516,-18.433595 56.49219,-34.285158 86.8086,-47.10547 30.97265,-13.101562 63.38281,-23.160156 96.32812,-29.90625 33.58203,-6.871094 68.01563,-10.351562 102.33984,-10.351562 v 0.632812 c -34.28125,0 -68.67187,3.480469 -102.21093,10.34375 -32.90625,6.734375 -65.27735,16.78125 -96.21094,29.863281 -30.27734,12.808594 -59.44531,28.636719 -86.69922,47.050779 -26.88672,18.16016 -52.15234,39.00391 -75.09766,61.94922 -22.94531,22.94922 -43.78906,48.21094 -61.94921,75.09766 -18.414066,27.25 -34.242191,56.42187 -47.050785,86.69922 -13.082031,30.93359 -23.128906,63.30468 -29.863281,96.21093 -6.863282,33.53907 -10.34375,67.92969 -10.34375,102.21094 h -0.632813 c 0,-34.32422 3.484375,-68.75781 10.355469,-102.33984 6.742188,-32.94532 16.800781,-65.35547 29.902344,-96.32813"
             fill-opacity="1"
             fill-rule="nonzero"
             id="path136" />
        </g>
        <g
           clip-path="url(#543bddce72)"
           id="g138">
          <path
             fill="#1c6793"
             d="m 192.63672,390.58203 c 9.35937,-22.13281 20.93359,-43.45703 34.39453,-63.38281 13.28125,-19.66016 28.52344,-38.13672 45.30859,-54.91797 16.78125,-16.78516 35.25782,-32.02734 54.91797,-45.30859 19.92578,-13.46094 41.25,-25.03516 63.37891,-34.39454 22.60937,-9.5625 46.26562,-16.90625 70.3125,-21.82421 24.52344,-5.01954 49.67578,-7.5625 74.7539,-7.5625 V 166 c -24.89062,0 -49.85156,2.52734 -74.1875,7.50391 -23.86718,4.88671 -47.34765,12.17187 -69.78125,21.66406 -21.96484,9.28906 -43.1289,20.77344 -62.90234,34.13281 -19.51172,13.17969 -37.85156,28.30859 -54.50781,44.96484 -16.65625,16.65625 -31.78516,34.9961 -44.96485,54.50782 -13.35937,19.77343 -24.84375,40.9375 -34.13281,62.90234 -9.49219,22.43359 -16.77734,45.91406 -21.66406,69.78125 -4.97656,24.33594 -7.50391,49.29688 -7.50391,74.1875 H 163.25 c 0,-25.07812 2.54297,-50.23047 7.5625,-74.75391 4.91797,-24.04687 12.26172,-47.70312 21.82422,-70.30859"
             fill-opacity="1"
             fill-rule="nonzero"
             id="path137" />
        </g>
        <g
           clip-path="url(#92cf3626f2)"
           id="g139">
          <path
             fill="#1c6793"
             d="m 215.66406,400.32031 c 8.73047,-20.64453 19.52735,-40.53906 32.08594,-59.125 12.39062,-18.34375 26.61328,-35.58203 42.26953,-51.23828 15.65234,-15.65234 32.89453,-29.875 51.23438,-42.26562 18.58593,-12.5586 38.48046,-23.35547 59.125,-32.08594 21.08593,-8.91797 43.15234,-15.76953 65.58203,-20.35938 22.8789,-4.68359 46.34375,-7.05468 69.74218,-7.05468 v 3.24218 c -23.17968,0 -46.42578,2.35157 -69.08984,6.98828 -22.22266,4.54688 -44.08203,11.33204 -64.97266,20.16797 -20.45312,8.65235 -40.15625,19.34375 -58.57031,31.78516 -18.17187,12.27734 -35.25,26.36719 -50.76172,41.875 -15.50781,15.51172 -29.59765,32.58984 -41.875,50.76172 -12.4414,18.41406 -23.13281,38.12109 -31.78515,58.57031 -8.83594,20.89063 -15.6211,42.75 -20.16797,64.97266 -4.63672,22.66406 -6.98828,45.91015 -6.98828,69.08984 H 188.25 c 0,-23.39844 2.375,-46.86328 7.05469,-69.73828 4.58984,-22.43359 11.4414,-44.5 20.35937,-65.58594"
             fill-opacity="1"
             fill-rule="nonzero"
             id="path138" />
        </g>
        <g
           clip-path="url(#959a07bdce)"
           id="g140">
          <path
             fill="#1c6793"
             d="M 146.58594,371.10547 C 157.20312,346 170.33203,321.80859 185.59766,299.20703 c 15.0664,-22.29687 32.35156,-43.25 51.38671,-62.28516 19.03125,-19.03125 39.98829,-36.3164 62.28125,-51.38281 22.60157,-15.26562 46.78907,-28.39453 71.89454,-39.00781 25.64843,-10.85156 52.48437,-19.17969 79.76562,-24.76172 27.8125,-5.6914 56.33594,-8.58203 84.77734,-8.58203 v 1.94922 c -28.30859,0 -56.69921,2.87109 -84.38671,8.53516 -27.15625,5.55859 -53.8711,13.85156 -79.39844,24.64843 -24.98828,10.57031 -49.06641,23.63281 -71.5625,38.83203 -22.19141,14.99219 -43.05078,32.19922 -62,51.14453 -18.94141,18.94922 -36.15235,39.80469 -51.14453,62 -15.19922,22.4961 -28.26172,46.57422 -38.83594,71.5625 -10.79297,25.53125 -19.08594,52.24219 -24.64453,79.39844 -5.66406,27.6875 -8.53516,56.07813 -8.53516,84.38672 h -1.94922 c 0,-28.44141 2.89063,-56.96094 8.58204,-84.77734 5.58203,-27.28125 13.91015,-54.11719 24.75781,-79.76172"
             fill-opacity="1"
             fill-rule="nonzero"
             id="path139" />
        </g>
        <g
           clip-path="url(#15f7aaaa68)"
           id="g141">
          <path
             fill="#1c6793"
             d="m 227.17578,405.19141 c 8.41797,-19.90235 18.82422,-39.07813 30.92969,-57 11.94531,-17.67969 25.65625,-34.30079 40.75,-49.39454 15.09375,-15.09375 31.71484,-28.80468 49.39453,-40.75 17.92187,-12.10546 37.09766,-22.51171 56.99609,-30.92968 20.32813,-8.59766 41.59766,-15.19922 63.22266,-19.625 22.05469,-4.51172 44.67578,-6.80078 67.23437,-6.80078 v 3.46093 c -22.32812,0 -44.71484,2.26172 -66.54296,6.73047 -21.39844,4.375 -42.44922,10.91406 -62.56641,19.42188 -19.69531,8.32812 -38.67188,18.6289 -56.40625,30.60547 -17.5,11.82421 -33.94922,25.39453 -48.88672,40.33203 -14.9375,14.9375 -28.50781,31.38672 -40.32812,48.88672 -11.98047,17.73437 -22.28125,36.71093 -30.60938,56.40625 -8.50781,20.11718 -15.04687,41.16796 -19.42187,62.5664 -4.46875,21.82813 -6.73047,44.21485 -6.73047,66.54297 H 200.75 c 0,-22.55859 2.28906,-45.17969 6.80078,-67.23437 4.42578,-21.625 11.02734,-42.89454 19.625,-63.21875"
             fill-opacity="1"
             fill-rule="nonzero"
             id="path140" />
        </g>
        <g
           clip-path="url(#761a41b235)"
           id="g142">
          <path
             fill="#1c6793"
             d="m 204.15234,395.44922 c 9.04297,-21.38672 20.22657,-41.9961 33.23828,-61.25 12.83594,-19.00391 27.57032,-36.85938 43.78907,-53.07813 16.21875,-16.22265 34.07812,-30.95312 53.07812,-43.78906 19.25391,-13.01172 39.86328,-24.19141 61.25,-33.23828 21.84766,-9.24219 44.70703,-16.33594 67.94922,-21.09375 23.69922,-4.85156 48.00781,-7.30859 72.24609,-7.30859 v 3.02734 c -24.03515,0 -48.14062,2.4375 -71.64062,7.24609 -23.04297,4.71485 -45.71094,11.75391 -67.375,20.91407 -21.20703,8.97265 -41.64453,20.0625 -60.73828,32.96093 -18.83985,12.72657 -36.54688,27.33594 -52.62891,43.41797 -16.08594,16.08203 -30.69531,33.79297 -43.42187,52.63281 -12.89844,19.09375 -23.98828,39.53125 -32.96094,60.73829 -9.16016,21.66406 -16.19922,44.33203 -20.91406,67.375 -4.8086,23.5 -7.2461,47.60546 -7.2461,71.64062 H 175.75 c 0,-24.23828 2.45703,-48.54687 7.30859,-72.24609 4.75782,-23.24219 11.85157,-46.10157 21.09375,-67.94922"
             fill-opacity="1"
             fill-rule="nonzero"
             id="path141" />
        </g>
        <g
           clip-path="url(#8e15cd68d3)"
           id="g143">
          <path
             fill="#1c6793"
             d="m 158.09766,375.97266 c 10.30468,-24.36329 23.04296,-47.83594 37.85937,-69.76563 14.62109,-21.63672 31.39453,-41.97656 49.86719,-60.44531 18.46484,-18.46875 38.80469,-35.2461 60.4414,-49.86328 21.92969,-14.81641 45.40235,-27.55469 69.76563,-37.85938 24.88672,-10.52344 50.92969,-18.60547 77.40234,-24.02344 26.98828,-5.52343 54.67188,-8.32812 82.26953,-8.32812 v 2.16406 c -27.45312,0 -54.98828,2.78516 -81.83593,8.28125 -26.33594,5.38672 -52.23828,13.42969 -76.9961,23.89844 -24.23047,10.25 -47.58203,22.91797 -69.39453,37.65625 -21.52344,14.54297 -41.7539,31.23047 -60.125,49.60156 -18.37109,18.375 -35.0625,38.60156 -49.60156,60.12891 -14.73828,21.8125 -27.41016,45.16406 -37.66016,69.39844 -10.46875,24.7539 -18.51172,50.65625 -23.89843,76.99218 -5.4961,26.84766 -8.28125,54.38282 -8.28125,81.83594 h -2.16407 c 0,-27.59766 2.80469,-55.27734 8.32813,-82.26953 5.41797,-26.47266 13.5,-52.51563 24.02344,-77.40234"
             fill-opacity="1"
             fill-rule="nonzero"
             id="path142" />
        </g>
        <g
           clip-path="url(#227cd15096)"
           id="g144">
          <path
             fill="#1c6793"
             d="m 181.125,385.71094 c 9.67578,-22.875 21.63672,-44.91407 35.54687,-65.51172 13.72657,-20.31641 29.48438,-39.41406 46.82813,-56.75781 17.34375,-17.34375 36.44141,-33.09766 56.76172,-46.82813 20.59375,-13.91016 42.63281,-25.87109 65.50781,-35.54687 23.36719,-9.88282 47.81641,-17.47266 72.67578,-22.5586 25.34375,-5.1875 51.33985,-7.8164 77.25781,-7.8164 v 2.58984 c -25.74609,0 -51.5625,2.61328 -76.73828,7.76562 -24.6914,5.05469 -48.97656,12.58985 -72.1875,22.41016 -22.71875,9.60938 -44.60937,21.48828 -65.0664,35.30469 -20.17969,13.63672 -39.14844,29.28515 -56.37891,46.51172 -17.22656,17.23047 -32.875,36.19922 -46.51172,56.3789 -13.8164,20.45703 -25.69531,42.34766 -35.30469,65.07032 -9.82031,23.20703 -17.35546,47.49609 -22.41015,72.18359 -5.15235,25.17578 -7.76563,50.99219 -7.76563,76.73828 H 150.75 c 0,-25.91797 2.62891,-51.91406 7.81641,-77.25781 5.08593,-24.85938 12.67578,-49.3086 22.55859,-72.67578"
             fill-opacity="1"
             fill-rule="nonzero"
             id="path143" />
        </g>
        <g
           clip-path="url(#3a9aaf0527)"
           id="g145">
          <path
             fill="#1c6793"
             d="m 169.61328,380.84375 c 9.98828,-23.62109 22.33594,-46.375 36.70313,-67.64063 14.17187,-20.97656 30.4375,-40.69531 48.34765,-58.60156 17.90625,-17.90625 37.6211,-34.17187 58.59766,-48.34375 21.26562,-14.36719 44.01953,-26.71484 67.63672,-36.70312 24.1289,-10.20703 49.375,-18.04297 75.03906,-23.29297 26.16797,-5.35547 53.00781,-8.07031 79.76562,-8.07031 v 2.3789 c -26.60156,0 -53.27734,2.69922 -79.28906,8.01953 -25.51172,5.22266 -50.60547,13.01172 -74.58594,23.15625 -23.48046,9.92969 -46.09765,22.19922 -67.23437,36.48438 -20.85156,14.08594 -40.44922,30.2539 -58.25,48.05469 -17.80078,17.80078 -33.96875,37.39843 -48.05469,58.25 -14.28125,21.13671 -26.55469,43.75781 -36.48828,67.23437 -10.14453,23.98047 -17.92969,49.07422 -23.15234,74.58594 -5.32032,26.01562 -8.01953,52.6914 -8.01953,79.28906 H 138.25 c 0,-26.75781 2.71484,-53.59766 8.07031,-79.76562 5.25,-25.66407 13.08594,-50.91016 23.29297,-75.03516"
             fill-opacity="1"
             fill-rule="nonzero"
             id="path144" />
        </g>
      </g>
    </g>
  </g>
</svg>
