<svg width="53" height="53" viewBox="0 0 53 53" fill="none" xmlns="http://www.w3.org/2000/svg">
<g id="icon / bootstrap / outline &#38; logos / nut">
<path id="Vector" d="M37.8286 6.625L49.1838 26.5L37.8286 46.375H15.1711L3.81583 26.5L15.1711 6.625H37.8286ZM15.1711 3.3125C14.5872 3.31269 14.0137 3.4672 13.5088 3.76039C13.0039 4.05357 12.5854 4.47501 12.2958 4.982L0.940576 24.857C0.654739 25.3574 0.504395 25.9237 0.504395 26.5C0.504395 27.0763 0.654739 27.6426 0.940576 28.143L12.2958 48.018C12.5854 48.525 13.0039 48.9464 13.5088 49.2396C14.0137 49.5328 14.5872 49.6873 15.1711 49.6875H37.8286C38.4124 49.6873 38.9859 49.5328 39.4908 49.2396C39.9958 48.9464 40.4142 48.525 40.7038 48.018L52.0624 28.143C52.3482 27.6426 52.4986 27.0763 52.4986 26.5C52.4986 25.9237 52.3482 25.3574 52.0624 24.857L40.7038 4.982C40.4142 4.47501 39.9958 4.05357 39.4908 3.76039C38.9859 3.4672 38.4124 3.31269 37.8286 3.3125H15.1711Z" fill="white"/>
<path id="Vector_2" d="M22.6842 19.653C21.7348 20.1928 20.9016 20.9151 20.2324 21.7782C19.5633 22.6413 19.0715 23.6283 18.7853 24.6823C18.4992 25.7363 18.4243 26.8364 18.5651 27.9195C18.7059 29.0025 19.0595 30.047 19.6056 30.9928C20.1516 31.9386 20.8794 32.767 21.747 33.4304C22.6145 34.0938 23.6047 34.5791 24.6606 34.8582C25.7164 35.1374 26.8171 35.2049 27.8991 35.057C28.9812 34.909 30.0233 34.5485 30.9655 33.9961C32.852 32.8902 34.2245 31.0829 34.7834 28.9688C35.3424 26.8546 35.0424 24.6052 33.949 22.7113C32.8556 20.8175 31.0575 19.4331 28.947 18.8601C26.8366 18.2871 24.5853 18.5722 22.6842 19.653ZM16.788 32.6215C15.9956 31.3019 15.474 29.8378 15.2534 28.3145C15.0329 26.7912 15.1179 25.2393 15.5034 23.7492C15.8889 22.2591 16.5673 20.8606 17.499 19.6355C18.4306 18.4103 19.5969 17.3829 20.9298 16.6132C22.2627 15.8435 23.7355 15.3469 25.2624 15.1524C26.7892 14.9579 28.3395 15.0693 29.8228 15.4803C31.3061 15.8912 32.6927 16.5933 33.9018 17.5458C35.1109 18.4982 36.1182 19.6819 36.865 21.0277C38.3782 23.6892 38.7773 26.8411 37.9751 29.7957C37.173 32.7502 35.2347 35.2676 32.5834 36.7984C29.9321 38.3292 26.7829 38.7492 23.823 37.9666C20.8632 37.1841 18.333 35.2626 16.7847 32.6215H16.788Z" fill="white"/>
</g>
</svg>
