<svg width="40" height="32" viewBox="0 0 40 32" fill="none" xmlns="http://www.w3.org/2000/svg">
<g id="&#240;&#159;&#166;&#134; icon &#34;group&#34;">
<path id="Vector" d="M1 31.0001V29.2354C1 22.413 6.41321 16.8824 13.0907 16.8824C19.7683 16.8824 25.1814 22.413 25.1814 29.2354V31.0001" stroke="white" stroke-width="2" stroke-linecap="round"/>
<path id="Vector_2" d="M21.7275 20.4116C21.7275 15.5386 25.5942 11.5881 30.3638 11.5881C35.1334 11.5881 39 15.5386 39 20.4116V21.294" stroke="white" stroke-width="2" stroke-linecap="round"/>
<path id="Vector_3" d="M12.7127 17.1176C16.5284 17.1176 19.6217 13.9572 19.6217 10.0588C19.6217 6.16033 16.5284 3 12.7127 3C8.89697 3 5.80371 6.16033 5.80371 10.0588C5.80371 13.9572 8.89697 17.1176 12.7127 17.1176Z" stroke="white" stroke-width="2" stroke-linecap="round" stroke-linejoin="round"/>
<path id="Vector_4" d="M30.3644 11.5882C33.2262 11.5882 35.5461 9.21795 35.5461 6.29411C35.5461 3.37026 33.2262 1 30.3644 1C27.5025 1 25.1826 3.37026 25.1826 6.29411C25.1826 9.21795 27.5025 11.5882 30.3644 11.5882Z" stroke="white" stroke-width="2" stroke-linecap="round" stroke-linejoin="round"/>
</g>
</svg>
