<svg width="28" height="28" viewBox="0 0 28 28" fill="none" xmlns="http://www.w3.org/2000/svg">
<g id="Component 1">
<path id="Vector" d="M16.8966 22.6897C20.0961 22.6897 22.6897 20.096 22.6897 16.8966C22.6897 13.6971 20.0961 11.1035 16.8966 11.1035C13.6972 11.1035 11.1035 13.6971 11.1035 16.8966C11.1035 20.096 13.6972 22.6897 16.8966 22.6897Z" fill="#E2E8FF" fill-opacity="0.1" stroke="#E2E8FF" stroke-width="0.965517" stroke-linejoin="round"/>
<path id="Vector_2" d="M11.1037 22.6897C14.3031 22.6897 16.8968 20.096 16.8968 16.8966C16.8968 13.6971 14.3031 11.1035 11.1037 11.1035C7.90421 11.1035 5.31055 13.6971 5.31055 16.8966C5.31055 20.096 7.90421 22.6897 11.1037 22.6897Z" fill="#E2E8FF" fill-opacity="0.1" stroke="#E2E8FF" stroke-width="0.965517" stroke-linejoin="round"/>
<path id="Vector_3" d="M14.0001 16.8965C17.1996 16.8965 19.7932 14.3029 19.7932 11.1034C19.7932 7.90399 17.1996 5.31033 14.0001 5.31033C10.8007 5.31033 8.20703 7.90399 8.20703 11.1034C8.20703 14.3029 10.8007 16.8965 14.0001 16.8965Z" fill="#E2E8FF" fill-opacity="0.1" stroke="#E2E8FF" stroke-width="0.965517" stroke-linejoin="round"/>
<path id="Vector_4" d="M11.1514 16.149C11.3868 14.3221 12.4732 12.7618 14.0001 11.8785C15.5271 12.7618 16.6135 14.3221 16.8489 16.149C16.0077 16.625 15.0356 16.8966 14.0001 16.8966C12.9646 16.8966 11.9926 16.625 11.1514 16.149Z" fill="#E2E8FF" fill-opacity="0.32"/>
</g>
</svg>
