<svg width="26" height="24" viewBox="0 0 26 24" fill="none" xmlns="http://www.w3.org/2000/svg">
<g id="icon / feathericons / instagram">
<path id="Vector" d="M18.1081 2H7.90451C5.08688 2 2.80273 4.23858 2.80273 7V17C2.80273 19.7614 5.08688 22 7.90451 22H18.1081C20.9257 22 23.2098 19.7614 23.2098 17V7C23.2098 4.23858 20.9257 2 18.1081 2Z" stroke="white" stroke-width="2" stroke-linecap="round" stroke-linejoin="round"/>
<path id="Vector_2" d="M17.0875 11.37C17.2134 12.2022 17.0683 13.0522 16.6729 13.799C16.2776 14.5458 15.652 15.1514 14.8851 15.5297C14.1183 15.9079 13.2493 16.0396 12.4018 15.9059C11.5542 15.7723 10.7712 15.3801 10.1642 14.7852C9.55714 14.1902 9.15698 13.4229 9.02059 12.5922C8.8842 11.7615 9.01855 10.9099 9.40451 10.1584C9.79047 9.40685 10.4084 8.79374 11.1704 8.40624C11.9324 8.01874 12.7997 7.87658 13.6489 8C14.5151 8.12588 15.317 8.52146 15.9362 9.1283C16.5554 9.73515 16.959 10.5211 17.0875 11.37Z" stroke="white" stroke-width="2" stroke-linecap="round" stroke-linejoin="round"/>
<path id="Vector_3" d="M18.6182 6.5H18.6282" stroke="#21272A" stroke-width="2" stroke-linecap="round" stroke-linejoin="round"/>
</g>
</svg>
