<svg width="26" height="24" viewBox="0 0 26 24" fill="none" xmlns="http://www.w3.org/2000/svg">
<g id="icon / heroicons / Outline / location-marker">
<g id="Icon">
<path d="M18.7776 16.6569C17.8119 17.6033 15.7813 19.5934 14.405 20.9422C13.6274 21.7043 12.3836 21.7041 11.6059 20.9419C10.2536 19.6166 8.2631 17.6658 7.23361 16.6569C4.04583 13.5327 4.04583 8.46734 7.23361 5.34315C10.4214 2.21895 15.5898 2.21895 18.7776 5.34315C21.9654 8.46734 21.9654 13.5327 18.7776 16.6569Z" stroke="white" stroke-width="2" stroke-linecap="round" stroke-linejoin="round"/>
<path d="M16.0667 11C16.0667 12.6569 14.6962 14 13.0056 14C11.315 14 9.94455 12.6569 9.94455 11C9.94455 9.34315 11.315 8 13.0056 8C14.6962 8 16.0667 9.34315 16.0667 11Z" stroke="white" stroke-width="2" stroke-linecap="round" stroke-linejoin="round"/>
</g>
</g>
</svg>
