<svg width="19" height="14" viewBox="0 0 19 14" fill="none" xmlns="http://www.w3.org/2000/svg">
<g id="mexico 1" clip-path="url(#clip0_630_245)">
<g id="Mask group">
<mask id="mask0_630_245" style="mask-type:luminance" maskUnits="userSpaceOnUse" x="0" y="0" width="19" height="14">
<g id="Group">
<path id="Vector" d="M0.5 0.142822H18.5V13.8571H0.5V0.142822Z" fill="white"/>
</g>
</mask>
<g mask="url(#mask0_630_245)">
<g id="Group_2">
<g id="Group_3">
<path id="Vector_2" fill-rule="evenodd" clip-rule="evenodd" d="M12.875 0.142822H18.5V13.8571H12.875V0.142822Z" fill="#D9071E"/>
<path id="Vector_3" fill-rule="evenodd" clip-rule="evenodd" d="M0.5 0.142822H7.25V13.8571H0.5V0.142822Z" fill="#006923"/>
<path id="Vector_4" fill-rule="evenodd" clip-rule="evenodd" d="M6.125 0.142822H12.875V13.8571H6.125V0.142822Z" fill="white"/>
<path id="Vector_5" fill-rule="evenodd" clip-rule="evenodd" d="M7.84365 4.90956C7.78386 5.16965 7.82278 5.23105 8.11185 5.23105C8.12687 5.23105 8.15072 5.27415 8.1766 5.32104C8.205 5.37248 8.236 5.42848 8.26058 5.43713C8.25006 5.45132 8.14015 5.65311 8.13958 6.00857C8.13953 6.08177 8.173 6.20235 8.20523 6.31823C8.24022 6.44423 8.27368 6.56457 8.26058 6.61217C8.23926 6.6896 8.14369 6.6052 8.06967 6.53983C8.02731 6.50246 7.99204 6.47126 7.98163 6.48012C7.92876 6.52532 7.90148 6.16749 7.885 5.95132C7.87763 5.85506 7.87245 5.78688 7.86807 5.79484C7.84962 5.75349 7.84208 5.7027 7.83465 5.65252C7.81845 5.54339 7.8027 5.43713 7.67592 5.43713H7.34961V5.68119C7.34961 5.68119 7.53844 5.68119 7.53844 6.1352C7.54153 6.20309 7.62968 6.80012 7.84365 6.8032C7.71827 6.80606 7.71917 6.83149 7.71973 6.8464L7.71979 6.84903C7.71979 7.21429 8.02028 7.25377 8.30113 7.15069C8.46988 7.08869 8.6491 6.96772 8.78325 6.81863C8.97259 6.60817 8.99599 6.33572 8.74737 6.18635C8.65883 6.13315 8.56281 6.11263 8.42848 6.10503C8.45503 6.02492 8.42989 5.95343 8.41026 5.8976C8.39389 5.85095 8.38135 5.81529 8.40615 5.79484C8.68774 5.56283 8.71283 5.34899 8.50797 5.15717C8.48136 5.13229 8.45565 5.09855 8.42916 5.06383C8.37927 4.99836 8.32667 4.92939 8.26058 4.90956C8.29112 4.84698 8.33224 4.77115 8.38388 4.6838L7.90165 4.38965C7.81423 4.53757 7.8288 4.65327 7.84157 4.7541C7.84855 4.80944 7.85496 4.86031 7.84365 4.90956ZM8.36807 6.43309L8.35935 6.44257L8.36526 6.43715C8.36622 6.43549 8.36712 6.43412 8.36807 6.43309ZM8.11292 6.61217C8.11275 6.61223 8.11309 6.61212 8.11371 6.612L8.11922 6.61092C8.11703 6.61126 8.11489 6.61172 8.11371 6.612L8.11292 6.61217ZM7.86807 6.80292C7.86148 6.80292 7.85518 6.80297 7.84917 6.80309L7.85952 6.80286L7.86807 6.80292Z" fill="#A8AC71"/>
<path id="Vector_6" fill-rule="evenodd" clip-rule="evenodd" d="M8.59063 4.66479C8.59063 4.66479 8.20431 4.96917 8.27659 5.29368C8.34881 5.61818 9.11016 5.29368 9.01813 4.97924C8.92611 4.6648 8.59063 4.66479 8.59063 4.66479Z" fill="#FCCA3D"/>
<path id="Vector_7" fill-rule="evenodd" clip-rule="evenodd" d="M11.3377 7.2302C11.3377 7.2302 11.858 5.66371 11.031 4.85283C10.2039 4.04195 9.24813 4.09622 9.24813 4.09622C9.24813 4.09622 8.9729 4.30395 9.24813 4.46239C9.52336 4.62082 9.40805 4.77273 9.40805 4.77273C9.40805 4.77273 8.94708 4.29728 8.64114 4.57506C8.33514 4.85283 8.92678 4.81056 8.86411 5.01971C8.80151 5.22887 8.53618 6.15745 8.92385 6.62631C9.31158 7.09511 8.55733 6.9934 8.71072 6.9934C8.86411 6.9934 9.40805 7.10248 9.40805 6.9934C9.40805 6.88425 9.59711 7.41763 9.75894 7.41763C9.92077 7.41763 10.0457 7.2302 10.0457 7.2302C10.0457 7.2302 10.2726 7.41763 10.4108 7.41763C10.549 7.41763 11.031 7.295 11.031 7.295L10.12 6.51523C10.12 6.51523 10.1749 6.17134 10.0457 6.09688C9.91644 6.02243 11.0817 6.75654 11.173 6.9934C11.2642 7.2302 11.3377 7.2302 11.3377 7.2302Z" fill="#8F4620"/>
</g>
<path id="Vector_8" d="M6.72461 6.84379C6.72461 6.84379 6.8091 6.5703 6.89949 6.55133C6.97785 6.53487 7.14255 6.68236 7.14255 6.68236C7.43522 8.33373 8.14278 8.9787 9.31689 8.9787C10.5048 8.9787 11.2247 8.48859 11.6449 6.96562C11.6449 6.96562 11.8682 6.7339 11.947 6.75967C12.0328 6.78767 12.1403 7.09424 12.1403 7.09424C11.6584 8.84144 10.7477 9.61939 9.31689 9.61939C7.87228 9.61939 7.06065 8.7399 6.72461 6.84379Z" fill="#9FAB2F"/>
<path id="Vector_9" fill-rule="evenodd" clip-rule="evenodd" d="M8.00084 7.94653C8.00084 7.94653 9.69081 8.3107 10.3578 8.3107C11.0249 8.3107 9.7726 8.86373 9.28396 8.86373C9.07021 8.86373 8.81258 8.73213 8.51108 8.46888C8.45702 8.42168 8.50939 8.31608 8.34475 8.31465C8.11519 8.31265 7.83001 8.25796 7.85729 8.22459C7.88322 8.19288 8.21723 8.18333 8.18506 8.14865C8.13196 8.0915 8.00084 7.94653 8.00084 7.94653Z" fill="#2FC2DC"/>
<path id="Vector_10" d="M9.78125 8.19995H8.84375C8.79197 8.19995 8.75 8.24259 8.75 8.29519V8.71696C8.75 8.76956 8.79197 8.8122 8.84375 8.8122H9.78125C9.83303 8.8122 9.875 8.76956 9.875 8.71696V8.29519C9.875 8.24259 9.83303 8.19995 9.78125 8.19995Z" fill="#F9AA51"/>
<path id="Vector_11" d="M7.34863 7.07758C7.34863 7.07758 7.34863 6.8633 7.49151 6.74941C7.65525 6.6189 7.8091 6.74941 7.8091 6.74941C8.40844 7.61718 9.30467 7.90267 10.5581 7.60473C10.5581 7.60473 10.9329 7.72913 10.9518 7.8109C10.9756 7.91461 10.6863 8.16113 10.6863 8.16113C9.22097 8.50941 8.08832 8.14861 7.34863 7.07758Z" fill="#259485"/>
<path id="Vector_12" fill-rule="evenodd" clip-rule="evenodd" d="M9.83262 7.2002C9.83262 7.2002 9.14992 7.56528 9.3775 7.56528C9.60504 7.56528 10.4956 7.7478 10.3223 7.56528C10.149 7.38277 9.83262 7.2002 9.83262 7.2002Z" fill="#FCCA3D"/>
<path id="Vector_13" fill-rule="evenodd" clip-rule="evenodd" d="M9.02522 6.76466C9.02522 6.76466 8.89551 6.38403 8.62556 6.38403C8.35562 6.38403 8.43184 6.69626 8.30201 6.69626C8.17219 6.69626 8.42295 6.91598 8.53472 6.91598C8.64649 6.91598 9.02522 6.76466 9.02522 6.76466Z" fill="#FCCA3D"/>
</g>
</g>
</g>
</g>
<defs>
<clipPath id="clip0_630_245">
<rect width="18" height="13.7143" fill="white" transform="translate(0.5 0.142822)"/>
</clipPath>
</defs>
</svg>
