<svg width="20" height="20" viewBox="0 0 20 20" fill="none" xmlns="http://www.w3.org/2000/svg">
<g id="icon / bootstrap / outline &#38; logos / nut">
<path id="Vector" d="M14.275 2.5L18.56 10L14.275 17.5H5.72503L1.44003 10L5.72503 2.5H14.275ZM5.72503 1.25C5.5047 1.25007 5.2883 1.30838 5.09776 1.41901C4.90722 1.52965 4.74931 1.68868 4.64003 1.88L0.355027 9.38C0.247163 9.56883 0.19043 9.78253 0.19043 10C0.19043 10.2175 0.247163 10.4312 0.355027 10.62L4.64003 18.12C4.74931 18.3113 4.90722 18.4704 5.09776 18.581C5.2883 18.6916 5.5047 18.7499 5.72503 18.75H14.275C14.4954 18.7499 14.7118 18.6916 14.9023 18.581C15.0928 18.4704 15.2507 18.3113 15.36 18.12L19.6463 10.62C19.7541 10.4312 19.8109 10.2175 19.8109 10C19.8109 9.78253 19.7541 9.56883 19.6463 9.38L15.36 1.88C15.2507 1.68868 15.0928 1.52965 14.9023 1.41901C14.7118 1.30838 14.4954 1.25007 14.275 1.25H5.72503Z" fill="white"/>
<path id="Vector_2" d="M8.56016 7.41623C8.20189 7.61992 7.88746 7.89247 7.63495 8.21818C7.38244 8.54389 7.19686 8.91633 7.08888 9.31406C6.9809 9.71179 6.95266 10.1269 7.00578 10.5356C7.0589 10.9443 7.19233 11.3385 7.3984 11.6954C7.60447 12.0523 7.8791 12.3649 8.20647 12.6152C8.53385 12.8656 8.90752 13.0487 9.30595 13.154C9.70439 13.2594 10.1197 13.2849 10.5281 13.229C10.9364 13.1732 11.3296 13.0372 11.6852 12.8287C12.3971 12.4114 12.915 11.7294 13.1259 10.9316C13.3368 10.1338 13.2236 9.28495 12.811 8.57031C12.3984 7.85566 11.7199 7.33322 10.9235 7.11701C10.1271 6.9008 9.27753 7.00836 8.56016 7.41623ZM6.33516 12.31C6.03616 11.812 5.83931 11.2595 5.75609 10.6847C5.67286 10.1099 5.70492 9.52424 5.85041 8.96194C5.99589 8.39963 6.25189 7.87193 6.60346 7.4096C6.95503 6.94727 7.39514 6.55957 7.89812 6.26912C8.4011 5.97867 8.95688 5.79128 9.53304 5.71788C10.1092 5.64448 10.6942 5.68653 11.2539 5.8416C11.8137 5.99666 12.3369 6.26162 12.7932 6.62104C13.2495 6.98045 13.6296 7.42711 13.9114 7.93498C14.4824 8.93929 14.633 10.1287 14.3303 11.2436C14.0276 12.3586 13.2962 13.3085 12.2957 13.8862C11.2952 14.4638 10.1068 14.6223 8.98989 14.327C7.87297 14.0317 6.91819 13.3066 6.33391 12.31H6.33516Z" fill="white"/>
</g>
</svg>
