<svg width="24" height="24" viewBox="0 0 24 24" fill="none" xmlns="http://www.w3.org/2000/svg">
<g id="icon / ionicons / outline / stats-chart-outline">
<path id="Vector (Stroke)" fill-rule="evenodd" clip-rule="evenodd" d="M3.75 15.75V21.75H4.5V15.75H3.75ZM2.25 15.375C2.25 14.7537 2.75368 14.25 3.375 14.25H4.875C5.49632 14.25 6 14.7537 6 15.375V22.125C6 22.7463 5.49632 23.25 4.875 23.25H3.375C2.75368 23.25 2.25 22.7463 2.25 22.125V15.375Z" fill="white"/>
<path id="Vector (Stroke)_2" fill-rule="evenodd" clip-rule="evenodd" d="M14.25 11.25V21.75H15V11.25H14.25ZM12.75 10.875C12.75 10.2537 13.2537 9.75 13.875 9.75H15.375C15.9963 9.75 16.5 10.2537 16.5 10.875V22.125C16.5 22.7463 15.9963 23.25 15.375 23.25H13.875C13.2537 23.25 12.75 22.7463 12.75 22.125V10.875Z" fill="white"/>
<path id="Vector (Stroke)_3" fill-rule="evenodd" clip-rule="evenodd" d="M19.5 6V21.75H20.25V6H19.5ZM18 5.625C18 5.00368 18.5037 4.5 19.125 4.5H20.625C21.2463 4.5 21.75 5.00368 21.75 5.625V22.125C21.75 22.7463 21.2463 23.25 20.625 23.25H19.125C18.5037 23.25 18 22.7463 18 22.125V5.625Z" fill="white"/>
<path id="Vector (Stroke)_4" fill-rule="evenodd" clip-rule="evenodd" d="M9 2.25V21.75H9.75V2.25H9ZM7.5 1.875C7.5 1.25368 8.00368 0.75 8.625 0.75H10.125C10.7463 0.75 11.25 1.25368 11.25 1.875V22.125C11.25 22.7463 10.7463 23.25 10.125 23.25H8.625C8.00368 23.25 7.5 22.7463 7.5 22.125V1.875Z" fill="white"/>
</g>
</svg>
