<svg width="24" height="22" viewBox="0 0 24 22" fill="none" xmlns="http://www.w3.org/2000/svg">
<path id="Vector" d="M22.1357 15.9201V18.9201C22.1369 19.1986 22.0787 19.4743 21.9648 19.7294C21.851 19.9846 21.684 20.2137 21.4746 20.402C21.2652 20.5902 21.018 20.7336 20.7488 20.8228C20.4796 20.912 20.1944 20.9452 19.9113 20.9201C16.7715 20.5857 13.7555 19.5342 11.1057 17.8501C8.64033 16.3148 6.55014 14.2663 4.98355 11.8501C3.25912 9.2413 2.18598 6.27109 1.85106 3.1801C1.82556 2.90356 1.85909 2.62486 1.94952 2.36172C2.03995 2.09859 2.18529 1.85679 2.3763 1.65172C2.56731 1.44665 2.79979 1.28281 3.05894 1.17062C3.3181 1.05843 3.59825 1.00036 3.88156 1.0001H6.94263C7.43781 0.995321 7.91788 1.16718 8.29334 1.48363C8.6688 1.80008 8.91404 2.23954 8.98334 2.7201C9.11254 3.68016 9.35215 4.62282 9.69759 5.5301C9.83487 5.88802 9.86458 6.27701 9.7832 6.65098C9.70183 7.02494 9.51277 7.36821 9.23843 7.6401L7.94258 8.9101C9.39511 11.4136 11.5102 13.4865 14.0647 14.9101L15.3606 13.6401C15.638 13.3712 15.9882 13.1859 16.3698 13.1062C16.7514 13.0264 17.1483 13.0556 17.5135 13.1901C18.4393 13.5286 19.4011 13.7635 20.3807 13.8901C20.8764 13.9586 21.329 14.2033 21.6526 14.5776C21.9762 14.9519 22.1481 15.4297 22.1357 15.9201Z" stroke="white" stroke-width="2" stroke-linecap="round" stroke-linejoin="round"/>
</svg>
