<svg width="72" height="72" viewBox="0 0 72 72" fill="none" xmlns="http://www.w3.org/2000/svg">
<g id="Group">
<g id="Group_2">
<g id="Group_3">
<path id="Vector" d="M69.5323 2.04175C68.457 2.04175 67.2024 2.04175 66.1271 2.04175C58.779 2.40019 51.7894 4.01319 45.1582 7.23918C37.0932 11.0028 30.2828 16.3795 24.9061 23.5484C21.1425 28.3873 18.4541 33.764 16.4827 39.4991C16.3035 39.8575 16.4827 40.0368 16.6619 40.216C18.2749 41.829 19.8879 43.442 21.5009 45.055C21.6801 45.2342 21.8593 45.5926 21.8593 45.9511C21.8593 46.3095 21.6801 46.668 21.3217 46.8472C20.9632 47.0264 20.4256 47.0264 20.2463 46.668C19.3502 45.7719 18.6334 45.055 17.7372 44.1589C16.6619 43.0835 15.7658 42.0082 14.6905 41.1121C14.332 40.7537 14.1528 40.216 14.332 39.6783C16.6619 32.6887 20.0671 26.2367 24.9061 20.5016C29.7451 14.5873 35.6594 9.92751 42.2906 6.52229C48.3842 3.2963 55.0154 1.32486 61.8258 0.428753C64.6933 0.0703095 67.5609 -0.108912 70.4284 0.0703096C71.3245 0.0703096 71.5038 0.428753 71.683 1.32486C72.0414 12.9743 69.1739 23.7276 62.9011 33.764C56.6284 43.6212 48.0257 50.9693 37.2724 55.6291C35.6594 56.3459 33.8672 56.8836 32.075 57.6005C31.5373 57.7797 31.1789 57.7797 30.8204 57.2421C29.0282 55.4498 27.0568 53.4784 25.2646 51.6862C24.9061 51.3277 24.7269 50.7901 25.0853 50.2524C25.4438 49.7147 26.1607 49.7147 26.6983 50.2524C28.3113 51.8654 29.9243 53.4784 31.5373 55.0914C31.8958 55.4498 32.075 55.4498 32.4334 55.2706C40.3192 52.5823 47.3088 48.281 53.2231 42.5459C60.2128 35.7354 64.8726 27.6705 67.5609 18.5301C68.9947 13.5119 69.7115 8.31451 69.7115 2.93786C69.7115 2.57941 69.5323 2.40019 69.5323 2.04175Z" fill="white"/>
</g>
<g id="Group_4">
<path id="Vector_2" d="M59.6746 23.0107C59.6746 29.1042 54.8356 33.9432 48.7421 33.9432C42.6486 33.9432 37.8096 29.1042 37.8096 23.0107C37.8096 17.0963 42.6486 12.0781 48.5629 12.0781C54.8356 12.0781 59.6746 16.9171 59.6746 23.0107ZM57.524 23.1899C57.524 18.1717 53.5811 14.2288 48.5629 14.2288C43.5447 14.2288 39.6018 18.1717 39.6018 23.1899C39.6018 28.2081 43.5447 32.151 48.5629 32.151C53.5811 31.9717 57.524 28.0289 57.524 23.1899Z" fill="white"/>
</g>
<g id="Group_5">
<path id="Vector_3" d="M32.2539 68.8915C33.5084 68.1746 34.763 67.2785 35.8383 66.3824C39.4228 63.1564 41.3942 59.2135 42.2903 54.5537C42.4695 53.8368 42.828 53.4784 43.3656 53.4784C44.0825 53.4784 44.441 54.0161 44.441 54.7329C44.2617 55.6291 44.0825 56.7044 43.7241 57.6005C41.7526 63.694 38.1682 68.1746 32.6123 71.2213C31.3578 71.9382 30.8201 71.5798 30.6409 70.3252C29.924 66.5616 29.2071 62.6187 28.4902 58.855C28.4902 58.4966 28.4902 58.1382 28.4902 57.9589C28.6695 57.6005 29.0279 57.4213 29.5656 57.4213C29.924 57.4213 30.2825 57.7797 30.4617 58.1382C30.6409 59.2135 30.8201 60.2888 31.1786 61.5434C31.3578 64.0525 31.8954 66.3824 32.2539 68.8915Z" fill="white"/>
</g>
<g id="Group_6">
<path id="Vector_4" d="M2.68219 39.3198C3.75752 39.499 4.83285 39.6782 5.72896 39.8574C8.23806 40.3951 10.7472 40.7536 13.077 41.2912C13.2563 41.2912 13.2563 41.2912 13.4355 41.2912C13.9732 41.4704 14.3316 42.0081 14.1524 42.5458C13.9732 43.0834 13.6147 43.4419 12.8978 43.2627C11.4641 42.9042 9.85106 42.725 8.41728 42.3666C6.0874 41.8289 3.75752 41.4704 1.24841 40.9328C1.06919 40.9328 1.06919 40.9328 0.88997 40.9328C-0.00613915 40.7536 -0.185361 40.2159 0.173083 39.3198C1.24841 37.3483 2.50297 35.3769 4.11596 33.7639C7.52117 30.1795 11.6433 28.208 16.303 27.1327C16.4823 27.1327 16.6615 27.1327 16.6615 26.9535C17.1992 26.7743 17.7368 27.1327 17.916 27.6704C18.0953 28.208 17.7368 28.7457 17.0199 28.9249C15.9446 29.2834 14.69 29.4626 13.6147 29.821C8.95495 31.434 5.37051 34.3016 2.68219 38.4237C2.86141 38.9613 2.86141 39.1406 2.68219 39.3198Z" fill="white"/>
</g>
<g id="Group_7">
<path id="Vector_5" d="M15.4072 55.2706C15.5864 55.0913 15.7657 54.7329 15.9449 54.5537C19.3501 51.1485 22.5761 47.9225 25.9813 44.5173C27.2359 43.2627 28.3112 42.1874 29.5657 40.9328C30.1034 40.3952 30.6411 40.3952 31.1787 40.7536C31.5372 41.112 31.5372 41.8289 30.9995 42.3666C27.0566 46.3095 23.1138 50.4316 18.9917 54.3745C18.454 54.9121 17.9163 55.629 17.1994 56.1667C16.841 56.5251 16.4826 56.5251 16.1241 56.3459C15.5864 56.1667 15.4072 55.8082 15.4072 55.2706Z" fill="white"/>
</g>
<g id="Group_8">
<path id="Vector_6" d="M10.7472 59.9303C11.1056 60.1095 11.4641 60.2887 11.6433 60.6472C11.8225 61.0056 11.6433 61.3641 11.4641 61.7225C11.2849 61.9017 10.9264 62.2602 10.7472 62.6186C8.59654 64.7693 6.44588 67.0992 4.11599 69.2498C3.75755 69.4291 3.57833 69.6083 3.21989 69.6083C2.86144 69.6083 2.503 69.429 2.32378 69.0706C2.14456 68.5329 2.14456 68.1745 2.503 67.8161C3.93677 66.3823 5.37055 64.9485 6.80432 63.5147C7.87965 62.4394 8.77576 61.5433 9.85109 60.468C10.2095 60.2887 10.3888 60.1095 10.7472 59.9303Z" fill="white"/>
</g>
<g id="Group_9">
<path id="Vector_7" d="M9.13408 52.5823C10.0302 52.5823 10.5679 53.4784 10.2094 54.016C10.0302 54.1953 10.0302 54.3745 9.85097 54.5537C7.52109 56.8836 5.1912 59.2135 2.86132 61.5434L2.6821 61.7226C2.14443 62.081 1.60677 62.2603 1.24832 61.7226C0.889881 61.3641 0.889881 60.6473 1.24832 60.2888C3.04054 58.4966 4.83276 56.7044 6.62498 54.9122C7.34186 54.1953 7.87953 53.6576 8.59642 53.1199C8.77564 52.7615 9.13408 52.5823 9.13408 52.5823Z" fill="white"/>
</g>
<g id="Group_10">
<path id="Vector_8" d="M19.1709 62.6188C19.1709 62.798 18.9917 62.9772 18.8125 63.3357C16.3034 65.8448 13.9735 68.1747 11.4644 70.6838C10.9267 71.2214 10.389 71.2214 9.85138 70.6838C9.49293 70.3253 9.49293 69.6084 10.0306 69.25C12.5397 66.7409 14.8696 64.411 17.3787 61.9019C17.7371 61.5435 18.0956 61.3642 18.6332 61.5435C18.9917 61.7227 19.1709 61.9019 19.1709 62.6188Z" fill="white"/>
</g>
</g>
</g>
</svg>
