<svg width="59" height="72" viewBox="0 0 59 72" fill="none" xmlns="http://www.w3.org/2000/svg">
<g id="Group">
<g id="Group_2">
<g id="Group_3">
<path id="Vector" d="M23.6573 49.1067C22.9404 49.2859 22.4028 49.4652 21.8651 49.8236C21.1482 48.7483 20.6106 47.4937 19.8937 46.5976C18.6391 44.8054 17.2054 43.1924 15.9508 41.4002C13.9794 38.7119 12.3664 36.0235 11.6495 32.6183C10.0365 24.1949 14.6962 15.9507 22.7612 12.7247C33.3353 8.42338 45.5224 15.5923 47.1354 26.8832C47.8523 32.0807 46.2393 36.382 43.3717 40.5041C42.1172 42.2963 40.5042 44.0885 39.2496 46.06C38.3535 47.3145 37.8159 48.5691 36.9198 49.8236C36.5613 50.3613 36.2029 50.8989 35.6652 51.0782C31.5431 52.6912 27.421 54.1249 23.2989 55.5587C22.7612 55.7379 22.4028 55.5587 22.2236 55.2003C22.0443 54.6626 22.0444 54.1249 22.582 53.9457C22.9405 53.7665 23.2989 53.5873 23.6573 53.5873C27.2417 52.3327 30.8262 51.0782 34.4106 49.6444C34.7691 49.4652 35.1275 49.1067 35.3067 48.7483C36.7405 46.06 38.5328 43.9093 40.325 41.4002C42.1172 39.0703 43.7302 36.9196 44.447 34.0521C46.2393 28.317 44.9847 23.2988 41.0418 18.9975C36.5613 13.9793 30.8262 12.3663 24.3742 14.3377C17.9223 16.3091 14.3378 20.7897 13.0832 27.4209C12.1871 32.0807 13.8001 36.0235 16.4884 39.608C18.1014 41.7586 19.7145 43.9093 21.3275 46.06C22.4028 46.7768 22.9404 47.8522 23.6573 49.1067Z" fill="white"/>
<path id="Vector_2" d="M22.7613 66.8496C22.5821 66.6704 22.2236 66.4912 22.2236 66.1327C22.2236 65.7743 22.4029 65.4159 22.5821 65.0574C22.5821 64.8782 22.9405 64.8782 23.1197 64.8782C27.0626 63.4444 31.1847 62.0106 35.1276 60.5769C36.0237 60.2184 36.3821 60.3976 36.5614 60.9353C36.7406 61.473 36.3821 62.0106 35.6653 62.3691C31.5432 63.8029 27.6003 65.2366 23.4782 66.8496C23.299 66.6704 23.1197 66.6704 22.7613 66.8496Z" fill="white"/>
<path id="Vector_3" d="M22.7613 60.9354C22.5821 60.7562 22.2236 60.577 22.2236 60.2186C22.2236 59.8601 22.4029 59.5017 22.5821 59.1432C22.5821 58.964 22.9405 58.964 23.1197 58.964C27.0626 57.5302 31.1847 56.0965 35.1276 54.6627C36.0237 54.3042 36.3821 54.4835 36.5614 55.0211C36.7406 55.5588 36.5614 56.0965 35.6653 56.4549C31.5432 57.8887 27.6003 59.5017 23.4782 60.9354C23.299 60.9354 23.1197 60.9354 22.7613 60.9354Z" fill="white"/>
<path id="Vector_4" d="M35.6656 65.9537C34.4111 70.2551 27.4214 72.7642 23.1201 70.4343C27.2422 69.0005 31.3643 67.3875 35.6656 65.9537Z" fill="white"/>
<path id="Vector_5" d="M30.2883 3.22599C30.2883 3.94288 30.2883 4.65977 30.2883 5.37665C30.2883 5.91432 29.9299 6.27276 29.3922 6.27276C28.8545 6.27276 28.4961 5.91432 28.4961 5.37665C28.4961 3.94288 28.4961 2.5091 28.4961 0.896109C28.4961 0.358443 28.8545 0 29.3922 0C29.9299 0 30.2883 0.358443 30.2883 0.896109C30.2883 1.613 30.2883 2.5091 30.2883 3.22599Z" fill="white"/>
<path id="Vector_6" d="M3.22597 28.3171C3.94286 28.3171 4.65977 28.3171 5.37665 28.3171C6.09354 28.3171 6.45199 28.6756 6.45199 29.2132C6.45199 29.7509 6.09354 30.1094 5.37665 30.1094C3.94288 30.1094 2.50912 30.1094 1.07534 30.1094C0.358454 30.1094 0 29.7509 0 29.2132C0 28.6756 0.358454 28.3171 1.07534 28.3171C1.79223 28.3171 2.50908 28.3171 3.22597 28.3171Z" fill="white"/>
<path id="Vector_7" d="M55.5585 30.2886C54.8416 30.2886 54.1247 30.2886 53.4078 30.2886C52.8702 30.2886 52.5117 29.9301 52.5117 29.3924C52.5117 28.8548 52.8702 28.4963 53.4078 28.4963C54.8416 28.4963 56.4546 28.4963 57.8884 28.4963C58.426 28.4963 58.7845 28.8548 58.7845 29.3924C58.7845 29.9301 58.426 30.2886 57.8884 30.2886C56.9923 30.2886 56.2754 30.2886 55.5585 30.2886Z" fill="white"/>
<path id="Vector_8" d="M8.96155 7.88586C9.32 8.06509 9.49921 8.24431 9.67843 8.42353C10.7538 9.49886 11.6499 10.395 12.7252 11.4703C13.2629 12.008 13.2629 12.3664 12.7252 12.9041C12.3668 13.2625 11.8291 13.2625 11.2914 12.9041C10.2161 11.8287 9.14079 10.9326 8.24468 9.8573C8.06546 9.67808 7.88622 9.14042 8.06544 8.78197C8.24467 8.24431 8.78233 8.06509 8.96155 7.88586Z" fill="white"/>
<path id="Vector_9" d="M46.4181 45.3431C46.7765 45.5224 46.9557 45.7016 47.1349 45.8808C48.2103 46.7769 49.1064 47.8522 50.1817 48.7484C50.7194 49.286 50.7194 49.8237 50.361 50.1821C50.0025 50.5406 49.4648 50.5406 48.9272 50.0029C47.8518 48.9276 46.9558 48.0315 45.8804 46.9561C45.7012 46.7769 45.522 46.2393 45.7012 45.8808C45.7012 45.7016 46.0596 45.5224 46.4181 45.3431Z" fill="white"/>
<path id="Vector_10" d="M50.7196 8.96119C50.5404 9.31963 50.3612 9.49885 50.182 9.67808C49.1067 10.7534 48.2105 11.6495 47.1352 12.7248C46.7768 13.0833 46.2391 13.2625 45.7014 12.7248C45.343 12.3664 45.343 11.8287 45.7014 11.2911C46.7768 10.2157 47.6729 9.14041 48.7482 8.2443C48.9274 8.06508 49.4651 7.88586 49.8235 8.06508C50.182 8.2443 50.3612 8.78197 50.7196 8.96119Z" fill="white"/>
<path id="Vector_11" d="M8.96157 50.5406C8.78235 50.3614 8.42391 50.1821 8.24469 49.8237C8.06547 49.6445 8.24469 49.1068 8.24469 48.9276C9.32002 47.8523 10.3953 46.5977 11.6499 45.5224C12.0083 45.1639 12.546 45.1639 12.9044 45.5224C13.2629 45.8808 13.2629 46.4185 12.9044 46.7769C11.8291 47.8523 10.7538 48.9276 9.67845 50.0029C9.49922 50.3614 9.32001 50.5406 8.96157 50.5406Z" fill="white"/>
</g>
</g>
</g>
</svg>
