<svg width="32" height="24" viewBox="0 0 32 24" fill="none" xmlns="http://www.w3.org/2000/svg">
<g id="Group">
<g id="Group_2">
<path id="Vector" fill-rule="evenodd" clip-rule="evenodd" d="M0 0H45.6V1.84688H0V0ZM0 3.69375H45.6V5.54063H0V3.69375ZM0 7.38281H45.6V9.23438H0V7.38281ZM0 11.0766H45.6V12.9234H0V11.0766ZM0 14.7703H45.6V16.6172H0V14.7703ZM0 18.4594H45.6V20.3062H0V18.4594ZM0 22.1531H45.6V24H0V22.1531Z" fill="#BD3D44"/>
<path id="Vector_2" fill-rule="evenodd" clip-rule="evenodd" d="M0 1.84692H45.6V3.6938H0V1.84692ZM0 5.54067H45.6V7.38286H0V5.54067ZM0 9.22974H45.6V11.0766H0V9.22974ZM0 12.9235H45.6V14.7704H0V12.9235ZM0 16.6172H45.6V18.4641H0V16.6172ZM0 20.3063H45.6V22.1532H0V20.3063Z" fill="white"/>
</g>
<path id="Vector_3" fill-rule="evenodd" clip-rule="evenodd" d="M0 0H18.2391V12.9234H0V0Z" fill="#192F5D"/>
<path id="Vector_4" fill-rule="evenodd" clip-rule="evenodd" d="M1.5188 0.553223L1.68755 1.06416H2.22192L1.79067 1.37822L1.95474 1.89385L1.5188 1.5751L1.08755 1.88916L1.25161 1.37822L0.815674 1.06416H1.35942L1.5188 0.553223ZM4.56099 0.553223L4.72505 1.06416H5.26411L4.82817 1.37822L4.99224 1.89385L4.56099 1.5751L4.12505 1.88916L4.28911 1.37822L3.85786 1.06416H4.39224L4.56099 0.553223ZM7.59849 0.553223L7.76724 1.06416H8.29692L7.86567 1.37822L8.02974 1.89385L7.5938 1.5751L7.16255 1.88916L7.32661 1.37822L6.89067 1.06416H7.42974L7.59849 0.553223ZM10.6407 0.553223L10.8047 1.06416H11.3438L10.9079 1.37822L11.0766 1.89385L10.6407 1.5751L10.2047 1.88916L10.3735 1.37822L9.93755 1.06416H10.4719L10.6407 0.553223ZM13.6782 0.553223L13.8469 1.06416H14.3813L13.95 1.37822L14.1141 1.89385L13.6782 1.5751L13.2469 1.88916L13.411 1.37822L12.9797 1.06416H13.5141L13.6782 0.553223ZM16.7204 0.553223L16.8844 1.06416H17.4235L16.9875 1.37822L17.1563 1.89385L16.7204 1.5751L16.2844 1.88916L16.4532 1.37822L16.0172 1.06416H16.5563L16.7204 0.553223ZM3.04224 1.84697L3.2063 2.35791H3.74536L3.30942 2.67197L3.4688 3.18291L3.04692 2.86885L2.61099 3.18291L2.76567 2.67197L2.3438 2.35791H2.87817L3.04224 1.84697ZM6.07974 1.84697L6.24849 2.35791H6.78286L6.34692 2.67197L6.51567 3.18291L6.07974 2.86885L5.6438 3.18291L5.81255 2.67197L5.37661 2.35791H5.91567L6.07974 1.84697ZM9.12192 1.84697L9.28599 2.35791H9.82505L9.38911 2.67197L9.55317 3.18291L9.12192 2.86885L8.68599 3.18291L8.85005 2.67197L8.4188 2.35791H8.95317L9.12192 1.84697ZM12.1594 1.84697L12.3282 2.35791H12.8625L12.4266 2.67197L12.5954 3.18291L12.1594 2.86885L11.7282 3.18291L11.8922 2.67197L11.4563 2.35791H12L12.1594 1.84697ZM15.2016 1.84697L15.3657 2.35791H15.9047L15.4688 2.67197L15.6329 3.18291L15.2016 2.86885L14.7657 3.18291L14.9297 2.67197L14.4985 2.35791H15.0329L15.2016 1.84697ZM1.5188 3.13604L1.68755 3.65635H2.22192L1.79067 3.97041L1.95474 4.48135L1.5188 4.1626L1.08755 4.48135L1.25161 3.96572L0.815674 3.65166H1.35942L1.5188 3.13604ZM4.56099 3.13604L4.72505 3.65166H5.26411L4.82817 3.96572L4.99224 4.47666L4.56099 4.15791L4.12505 4.47666L4.28911 3.96104L3.85786 3.64697H4.39224L4.56099 3.13604ZM7.59849 3.13604L7.76724 3.65166H8.29692L7.86567 3.96572L8.02974 4.47666L7.5938 4.15791L7.16255 4.47666L7.32661 3.96104L6.89067 3.64697H7.42974L7.59849 3.13604ZM10.6407 3.13604L10.8047 3.65166H11.3438L10.9079 3.96572L11.0766 4.47666L10.6407 4.15791L10.2047 4.47666L10.3735 3.96104L9.93755 3.64697H10.4719L10.6407 3.13604ZM13.6782 3.13604L13.8469 3.65166H14.3813L13.95 3.96572L14.1141 4.47666L13.6782 4.15791L13.2469 4.47666L13.411 3.96104L12.9797 3.64697H13.5141L13.6782 3.13604ZM16.7204 3.13604L16.8844 3.65166H17.4235L16.9875 3.96572L17.1563 4.47666L16.7204 4.15791L16.2844 4.47666L16.4532 3.96104L16.0172 3.64697H16.5563L16.7204 3.13604ZM3.04224 4.42979L3.2063 4.94072H3.74536L3.30942 5.25479L3.47349 5.77041L3.04224 5.45166L2.6063 5.76572L2.77036 5.25479L2.33911 4.94072H2.87349L3.04224 4.42979ZM6.07974 4.42979L6.24849 4.94072H6.78286L6.34692 5.25479L6.51567 5.77041L6.07974 5.45166L5.6438 5.76572L5.81255 5.25479L5.37661 4.94072H5.91567L6.07974 4.42979ZM9.12192 4.42979L9.28599 4.94072H9.82505L9.38911 5.25479L9.55317 5.77041L9.12192 5.45166L8.68599 5.76572L8.85005 5.25479L8.4188 4.94072H8.95317L9.12192 4.42979ZM12.1594 4.42979L12.3282 4.94072H12.8625L12.4313 5.25479L12.5954 5.77041L12.1594 5.45166L11.7282 5.76572L11.8922 5.25479L11.4563 4.94072H12L12.1594 4.42979ZM15.2016 4.42979L15.3657 4.94072H15.9047L15.4688 5.25479L15.6329 5.77041L15.2016 5.45166L14.7657 5.76572L14.9297 5.25479L14.4985 4.94072H15.0329L15.2016 4.42979ZM1.5188 5.72354L1.68755 6.23447H2.22192L1.79067 6.54853L1.95474 7.06416L1.5188 6.74541L1.08755 7.05947L1.25161 6.54853L0.815674 6.23447H1.35942L1.5188 5.72354ZM4.56099 5.72354L4.72505 6.23447H5.26411L4.82817 6.54853L4.99224 7.05947L4.56099 6.74541L4.12505 7.05947L4.28911 6.54853L3.85786 6.23447H4.39224L4.56099 5.72354ZM7.59849 5.72354L7.76724 6.23447H8.29692L7.86567 6.54853L8.02974 7.06416L7.5938 6.74541L7.16255 7.05947L7.32661 6.54853L6.89067 6.23447H7.42974L7.59849 5.72354ZM10.6407 5.72354L10.8047 6.23447H11.3438L10.9079 6.54853L11.0766 7.06416L10.6407 6.74541L10.2047 7.05947L10.3735 6.54853L9.93755 6.23447H10.4719L10.6407 5.72354ZM13.6782 5.72354L13.8469 6.23447H14.3813L13.95 6.54853L14.1141 7.06416L13.6782 6.74541L13.2469 7.05947L13.411 6.54853L12.9797 6.23447H13.5141L13.6782 5.72354ZM16.7204 5.72354L16.8844 6.23447H17.4235L16.9875 6.54853L17.1563 7.06416L16.7204 6.74541L16.2844 7.05947L16.4532 6.54853L16.0172 6.23447H16.5563L16.7204 5.72354ZM3.04224 7.01729L3.2063 7.52822H3.74536L3.30942 7.84229L3.47349 8.35322L3.04224 8.03447L2.6063 8.35322L2.77036 7.8376L2.33911 7.52354H2.87349L3.04224 7.01729ZM6.07974 7.01729L6.24849 7.52822H6.78286L6.34692 7.84229L6.51567 8.35322L6.07974 8.03447L5.6438 8.35322L5.81255 7.8376L5.37661 7.52354H5.91567L6.07974 7.01729ZM9.12192 7.01729L9.28599 7.52822H9.82505L9.38911 7.84229L9.55317 8.35322L9.12192 8.03447L8.68599 8.35322L8.85005 7.8376L8.4188 7.52354H8.95317L9.12192 7.01729ZM12.1594 7.01729L12.3282 7.52822H12.8625L12.4313 7.84229L12.5954 8.35322L12.1594 8.03447L11.7282 8.35322L11.8922 7.8376L11.4563 7.52354H12L12.1594 7.01729ZM15.2016 7.01729L15.3657 7.52822H15.9047L15.4688 7.84229L15.6329 8.35322L15.2016 8.03447L14.7657 8.35322L14.9297 7.8376L14.4985 7.52354H15.0329L15.2016 7.01729ZM1.5188 8.30635L1.68755 8.82197H2.22192L1.79067 9.13603L1.95474 9.64229L1.5188 9.32822L1.08755 9.64229L1.25161 9.13135L0.815674 8.81729H1.35942L1.5188 8.30635ZM4.56099 8.30635L4.72505 8.82197H5.26411L4.82817 9.13603L4.99692 9.64229L4.56099 9.32822L4.12505 9.64229L4.2938 9.13135L3.85786 8.81729H4.39224L4.56099 8.30635ZM7.59849 8.30635L7.76724 8.82197H8.29692L7.86567 9.13603L8.02974 9.64229L7.5938 9.32822L7.16255 9.64229L7.32661 9.13135L6.89067 8.81729H7.42974L7.59849 8.30635ZM10.6407 8.30635L10.8047 8.82197H11.3438L10.9079 9.13603L11.0766 9.64229L10.6407 9.32822L10.2047 9.64229L10.3735 9.13135L9.93755 8.81729H10.4719L10.6407 8.30635ZM13.6782 8.30635L13.8469 8.82197H14.3813L13.95 9.13603L14.1141 9.64229L13.6782 9.32822L13.2469 9.64229L13.411 9.13135L12.9797 8.81729H13.5141L13.6782 8.30635ZM16.7204 8.30635L16.8844 8.82197H17.4235L16.9875 9.13603L17.1563 9.64229L16.7204 9.32822L16.2844 9.64229L16.4532 9.13135L16.0172 8.81729H16.5563L16.7204 8.30635ZM3.04224 9.6001L3.2063 10.111H3.74536L3.30942 10.4251L3.47349 10.9407L3.04224 10.622L2.6063 10.936L2.77036 10.4251L2.33911 10.111H2.87349L3.04224 9.6001ZM6.07974 9.6001L6.24849 10.111H6.78286L6.34692 10.4251L6.51567 10.9407L6.07974 10.622L5.6438 10.936L5.81255 10.4251L5.37661 10.111H5.91567L6.07974 9.6001ZM9.12192 9.6001L9.28599 10.111H9.82505L9.38911 10.4251L9.55317 10.9407L9.12192 10.622L8.68599 10.936L8.85005 10.4251L8.4188 10.111H8.95317L9.12192 9.6001ZM12.1594 9.6001L12.3282 10.111H12.8625L12.4313 10.4251L12.5954 10.9407L12.1594 10.622L11.7282 10.936L11.8922 10.4251L11.4563 10.111H12L12.1594 9.6001ZM15.2016 9.6001L15.3657 10.111H15.9047L15.4688 10.4251L15.6329 10.9407L15.2016 10.622L14.7657 10.936L14.9297 10.4251L14.4985 10.111H15.0329L15.2016 9.6001ZM1.5188 10.8938L1.68755 11.4048H2.22192L1.79067 11.7188L1.95474 12.2298L1.5188 11.9157L1.08755 12.2298L1.25161 11.7142L0.815674 11.4001H1.35942L1.5188 10.8938ZM4.56099 10.8938L4.72505 11.4048H5.26411L4.82817 11.7188L4.99692 12.2298L4.56099 11.9157L4.12505 12.2298L4.2938 11.7142L3.85786 11.4001H4.39224L4.56099 10.8938ZM7.59849 10.8938L7.76724 11.4048H8.29692L7.87505 11.7188L8.03911 12.2298L7.60317 11.9157L7.17192 12.2298L7.33599 11.7142L6.90005 11.4001H7.43911L7.59849 10.8938ZM10.6407 10.8938L10.8047 11.4048H11.3438L10.9079 11.7188L11.0766 12.2298L10.6407 11.9157L10.2047 12.2298L10.3735 11.7142L9.93755 11.4001H10.4719L10.6407 10.8938ZM13.6782 10.8938L13.8469 11.4048H14.3813L13.95 11.7188L14.1141 12.2298L13.6782 11.9157L13.2469 12.2298L13.411 11.7142L12.9797 11.4001H13.5141L13.6782 10.8938ZM16.7204 10.8938L16.8844 11.4048H17.4235L16.9875 11.7188L17.1563 12.2298L16.7204 11.9157L16.2844 12.2298L16.4532 11.7142L16.0172 11.4001H16.5563L16.7204 10.8938Z" fill="white"/>
</g>
</svg>
